  0
SECTION
  2
HEADER
  9
$ACADVER
  1
AC1014
  9
$HANDSEED
  5
FFFF
  9
$MEASUREMENT
 70
     1
  0
ENDSEC
  0
SECTION
  2
TABLES
  0
TABLE
  2
VPORT
  5
8
330
0
100
AcDbSymbolTable
 70
     4
  0
VPORT
  5
2E
330
8
100
AcDbSymbolTableRecord
100
AcDbViewportTableRecord
  2
*ACTIVE
 70
     0
 10
0.0
 20
0.0
 11
1.0
 21
1.0
 12
210.0
 22
148.5
 13
0.0
 23
0.0
 14
10.0
 24
10.0
 15
10.0
 25
10.0
 16
0.0
 26
0.0
 36
1.0
 17
0.0
 27
0.0
 37
0.0
 40
341.0
 41
1.24
 42
50.0
 43
0.0
 44
0.0
 50
0.0
 51
0.0
 71
     0
 72
   100
 73
     1
 74
     3
 75
     0
 76
     0
 77
     0
 78
     0
  0
ENDTAB
  0
TABLE
  2
LTYPE
  5
5
330
0
100
AcDbSymbolTable
 70
     1
  0
LTYPE
  5
14
330
5
100
AcDbSymbolTableRecord
100
AcDbLinetypeTableRecord
  2
BYBLOCK
 70
     0
  3

 72
    65
 73
     0
 40
0.0
  0
LTYPE
  5
15
330
5
100
AcDbSymbolTableRecord
100
AcDbLinetypeTableRecord
  2
BYLAYER
 70
     0
  3

 72
    65
 73
     0
 40
0.0
  0
LTYPE
  5
16
330
5
100
AcDbSymbolTableRecord
100
AcDbLinetypeTableRecord
  2
CONTINUOUS
 70
     0
  3
Solid line
 72
    65
 73
     0
 40
0.0
  0
ENDTAB
  0
TABLE
  2
LAYER
  5
2
100
AcDbSymbolTable
 70
2
  0
LAYER
  5
50
100
AcDbSymbolTableRecord
100
AcDbLayerTableRecord
  2
0
 70
0
  6
CONTINUOUS
  0
LAYER
  5
51
100
AcDbSymbolTableRecord
100
AcDbLayerTableRecord
  2
Ebene_1
 70
0
  6
CONTINUOUS
  0
ENDTAB
  0
TABLE
  2
STYLE
  5
3
330
0
100
AcDbSymbolTable
 70
     1
  0
STYLE
  5
11
330
3
100
AcDbSymbolTableRecord
100
AcDbTextStyleTableRecord
  2
STANDARD
 70
     0
 40
0.0
 41
1.0
 50
0.0
 71
     0
 42
2.5
  3
txt
  4

  0
ENDTAB
  0
TABLE
  2
VIEW
  5
6
330
0
100
AcDbSymbolTable
 70
     0
  0
ENDTAB
  0
TABLE
  2
UCS
  5
7
330
0
100
AcDbSymbolTable
 70
     0
  0
ENDTAB
  0
TABLE
  2
APPID
  5
9
330
0
100
AcDbSymbolTable
 70
     2
  0
APPID
  5
12
330
9
100
AcDbSymbolTableRecord
100
AcDbRegAppTableRecord
  2
ACAD
 70
     0
  0
ENDTAB
  0
TABLE
  2
DIMSTYLE
  5
A
330
0
100
AcDbSymbolTable
 70
     1
  0
DIMSTYLE
105
27
330
A
100
AcDbSymbolTableRecord
100
AcDbDimStyleTableRecord
  2
ISO-25
 70
     0
  3

  4

  5

  6

  7

 40
1.0
 41
2.5
 42
0.625
 43
3.75
 44
1.25
 45
0.0
 46
0.0
 47
0.0
 48
0.0
140
2.5
141
2.5
142
0.0
143
0.03937007874016
144
1.0
145
0.0
146
1.0
147
0.625
 71
     0
 72
     0
 73
     0
 74
     0
 75
     0
 76
     0
 77
     1
 78
     8
170
     0
171
     3
172
     1
173
     0
174
     0
175
     0
176
     0
177
     0
178
     0
270
     2
271
     2
272
     2
273
     2
274
     3
340
11
275
     0
280
     0
281
     0
282
     0
283
     0
284
     8
285
     0
286
     0
287
     3
288
     0
  0
ENDTAB
  0
TABLE
  2
BLOCK_RECORD
  5
1
330
0
100
AcDbSymbolTable
 70
     1
  0
BLOCK_RECORD
  5
1F
330
1
100
AcDbSymbolTableRecord
100
AcDbBlockTableRecord
  2
*MODEL_SPACE
  0
BLOCK_RECORD
  5
1B
330
1
100
AcDbSymbolTableRecord
100
AcDbBlockTableRecord
  2
*PAPER_SPACE
  0
ENDTAB
  0
ENDSEC
  0
SECTION
  2
BLOCKS
  0
BLOCK
  5
20
330
1F
100
AcDbEntity
  8
0
100
AcDbBlockBegin
  2
*MODEL_SPACE
 70
     0
 10
0.0
 20
0.0
 30
0.0
  3
*MODEL_SPACE
  1

  0
ENDBLK
  5
21
330
1F
100
AcDbEntity
  8
0
100
AcDbBlockEnd
  0
BLOCK
  5
1C
330
1B
100
AcDbEntity
 67
     1
  8
0
100
AcDbBlockBegin
  2
*PAPER_SPACE
  1

  0
ENDBLK
  5
1D
330
1B
100
AcDbEntity
 67
     1
  8
0
100
AcDbBlockEnd
  0
ENDSEC
  0
SECTION
  2
ENTITIES
  0
SPLINE
  5
100
100
AcDbEntity
  8
Ebene_1
 62
1
100
AcDbSpline
 70
8
 71
3
 72
8
 73
4
 74
0
 40
0
 40
0
 40
0
 40
0
 40
1
 40
1
 40
1
 40
1
 10
25.805182
 20
55.472073
 30
0.0
 10
8.944021
 20
54.012573
 30
0.0
 10
-1.074009
 20
38.863082
 30
0.0
 10
0.248959
 20
25.194581
 30
0.0
  0
SPLINE
  5
101
100
AcDbEntity
  8
Ebene_1
 62
1
100
AcDbSpline
 70
8
 71
3
 72
8
 73
4
 74
0
 40
0
 40
0
 40
0
 40
0
 40
1
 40
1
 40
1
 40
1
 10
0.248959
 20
25.194581
 30
0.0
 10
1.316280
 20
11.928441
 30
0.0
 10
14.087019
 20
-1.054990
 30
0.0
 10
30.852901
 20
0.483040
 30
0.0
  0
SPLINE
  5
102
100
AcDbEntity
  8
Ebene_1
 62
1
100
AcDbSpline
 70
8
 71
3
 72
8
 73
4
 74
0
 40
0
 40
0
 40
0
 40
0
 40
1
 40
1
 40
1
 40
1
 10
176.010688
 20
130.393257
 30
0.0
 10
176.847908
 20
140.349637
 30
0.0
 10
148.570627
 20
155.055588
 30
0.0
 10
126.267925
 20
166.133448
 30
0.0
  0
SPLINE
  5
103
100
AcDbEntity
  8
Ebene_1
 62
1
100
AcDbSpline
 70
8
 71
3
 72
8
 73
4
 74
0
 40
0
 40
0
 40
0
 40
0
 40
1
 40
1
 40
1
 40
1
 10
126.267925
 20
166.133448
 30
0.0
 10
109.263495
 20
174.579639
 30
0.0
 10
111.851015
 20
195.414920
 30
0.0
 10
100.822214
 20
195.414920
 30
0.0
  0
LWPOLYLINE
  5
104
100
AcDbEntity
  8
Ebene_1
 62
1
100
AcDbPolyline
 90
2
 70
0
 10
30.852901
 20
0.483040
 30
0.0
 10
171.023248
 20
0.254800
 30
0.0
  0
LWPOLYLINE
  5
105
100
AcDbEntity
  8
Ebene_1
 62
1
100
AcDbPolyline
 90
5
 70
1
 10
10.411022
 20
44.070342
 30
0.0
 10
18.737610
 20
49.889233
 30
0.0
 10
21.081918
 20
46.534642
 30
0.0
 10
12.755335
 20
40.715732
 30
0.0
 10
10.411022
 20
44.070342
 30
0.0
  0
LWPOLYLINE
  5
106
100
AcDbEntity
  8
Ebene_1
 62
1
100
AcDbPolyline
 90
4
 70
1
 10
7.341089
 20
30.820224
 30
0.0
 10
8.217115
 20
20.699726
 30
0.0
 10
4.139794
 20
20.346798
 30
0.0
 10
3.263768
 20
30.467296
 30
0.0
  0
LWPOLYLINE
  5
107
100
AcDbEntity
  8
Ebene_1
 62
1
100
AcDbPolyline
 90
4
 70
1
 10
13.197493
 20
8.180913
 30
0.0
 10
22.400096
 20
3.879343
 30
0.0
 10
24.133115
 20
7.586870
 30
0.0
 10
14.930507
 20
11.888440
 30
0.0
  0
LWPOLYLINE
  5
108
100
AcDbEntity
  8
Ebene_1
 62
1
100
AcDbPolyline
 90
5
 70
1
 10
191.606459
 20
44.109902
 30
0.0
 10
183.270028
 20
49.914683
 30
0.0
 10
180.931408
 20
46.556122
 30
0.0
 10
189.267839
 20
40.751342
 30
0.0
 10
191.606459
 20
44.109902
 30
0.0
  0
SPLINE
  5
109
100
AcDbEntity
  8
Ebene_1
 62
1
100
AcDbSpline
 70
8
 71
3
 72
8
 73
4
 74
0
 40
0
 40
0
 40
0
 40
0
 40
1
 40
1
 40
1
 40
1
 10
102.452721
 20
37.311192
 30
0.0
 10
102.452721
 20
36.775283
 30
0.0
 10
102.149183
 20
36.280083
 30
0.0
 10
101.656447
 20
36.012129
 30
0.0
  0
SPLINE
  5
10a
100
AcDbEntity
  8
Ebene_1
 62
1
100
AcDbSpline
 70
8
 71
3
 72
8
 73
4
 74
0
 40
0
 40
0
 40
0
 40
0
 40
1
 40
1
 40
1
 40
1
 10
101.656447
 20
36.012129
 30
0.0
 10
101.163712
 20
35.744174
 30
0.0
 10
100.556637
 20
35.744174
 30
0.0
 10
100.063901
 20
36.012129
 30
0.0
  0
SPLINE
  5
10b
100
AcDbEntity
  8
Ebene_1
 62
1
100
AcDbSpline
 70
8
 71
3
 72
8
 73
4
 74
0
 40
0
 40
0
 40
0
 40
0
 40
1
 40
1
 40
1
 40
1
 10
100.063901
 20
36.012129
 30
0.0
 10
99.571165
 20
36.280083
 30
0.0
 10
99.267628
 20
36.775283
 30
0.0
 10
99.267628
 20
37.311192
 30
0.0
  0
SPLINE
  5
10c
100
AcDbEntity
  8
Ebene_1
 62
1
100
AcDbSpline
 70
8
 71
3
 72
8
 73
4
 74
0
 40
0
 40
0
 40
0
 40
0
 40
1
 40
1
 40
1
 40
1
 10
99.267628
 20
37.311192
 30
0.0
 10
99.267628
 20
37.847101
 30
0.0
 10
99.571165
 20
38.342301
 30
0.0
 10
100.063901
 20
38.610255
 30
0.0
  0
SPLINE
  5
10d
100
AcDbEntity
  8
Ebene_1
 62
1
100
AcDbSpline
 70
8
 71
3
 72
8
 73
4
 74
0
 40
0
 40
0
 40
0
 40
0
 40
1
 40
1
 40
1
 40
1
 10
100.063901
 20
38.610255
 30
0.0
 10
100.556637
 20
38.878210
 30
0.0
 10
101.163712
 20
38.878210
 30
0.0
 10
101.656447
 20
38.610255
 30
0.0
  0
SPLINE
  5
10e
100
AcDbEntity
  8
Ebene_1
 62
1
100
AcDbSpline
 70
8
 71
3
 72
8
 73
4
 74
0
 40
0
 40
0
 40
0
 40
0
 40
1
 40
1
 40
1
 40
1
 10
101.656447
 20
38.610255
 30
0.0
 10
102.149183
 20
38.342301
 30
0.0
 10
102.452721
 20
37.847101
 30
0.0
 10
102.452721
 20
37.311192
 30
0.0
  0
LWPOLYLINE
  5
10f
100
AcDbEntity
  8
Ebene_1
 62
1
100
AcDbPolyline
 90
4
 70
1
 10
194.608146
 20
30.789559
 30
0.0
 10
193.749284
 20
20.667606
 30
0.0
 10
197.827196
 20
20.321584
 30
0.0
 10
198.686065
 20
30.443536
 30
0.0
  0
SPLINE
  5
110
100
AcDbEntity
  8
Ebene_1
 62
1
100
AcDbSpline
 70
8
 71
3
 72
8
 73
4
 74
0
 40
0
 40
0
 40
0
 40
0
 40
1
 40
1
 40
1
 40
1
 10
25.805182
 20
130.393137
 30
0.0
 10
24.242318
 20
139.819087
 30
0.0
 10
53.724447
 20
155.362718
 30
0.0
 10
75.547945
 20
166.133328
 30
0.0
  0
SPLINE
  5
111
100
AcDbEntity
  8
Ebene_1
 62
1
100
AcDbSpline
 70
8
 71
3
 72
8
 73
4
 74
0
 40
0
 40
0
 40
0
 40
0
 40
1
 40
1
 40
1
 40
1
 10
75.547945
 20
166.133328
 30
0.0
 10
93.100324
 20
174.795999
 30
0.0
 10
89.964854
 20
195.414790
 30
0.0
 10
100.993654
 20
195.414790
 30
0.0
  0
SPLINE
  5
112
100
AcDbEntity
  8
Ebene_1
 62
1
100
AcDbSpline
 70
8
 71
3
 72
8
 73
4
 74
0
 40
0
 40
0
 40
0
 40
0
 40
1
 40
1
 40
1
 40
1
 10
103.529399
 20
182.826469
 30
0.0
 10
103.529399
 20
181.878720
 30
0.0
 10
103.029497
 20
181.002964
 30
0.0
 10
102.218002
 20
180.529090
 30
0.0
  0
SPLINE
  5
113
100
AcDbEntity
  8
Ebene_1
 62
1
100
AcDbSpline
 70
8
 71
3
 72
8
 73
4
 74
0
 40
0
 40
0
 40
0
 40
0
 40
1
 40
1
 40
1
 40
1
 10
102.218002
 20
180.529090
 30
0.0
 10
101.406506
 20
180.055215
 30
0.0
 10
100.406702
 20
180.055215
 30
0.0
 10
99.595207
 20
180.529090
 30
0.0
  0
SPLINE
  5
114
100
AcDbEntity
  8
Ebene_1
 62
1
100
AcDbSpline
 70
8
 71
3
 72
8
 73
4
 74
0
 40
0
 40
0
 40
0
 40
0
 40
1
 40
1
 40
1
 40
1
 10
99.595207
 20
180.529090
 30
0.0
 10
98.783711
 20
181.002964
 30
0.0
 10
98.283809
 20
181.878720
 30
0.0
 10
98.283809
 20
182.826469
 30
0.0
  0
SPLINE
  5
115
100
AcDbEntity
  8
Ebene_1
 62
1
100
AcDbSpline
 70
8
 71
3
 72
8
 73
4
 74
0
 40
0
 40
0
 40
0
 40
0
 40
1
 40
1
 40
1
 40
1
 10
98.283809
 20
182.826469
 30
0.0
 10
98.283809
 20
183.774218
 30
0.0
 10
98.783711
 20
184.649975
 30
0.0
 10
99.595207
 20
185.123849
 30
0.0
  0
SPLINE
  5
116
100
AcDbEntity
  8
Ebene_1
 62
1
100
AcDbSpline
 70
8
 71
3
 72
8
 73
4
 74
0
 40
0
 40
0
 40
0
 40
0
 40
1
 40
1
 40
1
 40
1
 10
99.595207
 20
185.123849
 30
0.0
 10
100.406702
 20
185.597724
 30
0.0
 10
101.406506
 20
185.597724
 30
0.0
 10
102.218002
 20
185.123849
 30
0.0
  0
SPLINE
  5
117
100
AcDbEntity
  8
Ebene_1
 62
1
100
AcDbSpline
 70
8
 71
3
 72
8
 73
4
 74
0
 40
0
 40
0
 40
0
 40
0
 40
1
 40
1
 40
1
 40
1
 10
102.218002
 20
185.123849
 30
0.0
 10
103.029497
 20
184.649975
 30
0.0
 10
103.529399
 20
183.774218
 30
0.0
 10
103.529399
 20
182.826469
 30
0.0
  0
SPLINE
  5
118
100
AcDbEntity
  8
Ebene_1
 62
1
100
AcDbSpline
 70
8
 71
3
 72
8
 73
4
 74
0
 40
0
 40
0
 40
0
 40
0
 40
1
 40
1
 40
1
 40
1
 10
176.010718
 20
55.472073
 30
0.0
 10
192.871879
 20
54.012573
 30
0.0
 10
202.889909
 20
38.863082
 30
0.0
 10
201.566949
 20
25.194581
 30
0.0
  0
SPLINE
  5
119
100
AcDbEntity
  8
Ebene_1
 62
1
100
AcDbSpline
 70
8
 71
3
 72
8
 73
4
 74
0
 40
0
 40
0
 40
0
 40
0
 40
1
 40
1
 40
1
 40
1
 10
201.566949
 20
25.194581
 30
0.0
 10
200.499629
 20
11.928441
 30
0.0
 10
187.789129
 20
-1.283230
 30
0.0
 10
171.023248
 20
0.254800
 30
0.0
  0
LWPOLYLINE
  5
11a
100
AcDbEntity
  8
Ebene_1
 62
1
100
AcDbPolyline
 90
4
 70
1
 10
188.993558
 20
8.121143
 30
0.0
 10
179.798252
 20
3.803964
 30
0.0
 10
178.058956
 20
7.508554
 30
0.0
 10
187.254256
 20
11.825733
 30
0.0
  0
LWPOLYLINE
  5
11b
100
AcDbEntity
  8
Ebene_1
 62
1
100
AcDbPolyline
 90
2
 70
0
 10
100.828454
 20
180.313569
 30
0.0
 10
100.828454
 20
170.967749
 30
0.0
  0
LWPOLYLINE
  5
11c
100
AcDbEntity
  8
Ebene_1
 62
1
100
AcDbPolyline
 90
3
 70
1
 10
142.639488
 20
160.870016
 30
0.0
 10
144.844197
 20
164.864482
 30
0.0
 10
142.639488
 20
160.870016
 30
0.0
  0
LWPOLYLINE
  5
11d
100
AcDbEntity
  8
Ebene_1
 62
1
100
AcDbPolyline
 90
3
 70
1
 10
146.294025
 20
167.491263
 30
0.0
 10
148.498738
 20
171.485738
 30
0.0
 10
146.294025
 20
167.491263
 30
0.0
  0
LWPOLYLINE
  5
11e
100
AcDbEntity
  8
Ebene_1
 62
1
100
AcDbPolyline
 90
3
 70
1
 10
143.184707
 20
164.888552
 30
0.0
 10
145.389416
 20
168.883018
 30
0.0
 10
143.184707
 20
164.888552
 30
0.0
  0
LWPOLYLINE
  5
11f
100
AcDbEntity
  8
Ebene_1
 62
1
100
AcDbPolyline
 90
3
 70
1
 10
146.838997
 20
171.509352
 30
0.0
 10
149.043706
 20
175.503818
 30
0.0
 10
146.838997
 20
171.509352
 30
0.0
  0
SPLINE
  5
120
100
AcDbEntity
  8
Ebene_1
 62
1
100
AcDbSpline
 70
8
 71
3
 72
8
 73
4
 74
0
 40
0
 40
0
 40
0
 40
0
 40
1
 40
1
 40
1
 40
1
 10
156.575814
 20
153.177988
 30
0.0
 10
145.296613
 20
156.624574
 30
0.0
 10
134.837556
 20
162.091791
 30
0.0
 10
125.903154
 20
170.107482
 30
0.0
  0
LWPOLYLINE
  5
121
100
AcDbEntity
  8
Ebene_1
 62
1
100
AcDbPolyline
 90
3
 70
1
 10
140.074683
 20
162.285636
 30
0.0
 10
142.279392
 20
166.280102
 30
0.0
 10
140.074683
 20
162.285636
 30
0.0
  0
SPLINE
  5
122
100
AcDbEntity
  8
Ebene_1
 62
1
100
AcDbSpline
 70
8
 71
3
 72
8
 73
4
 74
0
 40
0
 40
0
 40
0
 40
0
 40
1
 40
1
 40
1
 40
1
 10
139.744663
 20
189.628646
 30
0.0
 10
140.003626
 20
190.097833
 30
0.0
 10
140.508665
 20
190.384703
 30
0.0
 10
141.069535
 20
190.381195
 30
0.0
  0
SPLINE
  5
123
100
AcDbEntity
  8
Ebene_1
 62
1
100
AcDbSpline
 70
8
 71
3
 72
8
 73
4
 74
0
 40
0
 40
0
 40
0
 40
0
 40
1
 40
1
 40
1
 40
1
 10
141.069535
 20
190.381195
 30
0.0
 10
141.630405
 20
190.377688
 30
0.0
 10
142.161898
 20
190.084335
 30
0.0
 10
142.463805
 20
189.611641
 30
0.0
  0
SPLINE
  5
124
100
AcDbEntity
  8
Ebene_1
 62
1
100
AcDbSpline
 70
8
 71
3
 72
8
 73
4
 74
0
 40
0
 40
0
 40
0
 40
0
 40
1
 40
1
 40
1
 40
1
 10
142.463805
 20
189.611641
 30
0.0
 10
142.765712
 20
189.138946
 30
0.0
 10
142.792167
 20
188.558723
 30
0.0
 10
142.533203
 20
188.089537
 30
0.0
  0
SPLINE
  5
125
100
AcDbEntity
  8
Ebene_1
 62
1
100
AcDbSpline
 70
8
 71
3
 72
8
 73
4
 74
0
 40
0
 40
0
 40
0
 40
0
 40
1
 40
1
 40
1
 40
1
 10
142.533203
 20
188.089537
 30
0.0
 10
142.274240
 20
187.620350
 30
0.0
 10
141.769202
 20
187.333480
 30
0.0
 10
141.208331
 20
187.336987
 30
0.0
  0
SPLINE
  5
126
100
AcDbEntity
  8
Ebene_1
 62
1
100
AcDbSpline
 70
8
 71
3
 72
8
 73
4
 74
0
 40
0
 40
0
 40
0
 40
0
 40
1
 40
1
 40
1
 40
1
 10
141.208331
 20
187.336987
 30
0.0
 10
140.647461
 20
187.340495
 30
0.0
 10
140.115968
 20
187.633848
 30
0.0
 10
139.814061
 20
188.106542
 30
0.0
  0
SPLINE
  5
127
100
AcDbEntity
  8
Ebene_1
 62
1
100
AcDbSpline
 70
8
 71
3
 72
8
 73
4
 74
0
 40
0
 40
0
 40
0
 40
0
 40
1
 40
1
 40
1
 40
1
 10
139.814061
 20
188.106542
 30
0.0
 10
139.512154
 20
188.579236
 30
0.0
 10
139.485700
 20
189.159459
 30
0.0
 10
139.744663
 20
189.628646
 30
0.0
  0
LWPOLYLINE
  5
128
100
AcDbEntity
  8
Ebene_1
 62
1
100
AcDbPolyline
 90
3
 70
1
 10
143.729220
 20
168.906884
 30
0.0
 10
145.933933
 20
172.901358
 30
0.0
 10
143.729220
 20
168.906884
 30
0.0
  0
SPLINE
  5
129
100
AcDbEntity
  8
Ebene_1
 62
1
100
AcDbSpline
 70
8
 71
3
 72
8
 73
4
 74
0
 40
0
 40
0
 40
0
 40
0
 40
1
 40
1
 40
1
 40
1
 10
162.835762
 20
176.716768
 30
0.0
 10
163.094726
 20
177.185955
 30
0.0
 10
163.599764
 20
177.472825
 30
0.0
 10
164.160634
 20
177.469318
 30
0.0
  0
SPLINE
  5
12a
100
AcDbEntity
  8
Ebene_1
 62
1
100
AcDbSpline
 70
8
 71
3
 72
8
 73
4
 74
0
 40
0
 40
0
 40
0
 40
0
 40
1
 40
1
 40
1
 40
1
 10
164.160634
 20
177.469318
 30
0.0
 10
164.721505
 20
177.465810
 30
0.0
 10
165.252998
 20
177.172458
 30
0.0
 10
165.554905
 20
176.699763
 30
0.0
  0
SPLINE
  5
12b
100
AcDbEntity
  8
Ebene_1
 62
1
100
AcDbSpline
 70
8
 71
3
 72
8
 73
4
 74
0
 40
0
 40
0
 40
0
 40
0
 40
1
 40
1
 40
1
 40
1
 10
165.554905
 20
176.699763
 30
0.0
 10
165.856812
 20
176.227069
 30
0.0
 10
165.883266
 20
175.646846
 30
0.0
 10
165.624303
 20
175.177659
 30
0.0
  0
SPLINE
  5
12c
100
AcDbEntity
  8
Ebene_1
 62
1
100
AcDbSpline
 70
8
 71
3
 72
8
 73
4
 74
0
 40
0
 40
0
 40
0
 40
0
 40
1
 40
1
 40
1
 40
1
 10
165.624303
 20
175.177659
 30
0.0
 10
165.365339
 20
174.708472
 30
0.0
 10
164.860301
 20
174.421602
 30
0.0
 10
164.299431
 20
174.425110
 30
0.0
  0
SPLINE
  5
12d
100
AcDbEntity
  8
Ebene_1
 62
1
100
AcDbSpline
 70
8
 71
3
 72
8
 73
4
 74
0
 40
0
 40
0
 40
0
 40
0
 40
1
 40
1
 40
1
 40
1
 10
164.299431
 20
174.425110
 30
0.0
 10
163.738560
 20
174.428617
 30
0.0
 10
163.207067
 20
174.721970
 30
0.0
 10
162.905160
 20
175.194664
 30
0.0
  0
SPLINE
  5
12e
100
AcDbEntity
  8
Ebene_1
 62
1
100
AcDbSpline
 70
8
 71
3
 72
8
 73
4
 74
0
 40
0
 40
0
 40
0
 40
0
 40
1
 40
1
 40
1
 40
1
 10
162.905160
 20
175.194664
 30
0.0
 10
162.603253
 20
175.667359
 30
0.0
 10
162.576799
 20
176.247582
 30
0.0
 10
162.835762
 20
176.716768
 30
0.0
  0
LWPOLYLINE
  5
12f
100
AcDbEntity
  8
Ebene_1
 62
1
100
AcDbPolyline
 90
8
 70
0
 10
125.903154
 20
170.107482
 30
0.0
 10
139.409599
 20
194.578302
 30
0.0
 10
147.031146
 20
190.371658
 30
0.0
 10
142.600941
 20
182.365759
 30
0.0
 10
157.773207
 20
173.991566
 30
0.0
 10
162.360054
 20
182.088085
 30
0.0
 10
170.127128
 20
177.624042
 30
0.0
 10
156.575814
 20
153.177988
 30
0.0
  0
LWPOLYLINE
  5
130
100
AcDbEntity
  8
Ebene_1
 62
1
100
AcDbPolyline
 90
3
 70
1
 10
164.218613
 20
172.106857
 30
0.0
 10
162.328510
 20
173.120613
 30
0.0
 10
164.218613
 20
172.106857
 30
0.0
  0
LWPOLYLINE
  5
131
100
AcDbEntity
  8
Ebene_1
 62
1
100
AcDbPolyline
 90
3
 70
1
 10
161.599108
 20
171.791351
 30
0.0
 10
159.897797
 20
172.759842
 30
0.0
 10
161.599108
 20
171.791351
 30
0.0
  0
LWPOLYLINE
  5
132
100
AcDbEntity
  8
Ebene_1
 62
1
100
AcDbPolyline
 90
3
 70
1
 10
162.802993
 20
169.542053
 30
0.0
 10
160.994819
 20
170.510589
 30
0.0
 10
162.802993
 20
169.542053
 30
0.0
  0
LWPOLYLINE
  5
133
100
AcDbEntity
  8
Ebene_1
 62
1
100
AcDbPolyline
 90
3
 70
1
 10
137.509908
 20
186.899060
 30
0.0
 10
139.470418
 20
185.787505
 30
0.0
 10
137.509908
 20
186.899060
 30
0.0
  0
SPLINE
  5
134
100
AcDbEntity
  8
Ebene_1
 62
1
100
AcDbSpline
 70
8
 71
3
 72
8
 73
4
 74
0
 40
0
 40
0
 40
0
 40
0
 40
1
 40
1
 40
1
 40
1
 10
25.805212
 20
130.393257
 30
0.0
 10
25.282225
 20
128.093397
 30
0.0
 10
24.788190
 20
125.818346
 30
0.0
 10
24.329362
 20
123.567606
 30
0.0
  0
SPLINE
  5
135
100
AcDbEntity
  8
Ebene_1
 62
1
100
AcDbSpline
 70
8
 71
3
 72
8
 73
4
 74
0
 40
0
 40
0
 40
0
 40
0
 40
1
 40
1
 40
1
 40
1
 10
24.329362
 20
123.567606
 30
0.0
 10
24.308452
 20
123.465016
 30
0.0
 10
24.396882
 20
123.406136
 30
0.0
 10
24.292682
 20
123.415006
 30
0.0
  0
LWPOLYLINE
  5
136
100
AcDbEntity
  8
Ebene_1
 62
1
100
AcDbPolyline
 90
3
 70
1
 10
138.734292
 20
184.461953
 30
0.0
 10
140.547552
 20
183.490610
 30
0.0
 10
138.734292
 20
184.461953
 30
0.0
  0
SPLINE
  5
137
100
AcDbEntity
  8
Ebene_1
 62
1
100
AcDbSpline
 70
8
 71
3
 72
8
 73
4
 74
0
 40
0
 40
0
 40
0
 40
0
 40
1
 40
1
 40
1
 40
1
 10
20.638996
 20
124.176196
 30
0.0
 10
20.237889
 20
127.238217
 30
0.0
 10
19.502744
 20
128.638837
 30
0.0
 10
17.611125
 20
130.393137
 30
0.0
  0
LWPOLYLINE
  5
138
100
AcDbEntity
  8
Ebene_1
 62
1
100
AcDbPolyline
 90
3
 70
1
 10
136.094288
 20
184.334255
 30
0.0
 10
137.968710
 20
183.270216
 30
0.0
 10
136.094288
 20
184.334255
 30
0.0
  0
SPLINE
  5
139
100
AcDbEntity
  8
Ebene_1
 62
1
100
AcDbSpline
 70
8
 71
3
 72
8
 73
4
 74
0
 40
0
 40
0
 40
0
 40
0
 40
1
 40
1
 40
1
 40
1
 10
15.076867
 20
128.555057
 30
0.0
 10
15.076867
 20
128.555057
 30
0.0
 10
13.388945
 20
126.390646
 30
0.0
 10
13.193146
 20
123.549516
 30
0.0
  0
SPLINE
  5
13a
100
AcDbEntity
  8
Ebene_1
 62
1
100
AcDbSpline
 70
8
 71
3
 72
8
 73
4
 74
0
 40
0
 40
0
 40
0
 40
0
 40
1
 40
1
 40
1
 40
1
 10
13.193146
 20
123.549516
 30
0.0
 10
12.532382
 20
117.497446
 30
0.0
 10
11.199985
 20
114.881716
 30
0.0
 10
7.816122
 20
111.280436
 30
0.0
  0
LWPOLYLINE
  5
13b
100
AcDbEntity
  8
Ebene_1
 62
1
100
AcDbPolyline
 90
2
 70
0
 10
24.292682
 20
123.415006
 30
0.0
 10
20.638996
 20
124.176196
 30
0.0
  0
SPLINE
  5
13c
100
AcDbEntity
  8
Ebene_1
 62
1
100
AcDbSpline
 70
8
 71
3
 72
8
 73
4
 74
0
 40
0
 40
0
 40
0
 40
0
 40
1
 40
1
 40
1
 40
1
 10
15.853563
 20
108.313806
 30
0.0
 10
17.242387
 20
110.147256
 30
0.0
 10
18.544833
 20
112.101636
 30
0.0
 10
19.253803
 20
114.886876
 30
0.0
  0
LWPOLYLINE
  5
13d
100
AcDbEntity
  8
Ebene_1
 62
1
100
AcDbPolyline
 90
2
 70
0
 10
17.611125
 20
130.393137
 30
0.0
 10
15.076867
 20
128.555057
 30
0.0
  0
SPLINE
  5
13e
100
AcDbEntity
  8
Ebene_1
 62
1
100
AcDbSpline
 70
8
 71
3
 72
8
 73
4
 74
0
 40
0
 40
0
 40
0
 40
0
 40
1
 40
1
 40
1
 40
1
 10
22.618930
 20
114.177056
 30
0.0
 10
22.669000
 20
114.166456
 30
0.0
 10
22.598070
 20
114.077256
 30
0.0
 10
22.590300
 20
114.028146
 30
0.0
  0
SPLINE
  5
13f
100
AcDbEntity
  8
Ebene_1
 62
1
100
AcDbSpline
 70
8
 71
3
 72
8
 73
4
 74
0
 40
0
 40
0
 40
0
 40
0
 40
1
 40
1
 40
1
 40
1
 10
22.590300
 20
114.028146
 30
0.0
 10
21.719901
 20
108.521796
 30
0.0
 10
21.130937
 20
103.165895
 30
0.0
 10
20.923995
 20
97.952625
 30
0.0
  0
LWPOLYLINE
  5
140
100
AcDbEntity
  8
Ebene_1
 62
1
100
AcDbPolyline
 90
2
 70
0
 10
7.816122
 20
111.280436
 30
0.0
 10
15.853563
 20
108.313806
 30
0.0
  0
SPLINE
  5
141
100
AcDbEntity
  8
Ebene_1
 62
1
100
AcDbSpline
 70
8
 71
3
 72
8
 73
4
 74
0
 40
0
 40
0
 40
0
 40
0
 40
1
 40
1
 40
1
 40
1
 10
17.370671
 20
97.936725
 30
0.0
 10
16.941890
 20
100.189525
 30
0.0
 10
17.534671
 20
100.745695
 30
0.0
 10
15.520636
 20
105.000535
 30
0.0
  0
LWPOLYLINE
  5
142
100
AcDbEntity
  8
Ebene_1
 62
1
100
AcDbPolyline
 90
2
 70
0
 10
19.253803
 20
114.886876
 30
0.0
 10
22.618930
 20
114.177056
 30
0.0
  0
SPLINE
  5
143
100
AcDbEntity
  8
Ebene_1
 62
1
100
AcDbSpline
 70
8
 71
3
 72
8
 73
4
 74
0
 40
0
 40
0
 40
0
 40
0
 40
1
 40
1
 40
1
 40
1
 10
9.201234
 20
101.261275
 30
0.0
 10
10.775586
 20
95.594155
 30
0.0
 10
9.922641
 20
88.411685
 30
0.0
 10
8.091927
 20
83.677974
 30
0.0
  0
LWPOLYLINE
  5
144
100
AcDbEntity
  8
Ebene_1
 62
1
100
AcDbPolyline
 90
2
 70
0
 10
20.923995
 20
97.952625
 30
0.0
 10
17.370671
 20
97.936725
 30
0.0
  0
SPLINE
  5
145
100
AcDbEntity
  8
Ebene_1
 62
1
100
AcDbSpline
 70
8
 71
3
 72
8
 73
4
 74
0
 40
0
 40
0
 40
0
 40
0
 40
1
 40
1
 40
1
 40
1
 10
15.119132
 20
81.080454
 30
0.0
 10
16.528801
 20
83.343574
 30
0.0
 10
16.962798
 20
85.268874
 30
0.0
 10
17.407962
 20
87.945354
 30
0.0
  0
LWPOLYLINE
  5
146
100
AcDbEntity
  8
Ebene_1
 62
1
100
AcDbPolyline
 90
2
 70
0
 10
15.520636
 20
105.000535
 30
0.0
 10
9.201234
 20
101.261275
 30
0.0
  0
SPLINE
  5
147
100
AcDbEntity
  8
Ebene_1
 62
1
100
AcDbSpline
 70
8
 71
3
 72
8
 73
4
 74
0
 40
0
 40
0
 40
0
 40
0
 40
1
 40
1
 40
1
 40
1
 10
20.926065
 20
87.966855
 30
0.0
 10
21.116721
 20
82.679294
 30
0.0
 10
21.603341
 20
77.386164
 30
0.0
 10
22.384607
 20
72.087484
 30
0.0
  0
SPLINE
  5
148
100
AcDbEntity
  8
Ebene_1
 62
1
100
AcDbSpline
 70
8
 71
3
 72
8
 73
4
 74
0
 40
0
 40
0
 40
0
 40
0
 40
1
 40
1
 40
1
 40
1
 10
22.384607
 20
72.087484
 30
0.0
 10
22.390607
 20
72.046684
 30
0.0
 10
22.402717
 20
71.965044
 30
0.0
 10
22.402717
 20
71.965044
 30
0.0
  0
LWPOLYLINE
  5
149
100
AcDbEntity
  8
Ebene_1
 62
1
100
AcDbPolyline
 90
2
 70
0
 10
8.091927
 20
83.677974
 30
0.0
 10
15.119132
 20
81.080454
 30
0.0
  0
SPLINE
  5
14a
100
AcDbEntity
  8
Ebene_1
 62
1
100
AcDbSpline
 70
8
 71
3
 72
8
 73
4
 74
0
 40
0
 40
0
 40
0
 40
0
 40
1
 40
1
 40
1
 40
1
 10
19.025751
 20
71.366354
 30
0.0
 10
18.087230
 20
73.449114
 30
0.0
 10
17.312073
 20
75.580884
 30
0.0
 10
15.441062
 20
77.383894
 30
0.0
  0
LWPOLYLINE
  5
14b
100
AcDbEntity
  8
Ebene_1
 62
1
100
AcDbPolyline
 90
2
 70
0
 10
17.407962
 20
87.945354
 30
0.0
 10
20.926065
 20
87.966855
 30
0.0
  0
SPLINE
  5
14c
100
AcDbEntity
  8
Ebene_1
 62
1
100
AcDbSpline
 70
8
 71
3
 72
8
 73
4
 74
0
 40
0
 40
0
 40
0
 40
0
 40
1
 40
1
 40
1
 40
1
 10
9.969401
 20
71.953504
 30
0.0
 10
11.775413
 20
68.588184
 30
0.0
 10
12.640554
 20
64.579943
 30
0.0
 10
13.131966
 20
62.529213
 30
0.0
  0
SPLINE
  5
14d
100
AcDbEntity
  8
Ebene_1
 62
1
100
AcDbSpline
 70
8
 71
3
 72
8
 73
4
 74
0
 40
0
 40
0
 40
0
 40
0
 40
1
 40
1
 40
1
 40
1
 10
13.131966
 20
62.529213
 30
0.0
 10
13.268594
 20
61.803683
 30
0.0
 10
13.557631
 20
60.354963
 30
0.0
 10
13.041886
 20
59.533483
 30
0.0
  0
LWPOLYLINE
  5
14e
100
AcDbEntity
  8
Ebene_1
 62
1
100
AcDbPolyline
 90
2
 70
0
 10
22.402717
 20
71.965044
 30
0.0
 10
19.025751
 20
71.366354
 30
0.0
  0
SPLINE
  5
14f
100
AcDbEntity
  8
Ebene_1
 62
1
100
AcDbSpline
 70
8
 71
3
 72
8
 73
4
 74
0
 40
0
 40
0
 40
0
 40
0
 40
1
 40
1
 40
1
 40
1
 10
20.275395
 20
56.530403
 30
0.0
 10
20.810955
 20
59.037873
 30
0.0
 10
20.793844
 20
59.878133
 30
0.0
 10
20.354885
 20
61.616583
 30
0.0
  0
LWPOLYLINE
  5
150
100
AcDbEntity
  8
Ebene_1
 62
1
100
AcDbPolyline
 90
2
 70
0
 10
15.441062
 20
77.383894
 30
0.0
 10
9.969401
 20
71.953504
 30
0.0
  0
SPLINE
  5
151
100
AcDbEntity
  8
Ebene_1
 62
1
100
AcDbSpline
 70
8
 71
3
 72
8
 73
4
 74
0
 40
0
 40
0
 40
0
 40
0
 40
1
 40
1
 40
1
 40
1
 10
24.136019
 20
62.406913
 30
0.0
 10
24.151179
 20
62.409913
 30
0.0
 10
24.144619
 20
62.376713
 30
0.0
 10
24.148099
 20
62.360713
 30
0.0
  0
SPLINE
  5
152
100
AcDbEntity
  8
Ebene_1
 62
1
100
AcDbSpline
 70
8
 71
3
 72
8
 73
4
 74
0
 40
0
 40
0
 40
0
 40
0
 40
1
 40
1
 40
1
 40
1
 10
24.148099
 20
62.360713
 30
0.0
 10
24.644828
 20
60.051263
 30
0.0
 10
25.197242
 20
57.783603
 30
0.0
 10
25.805220
 20
55.472053
 30
0.0
  0
LWPOLYLINE
  5
153
100
AcDbEntity
  8
Ebene_1
 62
1
100
AcDbPolyline
 90
2
 70
0
 10
13.041886
 20
59.533483
 30
0.0
 10
20.275395
 20
56.530403
 30
0.0
  0
LWPOLYLINE
  5
154
100
AcDbEntity
  8
Ebene_1
 62
1
100
AcDbPolyline
 90
2
 70
0
 10
20.354885
 20
61.616583
 30
0.0
 10
24.136019
 20
62.406913
 30
0.0
  0
LWPOLYLINE
  5
155
100
AcDbEntity
  8
Ebene_1
 62
1
100
AcDbPolyline
 90
3
 70
1
 10
22.202211
 20
116.886746
 30
0.0
 10
17.940487
 20
117.878176
 30
0.0
 10
22.202211
 20
116.886746
 30
0.0
  0
LWPOLYLINE
  5
156
100
AcDbEntity
  8
Ebene_1
 62
1
100
AcDbPolyline
 90
3
 70
1
 10
18.214581
 20
119.362826
 30
0.0
 10
14.316105
 20
120.219366
 30
0.0
 10
18.214581
 20
119.362826
 30
0.0
  0
LWPOLYLINE
  5
157
100
AcDbEntity
  8
Ebene_1
 62
1
100
AcDbPolyline
 90
3
 70
1
 10
22.717397
 20
119.758536
 30
0.0
 10
18.641842
 20
120.707806
 30
0.0
 10
22.717397
 20
119.758536
 30
0.0
  0
LWPOLYLINE
  5
158
100
AcDbEntity
  8
Ebene_1
 62
1
100
AcDbPolyline
 90
3
 70
1
 10
20.644162
 20
91.715085
 30
0.0
 10
16.268703
 20
91.738685
 30
0.0
 10
20.644162
 20
91.715085
 30
0.0
  0
LWPOLYLINE
  5
159
100
AcDbEntity
  8
Ebene_1
 62
1
100
AcDbPolyline
 90
3
 70
1
 10
16.207394
 20
93.247125
 30
0.0
 10
12.216021
 20
93.219525
 30
0.0
 10
16.207394
 20
93.247125
 30
0.0
  0
LWPOLYLINE
  5
15a
100
AcDbEntity
  8
Ebene_1
 62
1
100
AcDbPolyline
 90
3
 70
1
 10
20.510927
 20
94.629725
 30
0.0
 10
16.326344
 20
94.653425
 30
0.0
 10
20.510927
 20
94.629725
 30
0.0
  0
LWPOLYLINE
  5
15b
100
AcDbEntity
  8
Ebene_1
 62
1
100
AcDbPolyline
 90
3
 70
1
 10
22.695043
 20
68.384053
 30
0.0
 10
18.433319
 20
67.392623
 30
0.0
 10
22.695043
 20
68.384053
 30
0.0
  0
SPLINE
  5
15c
100
AcDbEntity
  8
Ebene_1
 62
1
100
AcDbSpline
 70
8
 71
3
 72
8
 73
4
 74
0
 40
0
 40
0
 40
0
 40
0
 40
1
 40
1
 40
1
 40
1
 10
176.010686
 20
130.393257
 30
0.0
 10
176.533673
 20
128.093397
 30
0.0
 10
177.027708
 20
125.818346
 30
0.0
 10
177.486536
 20
123.567606
 30
0.0
  0
SPLINE
  5
15d
100
AcDbEntity
  8
Ebene_1
 62
1
100
AcDbSpline
 70
8
 71
3
 72
8
 73
4
 74
0
 40
0
 40
0
 40
0
 40
0
 40
1
 40
1
 40
1
 40
1
 10
177.486536
 20
123.567606
 30
0.0
 10
177.507446
 20
123.465016
 30
0.0
 10
177.419016
 20
123.406136
 30
0.0
 10
177.523216
 20
123.415006
 30
0.0
  0
LWPOLYLINE
  5
15e
100
AcDbEntity
  8
Ebene_1
 62
1
100
AcDbPolyline
 90
3
 70
1
 10
18.707413
 20
65.907973
 30
0.0
 10
14.808937
 20
65.051433
 30
0.0
 10
18.707413
 20
65.907973
 30
0.0
  0
SPLINE
  5
15f
100
AcDbEntity
  8
Ebene_1
 62
1
100
AcDbSpline
 70
8
 71
3
 72
8
 73
4
 74
0
 40
0
 40
0
 40
0
 40
0
 40
1
 40
1
 40
1
 40
1
 10
181.176902
 20
124.176196
 30
0.0
 10
181.578009
 20
127.238217
 30
0.0
 10
182.313154
 20
128.638837
 30
0.0
 10
184.204773
 20
130.393137
 30
0.0
  0
LWPOLYLINE
  5
160
100
AcDbEntity
  8
Ebene_1
 62
1
100
AcDbPolyline
 90
3
 70
1
 10
23.210229
 20
65.512263
 30
0.0
 10
19.134674
 20
64.562993
 30
0.0
 10
23.210229
 20
65.512263
 30
0.0
  0
SPLINE
  5
161
100
AcDbEntity
  8
Ebene_1
 62
1
100
AcDbSpline
 70
8
 71
3
 72
8
 73
4
 74
0
 40
0
 40
0
 40
0
 40
0
 40
1
 40
1
 40
1
 40
1
 10
186.739032
 20
128.555057
 30
0.0
 10
186.739032
 20
128.555057
 30
0.0
 10
188.426954
 20
126.390646
 30
0.0
 10
188.622753
 20
123.549516
 30
0.0
  0
SPLINE
  5
162
100
AcDbEntity
  8
Ebene_1
 62
1
100
AcDbSpline
 70
8
 71
3
 72
8
 73
4
 74
0
 40
0
 40
0
 40
0
 40
0
 40
1
 40
1
 40
1
 40
1
 10
188.622753
 20
123.549516
 30
0.0
 10
189.283517
 20
117.497446
 30
0.0
 10
190.615914
 20
114.881716
 30
0.0
 10
193.999776
 20
111.280436
 30
0.0
  0
LWPOLYLINE
  5
163
100
AcDbEntity
  8
Ebene_1
 62
1
100
AcDbPolyline
 90
2
 70
0
 10
177.523216
 20
123.415006
 30
0.0
 10
181.176902
 20
124.176196
 30
0.0
  0
SPLINE
  5
164
100
AcDbEntity
  8
Ebene_1
 62
1
100
AcDbSpline
 70
8
 71
3
 72
8
 73
4
 74
0
 40
0
 40
0
 40
0
 40
0
 40
1
 40
1
 40
1
 40
1
 10
185.962336
 20
108.313806
 30
0.0
 10
184.573511
 20
110.147256
 30
0.0
 10
183.271065
 20
112.101636
 30
0.0
 10
182.562095
 20
114.886876
 30
0.0
  0
LWPOLYLINE
  5
165
100
AcDbEntity
  8
Ebene_1
 62
1
100
AcDbPolyline
 90
2
 70
0
 10
184.204773
 20
130.393137
 30
0.0
 10
186.739032
 20
128.555057
 30
0.0
  0
SPLINE
  5
166
100
AcDbEntity
  8
Ebene_1
 62
1
100
AcDbSpline
 70
8
 71
3
 72
8
 73
4
 74
0
 40
0
 40
0
 40
0
 40
0
 40
1
 40
1
 40
1
 40
1
 10
179.196968
 20
114.177056
 30
0.0
 10
179.146898
 20
114.166456
 30
0.0
 10
179.217828
 20
114.077256
 30
0.0
 10
179.225598
 20
114.028146
 30
0.0
  0
SPLINE
  5
167
100
AcDbEntity
  8
Ebene_1
 62
1
100
AcDbSpline
 70
8
 71
3
 72
8
 73
4
 74
0
 40
0
 40
0
 40
0
 40
0
 40
1
 40
1
 40
1
 40
1
 10
179.225598
 20
114.028146
 30
0.0
 10
180.095997
 20
108.521796
 30
0.0
 10
180.684961
 20
103.165895
 30
0.0
 10
180.891903
 20
97.952625
 30
0.0
  0
LWPOLYLINE
  5
168
100
AcDbEntity
  8
Ebene_1
 62
1
100
AcDbPolyline
 90
2
 70
0
 10
193.999776
 20
111.280436
 30
0.0
 10
185.962336
 20
108.313806
 30
0.0
  0
SPLINE
  5
169
100
AcDbEntity
  8
Ebene_1
 62
1
100
AcDbSpline
 70
8
 71
3
 72
8
 73
4
 74
0
 40
0
 40
0
 40
0
 40
0
 40
1
 40
1
 40
1
 40
1
 10
184.445227
 20
97.936725
 30
0.0
 10
184.874008
 20
100.189525
 30
0.0
 10
184.281227
 20
100.745695
 30
0.0
 10
186.295263
 20
105.000535
 30
0.0
  0
LWPOLYLINE
  5
16a
100
AcDbEntity
  8
Ebene_1
 62
1
100
AcDbPolyline
 90
2
 70
0
 10
182.562095
 20
114.886876
 30
0.0
 10
179.196968
 20
114.177056
 30
0.0
  0
SPLINE
  5
16b
100
AcDbEntity
  8
Ebene_1
 62
1
100
AcDbSpline
 70
8
 71
3
 72
8
 73
4
 74
0
 40
0
 40
0
 40
0
 40
0
 40
1
 40
1
 40
1
 40
1
 10
192.614664
 20
101.261275
 30
0.0
 10
191.040313
 20
95.594155
 30
0.0
 10
191.893258
 20
88.411685
 30
0.0
 10
193.723971
 20
83.677974
 30
0.0
  0
LWPOLYLINE
  5
16c
100
AcDbEntity
  8
Ebene_1
 62
1
100
AcDbPolyline
 90
2
 70
0
 10
180.891903
 20
97.952625
 30
0.0
 10
184.445227
 20
97.936725
 30
0.0
  0
SPLINE
  5
16d
100
AcDbEntity
  8
Ebene_1
 62
1
100
AcDbSpline
 70
8
 71
3
 72
8
 73
4
 74
0
 40
0
 40
0
 40
0
 40
0
 40
1
 40
1
 40
1
 40
1
 10
186.696767
 20
81.080454
 30
0.0
 10
185.287097
 20
83.343574
 30
0.0
 10
184.853100
 20
85.268874
 30
0.0
 10
184.407936
 20
87.945354
 30
0.0
  0
LWPOLYLINE
  5
16e
100
AcDbEntity
  8
Ebene_1
 62
1
100
AcDbPolyline
 90
2
 70
0
 10
186.295263
 20
105.000535
 30
0.0
 10
192.614664
 20
101.261275
 30
0.0
  0
SPLINE
  5
16f
100
AcDbEntity
  8
Ebene_1
 62
1
100
AcDbSpline
 70
8
 71
3
 72
8
 73
4
 74
0
 40
0
 40
0
 40
0
 40
0
 40
1
 40
1
 40
1
 40
1
 10
180.889833
 20
87.966855
 30
0.0
 10
180.699177
 20
82.679294
 30
0.0
 10
180.212557
 20
77.386164
 30
0.0
 10
179.431291
 20
72.087484
 30
0.0
  0
SPLINE
  5
170
100
AcDbEntity
  8
Ebene_1
 62
1
100
AcDbSpline
 70
8
 71
3
 72
8
 73
4
 74
0
 40
0
 40
0
 40
0
 40
0
 40
1
 40
1
 40
1
 40
1
 10
179.431291
 20
72.087484
 30
0.0
 10
179.425291
 20
72.046684
 30
0.0
 10
179.413181
 20
71.965044
 30
0.0
 10
179.413181
 20
71.965044
 30
0.0
  0
LWPOLYLINE
  5
171
100
AcDbEntity
  8
Ebene_1
 62
1
100
AcDbPolyline
 90
2
 70
0
 10
193.723971
 20
83.677974
 30
0.0
 10
186.696767
 20
81.080454
 30
0.0
  0
SPLINE
  5
172
100
AcDbEntity
  8
Ebene_1
 62
1
100
AcDbSpline
 70
8
 71
3
 72
8
 73
4
 74
0
 40
0
 40
0
 40
0
 40
0
 40
1
 40
1
 40
1
 40
1
 10
182.790147
 20
71.366354
 30
0.0
 10
183.728668
 20
73.449114
 30
0.0
 10
184.503825
 20
75.580884
 30
0.0
 10
186.374837
 20
77.383894
 30
0.0
  0
LWPOLYLINE
  5
173
100
AcDbEntity
  8
Ebene_1
 62
1
100
AcDbPolyline
 90
2
 70
0
 10
184.407936
 20
87.945354
 30
0.0
 10
180.889833
 20
87.966855
 30
0.0
  0
SPLINE
  5
174
100
AcDbEntity
  8
Ebene_1
 62
1
100
AcDbSpline
 70
8
 71
3
 72
8
 73
4
 74
0
 40
0
 40
0
 40
0
 40
0
 40
1
 40
1
 40
1
 40
1
 10
191.846498
 20
71.953504
 30
0.0
 10
190.040486
 20
68.588184
 30
0.0
 10
189.175345
 20
64.579943
 30
0.0
 10
188.683933
 20
62.529213
 30
0.0
  0
SPLINE
  5
175
100
AcDbEntity
  8
Ebene_1
 62
1
100
AcDbSpline
 70
8
 71
3
 72
8
 73
4
 74
0
 40
0
 40
0
 40
0
 40
0
 40
1
 40
1
 40
1
 40
1
 10
188.683933
 20
62.529213
 30
0.0
 10
188.547305
 20
61.803683
 30
0.0
 10
188.258268
 20
60.354963
 30
0.0
 10
188.774013
 20
59.533483
 30
0.0
  0
LWPOLYLINE
  5
176
100
AcDbEntity
  8
Ebene_1
 62
1
100
AcDbPolyline
 90
2
 70
0
 10
179.413181
 20
71.965044
 30
0.0
 10
182.790147
 20
71.366354
 30
0.0
  0
SPLINE
  5
177
100
AcDbEntity
  8
Ebene_1
 62
1
100
AcDbSpline
 70
8
 71
3
 72
8
 73
4
 74
0
 40
0
 40
0
 40
0
 40
0
 40
1
 40
1
 40
1
 40
1
 10
181.540503
 20
56.530403
 30
0.0
 10
181.004943
 20
59.037873
 30
0.0
 10
181.022054
 20
59.878133
 30
0.0
 10
181.461013
 20
61.616583
 30
0.0
  0
LWPOLYLINE
  5
178
100
AcDbEntity
  8
Ebene_1
 62
1
100
AcDbPolyline
 90
2
 70
0
 10
186.374837
 20
77.383894
 30
0.0
 10
191.846498
 20
71.953504
 30
0.0
  0
SPLINE
  5
179
100
AcDbEntity
  8
Ebene_1
 62
1
100
AcDbSpline
 70
8
 71
3
 72
8
 73
4
 74
0
 40
0
 40
0
 40
0
 40
0
 40
1
 40
1
 40
1
 40
1
 10
177.679879
 20
62.406913
 30
0.0
 10
177.664719
 20
62.409913
 30
0.0
 10
177.671279
 20
62.376713
 30
0.0
 10
177.667799
 20
62.360713
 30
0.0
  0
SPLINE
  5
17a
100
AcDbEntity
  8
Ebene_1
 62
1
100
AcDbSpline
 70
8
 71
3
 72
8
 73
4
 74
0
 40
0
 40
0
 40
0
 40
0
 40
1
 40
1
 40
1
 40
1
 10
177.667799
 20
62.360713
 30
0.0
 10
177.171070
 20
60.051263
 30
0.0
 10
176.618656
 20
57.783603
 30
0.0
 10
176.010678
 20
55.472053
 30
0.0
  0
LWPOLYLINE
  5
17b
100
AcDbEntity
  8
Ebene_1
 62
1
100
AcDbPolyline
 90
2
 70
0
 10
188.774013
 20
59.533483
 30
0.0
 10
181.540503
 20
56.530403
 30
0.0
  0
LWPOLYLINE
  5
17c
100
AcDbEntity
  8
Ebene_1
 62
1
100
AcDbPolyline
 90
2
 70
0
 10
181.461013
 20
61.616583
 30
0.0
 10
177.679879
 20
62.406913
 30
0.0
  0
LWPOLYLINE
  5
17d
100
AcDbEntity
  8
Ebene_1
 62
1
100
AcDbPolyline
 90
3
 70
1
 10
179.613687
 20
116.886746
 30
0.0
 10
183.875411
 20
117.878176
 30
0.0
 10
179.613687
 20
116.886746
 30
0.0
  0
LWPOLYLINE
  5
17e
100
AcDbEntity
  8
Ebene_1
 62
1
100
AcDbPolyline
 90
3
 70
1
 10
183.601317
 20
119.362826
 30
0.0
 10
187.499794
 20
120.219366
 30
0.0
 10
183.601317
 20
119.362826
 30
0.0
  0
LWPOLYLINE
  5
17f
100
AcDbEntity
  8
Ebene_1
 62
1
100
AcDbPolyline
 90
3
 70
1
 10
179.098501
 20
119.758536
 30
0.0
 10
183.174056
 20
120.707806
 30
0.0
 10
179.098501
 20
119.758536
 30
0.0
  0
LWPOLYLINE
  5
180
100
AcDbEntity
  8
Ebene_1
 62
1
100
AcDbPolyline
 90
3
 70
1
 10
181.171736
 20
91.715085
 30
0.0
 10
185.547195
 20
91.738685
 30
0.0
 10
181.171736
 20
91.715085
 30
0.0
  0
LWPOLYLINE
  5
181
100
AcDbEntity
  8
Ebene_1
 62
1
100
AcDbPolyline
 90
3
 70
1
 10
185.608504
 20
93.247125
 30
0.0
 10
189.599878
 20
93.219525
 30
0.0
 10
185.608504
 20
93.247125
 30
0.0
  0
LWPOLYLINE
  5
182
100
AcDbEntity
  8
Ebene_1
 62
1
100
AcDbPolyline
 90
3
 70
1
 10
181.304971
 20
94.629725
 30
0.0
 10
185.489554
 20
94.653425
 30
0.0
 10
181.304971
 20
94.629725
 30
0.0
  0
LWPOLYLINE
  5
183
100
AcDbEntity
  8
Ebene_1
 62
1
100
AcDbPolyline
 90
3
 70
1
 10
179.120855
 20
68.384053
 30
0.0
 10
183.382579
 20
67.392623
 30
0.0
 10
179.120855
 20
68.384053
 30
0.0
  0
LWPOLYLINE
  5
184
100
AcDbEntity
  8
Ebene_1
 62
1
100
AcDbPolyline
 90
3
 70
1
 10
183.108485
 20
65.907973
 30
0.0
 10
187.006962
 20
65.051433
 30
0.0
 10
183.108485
 20
65.907973
 30
0.0
  0
LWPOLYLINE
  5
185
100
AcDbEntity
  8
Ebene_1
 62
1
100
AcDbPolyline
 90
3
 70
1
 10
178.605669
 20
65.512263
 30
0.0
 10
182.681224
 20
64.562993
 30
0.0
 10
178.605669
 20
65.512263
 30
0.0
  0
ENDSEC
  0
SECTION
  2
OBJECTS
  0
DICTIONARY
  5
C
330
0
100
AcDbDictionary
  3
ACAD_GROUP
350
D
  3
ACAD_MLINESTYLE
350
17
  0
DICTIONARY
  5
D
330
C
100
AcDbDictionary
  0
DICTIONARY
  5
1A
330
C
100
AcDbDictionary
  0
DICTIONARY
  5
17
330
C
100
AcDbDictionary
  3
STANDARD
350
18
  0
DICTIONARY
  5
19
330
C
100
AcDbDictionary
  0
ENDSEC
  0
EOF
