  0
SECTION
  2
HEADER
  9
$ACADVER
  1
AC1014
  9
$HANDSEED
  5
FFFF
  9
$MEASUREMENT
 70
     1
  0
ENDSEC
  0
SECTION
  2
TABLES
  0
TABLE
  2
VPORT
  5
8
330
0
100
AcDbSymbolTable
 70
     4
  0
VPORT
  5
2E
330
8
100
AcDbSymbolTableRecord
100
AcDbViewportTableRecord
  2
*ACTIVE
 70
     0
 10
0.0
 20
0.0
 11
1.0
 21
1.0
 12
210.0
 22
148.5
 13
0.0
 23
0.0
 14
10.0
 24
10.0
 15
10.0
 25
10.0
 16
0.0
 26
0.0
 36
1.0
 17
0.0
 27
0.0
 37
0.0
 40
341.0
 41
1.24
 42
50.0
 43
0.0
 44
0.0
 50
0.0
 51
0.0
 71
     0
 72
   100
 73
     1
 74
     3
 75
     0
 76
     0
 77
     0
 78
     0
  0
ENDTAB
  0
TABLE
  2
LTYPE
  5
5
330
0
100
AcDbSymbolTable
 70
     1
  0
LTYPE
  5
14
330
5
100
AcDbSymbolTableRecord
100
AcDbLinetypeTableRecord
  2
BYBLOCK
 70
     0
  3

 72
    65
 73
     0
 40
0.0
  0
LTYPE
  5
15
330
5
100
AcDbSymbolTableRecord
100
AcDbLinetypeTableRecord
  2
BYLAYER
 70
     0
  3

 72
    65
 73
     0
 40
0.0
  0
LTYPE
  5
16
330
5
100
AcDbSymbolTableRecord
100
AcDbLinetypeTableRecord
  2
CONTINUOUS
 70
     0
  3
Solid line
 72
    65
 73
     0
 40
0.0
  0
ENDTAB
  0
TABLE
  2
LAYER
  5
2
100
AcDbSymbolTable
 70
2
  0
LAYER
  5
50
100
AcDbSymbolTableRecord
100
AcDbLayerTableRecord
  2
0
 70
0
  6
CONTINUOUS
  0
LAYER
  5
51
100
AcDbSymbolTableRecord
100
AcDbLayerTableRecord
  2
Ebene_1
 70
0
  6
CONTINUOUS
  0
ENDTAB
  0
TABLE
  2
STYLE
  5
3
330
0
100
AcDbSymbolTable
 70
     1
  0
STYLE
  5
11
330
3
100
AcDbSymbolTableRecord
100
AcDbTextStyleTableRecord
  2
STANDARD
 70
     0
 40
0.0
 41
1.0
 50
0.0
 71
     0
 42
2.5
  3
txt
  4

  0
ENDTAB
  0
TABLE
  2
VIEW
  5
6
330
0
100
AcDbSymbolTable
 70
     0
  0
ENDTAB
  0
TABLE
  2
UCS
  5
7
330
0
100
AcDbSymbolTable
 70
     0
  0
ENDTAB
  0
TABLE
  2
APPID
  5
9
330
0
100
AcDbSymbolTable
 70
     2
  0
APPID
  5
12
330
9
100
AcDbSymbolTableRecord
100
AcDbRegAppTableRecord
  2
ACAD
 70
     0
  0
ENDTAB
  0
TABLE
  2
DIMSTYLE
  5
A
330
0
100
AcDbSymbolTable
 70
     1
  0
DIMSTYLE
105
27
330
A
100
AcDbSymbolTableRecord
100
AcDbDimStyleTableRecord
  2
ISO-25
 70
     0
  3

  4

  5

  6

  7

 40
1.0
 41
2.5
 42
0.625
 43
3.75
 44
1.25
 45
0.0
 46
0.0
 47
0.0
 48
0.0
140
2.5
141
2.5
142
0.0
143
0.03937007874016
144
1.0
145
0.0
146
1.0
147
0.625
 71
     0
 72
     0
 73
     0
 74
     0
 75
     0
 76
     0
 77
     1
 78
     8
170
     0
171
     3
172
     1
173
     0
174
     0
175
     0
176
     0
177
     0
178
     0
270
     2
271
     2
272
     2
273
     2
274
     3
340
11
275
     0
280
     0
281
     0
282
     0
283
     0
284
     8
285
     0
286
     0
287
     3
288
     0
  0
ENDTAB
  0
TABLE
  2
BLOCK_RECORD
  5
1
330
0
100
AcDbSymbolTable
 70
     1
  0
BLOCK_RECORD
  5
1F
330
1
100
AcDbSymbolTableRecord
100
AcDbBlockTableRecord
  2
*MODEL_SPACE
  0
BLOCK_RECORD
  5
1B
330
1
100
AcDbSymbolTableRecord
100
AcDbBlockTableRecord
  2
*PAPER_SPACE
  0
ENDTAB
  0
ENDSEC
  0
SECTION
  2
BLOCKS
  0
BLOCK
  5
20
330
1F
100
AcDbEntity
  8
0
100
AcDbBlockBegin
  2
*MODEL_SPACE
 70
     0
 10
0.0
 20
0.0
 30
0.0
  3
*MODEL_SPACE
  1

  0
ENDBLK
  5
21
330
1F
100
AcDbEntity
  8
0
100
AcDbBlockEnd
  0
BLOCK
  5
1C
330
1B
100
AcDbEntity
 67
     1
  8
0
100
AcDbBlockBegin
  2
*PAPER_SPACE
  1

  0
ENDBLK
  5
1D
330
1B
100
AcDbEntity
 67
     1
  8
0
100
AcDbBlockEnd
  0
ENDSEC
  0
SECTION
  2
ENTITIES
  0
SPLINE
  5
100
100
AcDbEntity
  8
Ebene_1
 62
1
100
AcDbSpline
 70
8
 71
3
 72
8
 73
4
 74
0
 40
0
 40
0
 40
0
 40
0
 40
1
 40
1
 40
1
 40
1
 10
48.845453
 20
10.044631
 30
0.0
 10
48.845453
 20
9.584808
 30
0.0
 10
48.600515
 20
9.159914
 30
0.0
 10
48.202904
 20
8.930003
 30
0.0
  0
SPLINE
  5
101
100
AcDbEntity
  8
Ebene_1
 62
1
100
AcDbSpline
 70
8
 71
3
 72
8
 73
4
 74
0
 40
0
 40
0
 40
0
 40
0
 40
1
 40
1
 40
1
 40
1
 10
48.202904
 20
8.930003
 30
0.0
 10
47.805293
 20
8.700091
 30
0.0
 10
47.315417
 20
8.700091
 30
0.0
 10
46.917806
 20
8.930003
 30
0.0
  0
SPLINE
  5
102
100
AcDbEntity
  8
Ebene_1
 62
1
100
AcDbSpline
 70
8
 71
3
 72
8
 73
4
 74
0
 40
0
 40
0
 40
0
 40
0
 40
1
 40
1
 40
1
 40
1
 10
46.917806
 20
8.930003
 30
0.0
 10
46.520195
 20
9.159914
 30
0.0
 10
46.275257
 20
9.584808
 30
0.0
 10
46.275257
 20
10.044631
 30
0.0
  0
SPLINE
  5
103
100
AcDbEntity
  8
Ebene_1
 62
1
100
AcDbSpline
 70
8
 71
3
 72
8
 73
4
 74
0
 40
0
 40
0
 40
0
 40
0
 40
1
 40
1
 40
1
 40
1
 10
46.275257
 20
10.044631
 30
0.0
 10
46.275257
 20
10.504454
 30
0.0
 10
46.520195
 20
10.929348
 30
0.0
 10
46.917806
 20
11.159259
 30
0.0
  0
SPLINE
  5
104
100
AcDbEntity
  8
Ebene_1
 62
1
100
AcDbSpline
 70
8
 71
3
 72
8
 73
4
 74
0
 40
0
 40
0
 40
0
 40
0
 40
1
 40
1
 40
1
 40
1
 10
46.917806
 20
11.159259
 30
0.0
 10
47.315417
 20
11.389171
 30
0.0
 10
47.805293
 20
11.389171
 30
0.0
 10
48.202904
 20
11.159259
 30
0.0
  0
SPLINE
  5
105
100
AcDbEntity
  8
Ebene_1
 62
1
100
AcDbSpline
 70
8
 71
3
 72
8
 73
4
 74
0
 40
0
 40
0
 40
0
 40
0
 40
1
 40
1
 40
1
 40
1
 10
48.202904
 20
11.159259
 30
0.0
 10
48.600515
 20
10.929348
 30
0.0
 10
48.845453
 20
10.504454
 30
0.0
 10
48.845453
 20
10.044631
 30
0.0
  0
SPLINE
  5
106
100
AcDbEntity
  8
Ebene_1
 62
1
100
AcDbSpline
 70
8
 71
3
 72
8
 73
4
 74
0
 40
0
 40
0
 40
0
 40
0
 40
1
 40
1
 40
1
 40
1
 10
146.011563
 20
10.072711
 30
0.0
 10
146.011563
 20
9.361891
 30
0.0
 10
145.436213
 20
8.785651
 30
0.0
 10
144.726473
 20
8.785651
 30
0.0
  0
SPLINE
  5
107
100
AcDbEntity
  8
Ebene_1
 62
1
100
AcDbSpline
 70
8
 71
3
 72
8
 73
4
 74
0
 40
0
 40
0
 40
0
 40
0
 40
1
 40
1
 40
1
 40
1
 10
144.726473
 20
8.785651
 30
0.0
 10
144.016733
 20
8.785651
 30
0.0
 10
143.441373
 20
9.361891
 30
0.0
 10
143.441373
 20
10.072711
 30
0.0
  0
SPLINE
  5
108
100
AcDbEntity
  8
Ebene_1
 62
1
100
AcDbSpline
 70
8
 71
3
 72
8
 73
4
 74
0
 40
0
 40
0
 40
0
 40
0
 40
1
 40
1
 40
1
 40
1
 10
143.441373
 20
10.072711
 30
0.0
 10
143.441373
 20
10.783531
 30
0.0
 10
144.016733
 20
11.359771
 30
0.0
 10
144.726473
 20
11.359771
 30
0.0
  0
SPLINE
  5
109
100
AcDbEntity
  8
Ebene_1
 62
1
100
AcDbSpline
 70
8
 71
3
 72
8
 73
4
 74
0
 40
0
 40
0
 40
0
 40
0
 40
1
 40
1
 40
1
 40
1
 10
144.726473
 20
11.359771
 30
0.0
 10
145.436213
 20
11.359771
 30
0.0
 10
146.011563
 20
10.783531
 30
0.0
 10
146.011563
 20
10.072711
 30
0.0
  0
LWPOLYLINE
  5
10a
100
AcDbEntity
  8
Ebene_1
 62
1
100
AcDbPolyline
 90
1
 70
1
 10
48.845453
 20
10.044631
 30
0.0
  0
SPLINE
  5
10b
100
AcDbEntity
  8
Ebene_1
 62
1
100
AcDbSpline
 70
8
 71
3
 72
8
 73
4
 74
0
 40
0
 40
0
 40
0
 40
0
 40
1
 40
1
 40
1
 40
1
 10
50.593509
 20
189.676419
 30
0.0
 10
50.593509
 20
188.728670
 30
0.0
 10
50.093607
 20
187.852914
 30
0.0
 10
49.282111
 20
187.379039
 30
0.0
  0
SPLINE
  5
10c
100
AcDbEntity
  8
Ebene_1
 62
1
100
AcDbSpline
 70
8
 71
3
 72
8
 73
4
 74
0
 40
0
 40
0
 40
0
 40
0
 40
1
 40
1
 40
1
 40
1
 10
49.282111
 20
187.379039
 30
0.0
 10
48.470616
 20
186.905165
 30
0.0
 10
47.470812
 20
186.905165
 30
0.0
 10
46.659317
 20
187.379039
 30
0.0
  0
SPLINE
  5
10d
100
AcDbEntity
  8
Ebene_1
 62
1
100
AcDbSpline
 70
8
 71
3
 72
8
 73
4
 74
0
 40
0
 40
0
 40
0
 40
0
 40
1
 40
1
 40
1
 40
1
 10
46.659317
 20
187.379039
 30
0.0
 10
45.847821
 20
187.852914
 30
0.0
 10
45.347919
 20
188.728670
 30
0.0
 10
45.347919
 20
189.676419
 30
0.0
  0
SPLINE
  5
10e
100
AcDbEntity
  8
Ebene_1
 62
1
100
AcDbSpline
 70
8
 71
3
 72
8
 73
4
 74
0
 40
0
 40
0
 40
0
 40
0
 40
1
 40
1
 40
1
 40
1
 10
45.347919
 20
189.676419
 30
0.0
 10
45.347919
 20
190.624168
 30
0.0
 10
45.847821
 20
191.499924
 30
0.0
 10
46.659317
 20
191.973798
 30
0.0
  0
SPLINE
  5
10f
100
AcDbEntity
  8
Ebene_1
 62
1
100
AcDbSpline
 70
8
 71
3
 72
8
 73
4
 74
0
 40
0
 40
0
 40
0
 40
0
 40
1
 40
1
 40
1
 40
1
 10
46.659317
 20
191.973798
 30
0.0
 10
47.470812
 20
192.447673
 30
0.0
 10
48.470616
 20
192.447673
 30
0.0
 10
49.282111
 20
191.973798
 30
0.0
  0
SPLINE
  5
110
100
AcDbEntity
  8
Ebene_1
 62
1
100
AcDbSpline
 70
8
 71
3
 72
8
 73
4
 74
0
 40
0
 40
0
 40
0
 40
0
 40
1
 40
1
 40
1
 40
1
 10
49.282111
 20
191.973798
 30
0.0
 10
50.093607
 20
191.499924
 30
0.0
 10
50.593509
 20
190.624168
 30
0.0
 10
50.593509
 20
189.676419
 30
0.0
  0
LWPOLYLINE
  5
111
100
AcDbEntity
  8
Ebene_1
 62
1
100
AcDbPolyline
 90
1
 70
1
 10
146.011563
 20
10.072711
 30
0.0
  0
LWPOLYLINE
  5
112
100
AcDbEntity
  8
Ebene_1
 62
1
100
AcDbPolyline
 90
1
 70
1
 10
50.593509
 20
189.676419
 30
0.0
  0
SPLINE
  5
113
100
AcDbEntity
  8
Ebene_1
 62
1
100
AcDbSpline
 70
8
 71
3
 72
8
 73
4
 74
0
 40
0
 40
0
 40
0
 40
0
 40
1
 40
1
 40
1
 40
1
 10
147.279810
 20
189.487433
 30
0.0
 10
147.279820
 20
188.022333
 30
0.0
 10
146.105550
 20
186.834643
 30
0.0
 10
144.657010
 20
186.834643
 30
0.0
  0
SPLINE
  5
114
100
AcDbEntity
  8
Ebene_1
 62
1
100
AcDbSpline
 70
8
 71
3
 72
8
 73
4
 74
0
 40
0
 40
0
 40
0
 40
0
 40
1
 40
1
 40
1
 40
1
 10
144.657010
 20
186.834643
 30
0.0
 10
143.208480
 20
186.834643
 30
0.0
 10
142.034220
 20
188.022343
 30
0.0
 10
142.034220
 20
189.487433
 30
0.0
  0
SPLINE
  5
115
100
AcDbEntity
  8
Ebene_1
 62
1
100
AcDbSpline
 70
8
 71
3
 72
8
 73
4
 74
0
 40
0
 40
0
 40
0
 40
0
 40
1
 40
1
 40
1
 40
1
 10
142.034220
 20
189.487433
 30
0.0
 10
142.034230
 20
190.952523
 30
0.0
 10
143.208490
 20
192.140213
 30
0.0
 10
144.657010
 20
192.140213
 30
0.0
  0
SPLINE
  5
116
100
AcDbEntity
  8
Ebene_1
 62
1
100
AcDbSpline
 70
8
 71
3
 72
8
 73
4
 74
0
 40
0
 40
0
 40
0
 40
0
 40
1
 40
1
 40
1
 40
1
 10
144.657010
 20
192.140213
 30
0.0
 10
146.105540
 20
192.140213
 30
0.0
 10
147.279810
 20
190.952523
 30
0.0
 10
147.279810
 20
189.487433
 30
0.0
  0
LWPOLYLINE
  5
117
100
AcDbEntity
  8
Ebene_1
 62
1
100
AcDbPolyline
 90
2
 70
0
 10
47.892564
 20
187.163529
 30
0.0
 10
47.892564
 20
177.817709
 30
0.0
  0
LWPOLYLINE
  5
118
100
AcDbEntity
  8
Ebene_1
 62
1
100
AcDbPolyline
 90
1
 70
1
 10
147.279810
 20
189.487433
 30
0.0
  0
LWPOLYLINE
  5
119
100
AcDbEntity
  8
Ebene_1
 62
1
100
AcDbPolyline
 90
2
 70
0
 10
144.578860
 20
186.974543
 30
0.0
 10
144.578860
 20
177.628723
 30
0.0
  0
SPLINE
  5
11a
100
AcDbEntity
  8
Ebene_1
 62
1
100
AcDbSpline
 70
8
 71
3
 72
8
 73
4
 74
0
 40
0
 40
0
 40
0
 40
0
 40
1
 40
1
 40
1
 40
1
 10
184.601503
 20
168.089581
 30
0.0
 10
184.868063
 20
166.599351
 30
0.0
 10
185.261603
 20
165.147561
 30
0.0
 10
185.771783
 20
163.743591
 30
0.0
  0
LWPOLYLINE
  5
11b
100
AcDbEntity
  8
Ebene_1
 62
1
100
AcDbPolyline
 90
2
 70
0
 10
180.995893
 20
168.197591
 30
0.0
 10
184.601503
 20
168.089581
 30
0.0
  0
SPLINE
  5
11c
100
AcDbEntity
  8
Ebene_1
 62
1
100
AcDbSpline
 70
8
 71
3
 72
8
 73
4
 74
0
 40
0
 40
0
 40
0
 40
0
 40
1
 40
1
 40
1
 40
1
 10
191.605803
 20
166.536631
 30
0.0
 10
190.745023
 20
168.802251
 30
0.0
 10
190.198523
 20
170.294401
 30
0.0
 10
190.198523
 20
172.823941
 30
0.0
  0
SPLINE
  5
11d
100
AcDbEntity
  8
Ebene_1
 62
1
100
AcDbSpline
 70
8
 71
3
 72
8
 73
4
 74
0
 40
0
 40
0
 40
0
 40
0
 40
1
 40
1
 40
1
 40
1
 10
190.198523
 20
172.823941
 30
0.0
 10
190.198523
 20
175.413261
 30
0.0
 10
191.588253
 20
179.152001
 30
0.0
 10
191.588253
 20
179.152001
 30
0.0
  0
LWPOLYLINE
  5
11e
100
AcDbEntity
  8
Ebene_1
 62
1
100
AcDbPolyline
 90
2
 70
0
 10
185.771783
 20
163.743591
 30
0.0
 10
191.605803
 20
166.536631
 30
0.0
  0
SPLINE
  5
11f
100
AcDbEntity
  8
Ebene_1
 62
1
100
AcDbSpline
 70
8
 71
3
 72
8
 73
4
 74
0
 40
0
 40
0
 40
0
 40
0
 40
1
 40
1
 40
1
 40
1
 10
185.705363
 20
181.819871
 30
0.0
 10
185.176763
 20
180.371521
 30
0.0
 10
184.772323
 20
178.872161
 30
0.0
 10
184.550473
 20
177.312401
 30
0.0
  0
LWPOLYLINE
  5
120
100
AcDbEntity
  8
Ebene_1
 62
1
100
AcDbPolyline
 90
2
 70
0
 10
191.588253
 20
179.152001
 30
0.0
 10
185.705363
 20
181.819871
 30
0.0
  0
SPLINE
  5
121
100
AcDbEntity
  8
Ebene_1
 62
1
100
AcDbSpline
 70
8
 71
3
 72
8
 73
4
 74
0
 40
0
 40
0
 40
0
 40
0
 40
1
 40
1
 40
1
 40
1
 10
247.315314
 20
172.254354
 30
0.0
 10
247.315314
 20
162.393772
 30
0.0
 10
242.054756
 20
153.282219
 30
0.0
 10
233.515242
 20
148.351928
 30
0.0
  0
SPLINE
  5
122
100
AcDbEntity
  8
Ebene_1
 62
1
100
AcDbSpline
 70
8
 71
3
 72
8
 73
4
 74
0
 40
0
 40
0
 40
0
 40
0
 40
1
 40
1
 40
1
 40
1
 10
233.515242
 20
148.351928
 30
0.0
 10
224.975728
 20
143.421638
 30
0.0
 10
214.454613
 20
143.421638
 30
0.0
 10
205.915099
 20
148.351928
 30
0.0
  0
SPLINE
  5
123
100
AcDbEntity
  8
Ebene_1
 62
1
100
AcDbSpline
 70
8
 71
3
 72
8
 73
4
 74
0
 40
0
 40
0
 40
0
 40
0
 40
1
 40
1
 40
1
 40
1
 10
205.915099
 20
148.351928
 30
0.0
 10
197.375584
 20
153.282219
 30
0.0
 10
192.115027
 20
162.393772
 30
0.0
 10
192.115027
 20
172.254354
 30
0.0
  0
SPLINE
  5
124
100
AcDbEntity
  8
Ebene_1
 62
1
100
AcDbSpline
 70
8
 71
3
 72
8
 73
4
 74
0
 40
0
 40
0
 40
0
 40
0
 40
1
 40
1
 40
1
 40
1
 10
192.115027
 20
172.254354
 30
0.0
 10
192.115027
 20
182.114935
 30
0.0
 10
197.375584
 20
191.226488
 30
0.0
 10
205.915099
 20
196.156779
 30
0.0
  0
SPLINE
  5
125
100
AcDbEntity
  8
Ebene_1
 62
1
100
AcDbSpline
 70
8
 71
3
 72
8
 73
4
 74
0
 40
0
 40
0
 40
0
 40
0
 40
1
 40
1
 40
1
 40
1
 10
205.915099
 20
196.156779
 30
0.0
 10
214.454613
 20
201.087070
 30
0.0
 10
224.975728
 20
201.087070
 30
0.0
 10
233.515242
 20
196.156779
 30
0.0
  0
SPLINE
  5
126
100
AcDbEntity
  8
Ebene_1
 62
1
100
AcDbSpline
 70
8
 71
3
 72
8
 73
4
 74
0
 40
0
 40
0
 40
0
 40
0
 40
1
 40
1
 40
1
 40
1
 10
233.515242
 20
196.156779
 30
0.0
 10
242.054756
 20
191.226488
 30
0.0
 10
247.315314
 20
182.114935
 30
0.0
 10
247.315314
 20
172.254354
 30
0.0
  0
LWPOLYLINE
  5
127
100
AcDbEntity
  8
Ebene_1
 62
1
100
AcDbPolyline
 90
2
 70
0
 10
184.550473
 20
177.312401
 30
0.0
 10
180.995903
 20
177.292701
 30
0.0
  0
LWPOLYLINE
  5
128
100
AcDbEntity
  8
Ebene_1
 62
1
100
AcDbPolyline
 90
1
 70
1
 10
247.315314
 20
172.254354
 30
0.0
  0
LWPOLYLINE
  5
129
100
AcDbEntity
  8
Ebene_1
 62
1
100
AcDbPolyline
 90
4
 70
1
 10
195.161422
 20
177.379844
 30
0.0
 10
199.655577
 20
177.379844
 30
0.0
 10
199.655577
 20
167.351377
 30
0.0
 10
195.161422
 20
167.351377
 30
0.0
  0
LWPOLYLINE
  5
12a
100
AcDbEntity
  8
Ebene_1
 62
1
100
AcDbPolyline
 90
4
 70
1
 10
240.102931
 20
177.448388
 30
0.0
 10
244.597087
 20
177.448388
 30
0.0
 10
244.597087
 20
167.419930
 30
0.0
 10
240.102931
 20
167.419930
 30
0.0
  0
LWPOLYLINE
  5
12b
100
AcDbEntity
  8
Ebene_1
 62
1
100
AcDbPolyline
 90
4
 70
1
 10
214.654825
 20
192.318319
 30
0.0
 10
214.654825
 20
196.812475
 30
0.0
 10
224.683283
 20
196.812475
 30
0.0
 10
224.683283
 20
192.318319
 30
0.0
  0
LWPOLYLINE
  5
12c
100
AcDbEntity
  8
Ebene_1
 62
1
100
AcDbPolyline
 90
4
 70
1
 10
224.856986
 20
152.347644
 30
0.0
 10
224.856986
 20
147.853488
 30
0.0
 10
214.828528
 20
147.853488
 30
0.0
 10
214.828528
 20
152.347644
 30
0.0
  0
LWPOLYLINE
  5
12d
100
AcDbEntity
  8
Ebene_1
 62
1
100
AcDbPolyline
 90
4
 70
1
 10
205.592329
 20
193.122231
 30
0.0
 10
208.770171
 20
189.944390
 30
0.0
 10
201.988956
 20
183.163175
 30
0.0
 10
198.811115
 20
186.341016
 30
0.0
  0
LWPOLYLINE
  5
12e
100
AcDbEntity
  8
Ebene_1
 62
1
100
AcDbPolyline
 90
4
 70
1
 10
237.107346
 20
161.187459
 30
0.0
 10
240.285194
 20
158.009611
 30
0.0
 10
233.503980
 20
151.228397
 30
0.0
 10
230.326132
 20
154.406244
 30
0.0
  0
LWPOLYLINE
  5
12f
100
AcDbEntity
  8
Ebene_1
 62
1
100
AcDbPolyline
 90
4
 70
1
 10
233.923707
 20
193.384595
 30
0.0
 10
230.745859
 20
190.206748
 30
0.0
 10
237.527075
 20
183.425530
 30
0.0
 10
240.704923
 20
186.603377
 30
0.0
  0
SPLINE
  5
130
100
AcDbEntity
  8
Ebene_1
 62
1
100
AcDbSpline
 70
8
 71
3
 72
8
 73
4
 74
0
 40
0
 40
0
 40
0
 40
0
 40
1
 40
1
 40
1
 40
1
 10
246.814755
 20
114.732482
 30
0.0
 10
246.814755
 20
104.871900
 30
0.0
 10
241.554198
 20
95.760347
 30
0.0
 10
233.014684
 20
90.830056
 30
0.0
  0
SPLINE
  5
131
100
AcDbEntity
  8
Ebene_1
 62
1
100
AcDbSpline
 70
8
 71
3
 72
8
 73
4
 74
0
 40
0
 40
0
 40
0
 40
0
 40
1
 40
1
 40
1
 40
1
 10
233.014684
 20
90.830056
 30
0.0
 10
224.475170
 20
85.899766
 30
0.0
 10
213.954054
 20
85.899766
 30
0.0
 10
205.414540
 20
90.830056
 30
0.0
  0
SPLINE
  5
132
100
AcDbEntity
  8
Ebene_1
 62
1
100
AcDbSpline
 70
8
 71
3
 72
8
 73
4
 74
0
 40
0
 40
0
 40
0
 40
0
 40
1
 40
1
 40
1
 40
1
 10
205.414540
 20
90.830056
 30
0.0
 10
196.875026
 20
95.760347
 30
0.0
 10
191.614468
 20
104.871900
 30
0.0
 10
191.614468
 20
114.732482
 30
0.0
  0
SPLINE
  5
133
100
AcDbEntity
  8
Ebene_1
 62
1
100
AcDbSpline
 70
8
 71
3
 72
8
 73
4
 74
0
 40
0
 40
0
 40
0
 40
0
 40
1
 40
1
 40
1
 40
1
 10
191.614468
 20
114.732482
 30
0.0
 10
191.614468
 20
124.593063
 30
0.0
 10
196.875026
 20
133.704616
 30
0.0
 10
205.414540
 20
138.634907
 30
0.0
  0
SPLINE
  5
134
100
AcDbEntity
  8
Ebene_1
 62
1
100
AcDbSpline
 70
8
 71
3
 72
8
 73
4
 74
0
 40
0
 40
0
 40
0
 40
0
 40
1
 40
1
 40
1
 40
1
 10
205.414540
 20
138.634907
 30
0.0
 10
213.954054
 20
143.565198
 30
0.0
 10
224.475170
 20
143.565198
 30
0.0
 10
233.014684
 20
138.634907
 30
0.0
  0
SPLINE
  5
135
100
AcDbEntity
  8
Ebene_1
 62
1
100
AcDbSpline
 70
8
 71
3
 72
8
 73
4
 74
0
 40
0
 40
0
 40
0
 40
0
 40
1
 40
1
 40
1
 40
1
 10
233.014684
 20
138.634907
 30
0.0
 10
241.554198
 20
133.704616
 30
0.0
 10
246.814755
 20
124.593063
 30
0.0
 10
246.814755
 20
114.732482
 30
0.0
  0
LWPOLYLINE
  5
136
100
AcDbEntity
  8
Ebene_1
 62
1
100
AcDbPolyline
 90
4
 70
1
 10
202.017563
 20
161.506224
 30
0.0
 10
198.839718
 20
158.328378
 30
0.0
 10
205.620940
 20
151.547154
 30
0.0
 10
208.798786
 20
154.725000
 30
0.0
  0
LWPOLYLINE
  5
137
100
AcDbEntity
  8
Ebene_1
 62
1
100
AcDbPolyline
 90
1
 70
1
 10
246.814755
 20
114.732482
 30
0.0
  0
LWPOLYLINE
  5
138
100
AcDbEntity
  8
Ebene_1
 62
1
100
AcDbPolyline
 90
4
 70
1
 10
194.660864
 20
119.857972
 30
0.0
 10
199.155019
 20
119.857972
 30
0.0
 10
199.155019
 20
109.829505
 30
0.0
 10
194.660864
 20
109.829505
 30
0.0
  0
LWPOLYLINE
  5
139
100
AcDbEntity
  8
Ebene_1
 62
1
100
AcDbPolyline
 90
4
 70
1
 10
239.602373
 20
119.926516
 30
0.0
 10
244.096528
 20
119.926516
 30
0.0
 10
244.096528
 20
109.898058
 30
0.0
 10
239.602373
 20
109.898058
 30
0.0
  0
LWPOLYLINE
  5
13a
100
AcDbEntity
  8
Ebene_1
 62
1
100
AcDbPolyline
 90
4
 70
1
 10
214.154267
 20
134.796447
 30
0.0
 10
214.154267
 20
139.290603
 30
0.0
 10
224.182725
 20
139.290603
 30
0.0
 10
224.182725
 20
134.796447
 30
0.0
  0
LWPOLYLINE
  5
13b
100
AcDbEntity
  8
Ebene_1
 62
1
100
AcDbPolyline
 90
4
 70
1
 10
224.356427
 20
94.825772
 30
0.0
 10
224.356427
 20
90.331616
 30
0.0
 10
214.327970
 20
90.331616
 30
0.0
 10
214.327970
 20
94.825772
 30
0.0
  0
LWPOLYLINE
  5
13c
100
AcDbEntity
  8
Ebene_1
 62
1
100
AcDbPolyline
 90
4
 70
1
 10
205.091771
 20
135.600359
 30
0.0
 10
208.269613
 20
132.422518
 30
0.0
 10
201.488398
 20
125.641303
 30
0.0
 10
198.310556
 20
128.819144
 30
0.0
  0
LWPOLYLINE
  5
13d
100
AcDbEntity
  8
Ebene_1
 62
1
100
AcDbPolyline
 90
4
 70
1
 10
236.606788
 20
103.665586
 30
0.0
 10
239.784635
 20
100.487739
 30
0.0
 10
233.003421
 20
93.706525
 30
0.0
 10
229.825574
 20
96.884372
 30
0.0
  0
LWPOLYLINE
  5
13e
100
AcDbEntity
  8
Ebene_1
 62
1
100
AcDbPolyline
 90
4
 70
1
 10
233.423148
 20
135.862723
 30
0.0
 10
230.245301
 20
132.684876
 30
0.0
 10
237.026517
 20
125.903658
 30
0.0
 10
240.204365
 20
129.081505
 30
0.0
  0
LWPOLYLINE
  5
13f
100
AcDbEntity
  8
Ebene_1
 62
1
100
AcDbPolyline
 90
4
 70
1
 10
201.517005
 20
103.984352
 30
0.0
 10
198.339159
 20
100.806506
 30
0.0
 10
205.120382
 20
94.025282
 30
0.0
 10
208.298227
 20
97.203128
 30
0.0
  0
LWPOLYLINE
  5
140
100
AcDbEntity
  8
Ebene_1
 62
1
100
AcDbPolyline
 90
2
 70
0
 10
180.995563
 20
6.833231
 30
0.0
 10
180.995563
 20
0.032491
 30
0.0
  0
SPLINE
  5
141
100
AcDbEntity
  8
Ebene_1
 62
1
100
AcDbSpline
 70
8
 71
3
 72
8
 73
4
 74
0
 40
0
 40
0
 40
0
 40
0
 40
1
 40
1
 40
1
 40
1
 10
184.601683
 20
6.784341
 30
0.0
 10
184.868243
 20
5.267841
 30
0.0
 10
185.261783
 20
3.790461
 30
0.0
 10
185.771963
 20
2.361731
 30
0.0
  0
LWPOLYLINE
  5
142
100
AcDbEntity
  8
Ebene_1
 62
1
100
AcDbPolyline
 90
2
 70
0
 10
180.995753
 20
6.833441
 30
0.0
 10
184.601683
 20
6.784341
 30
0.0
  0
SPLINE
  5
143
100
AcDbEntity
  8
Ebene_1
 62
1
100
AcDbSpline
 70
8
 71
3
 72
8
 73
4
 74
0
 40
0
 40
0
 40
0
 40
0
 40
1
 40
1
 40
1
 40
1
 10
191.605983
 20
5.185351
 30
0.0
 10
190.745203
 20
7.490911
 30
0.0
 10
190.198713
 20
9.028021
 30
0.0
 10
190.198713
 20
11.602171
 30
0.0
  0
SPLINE
  5
144
100
AcDbEntity
  8
Ebene_1
 62
1
100
AcDbSpline
 70
8
 71
3
 72
8
 73
4
 74
0
 40
0
 40
0
 40
0
 40
0
 40
1
 40
1
 40
1
 40
1
 10
190.198713
 20
11.602171
 30
0.0
 10
190.198713
 20
14.237121
 30
0.0
 10
190.688323
 20
15.708571
 30
0.0
 10
191.588433
 20
18.060431
 30
0.0
  0
LWPOLYLINE
  5
145
100
AcDbEntity
  8
Ebene_1
 62
1
100
AcDbPolyline
 90
2
 70
0
 10
185.771963
 20
2.361731
 30
0.0
 10
191.605983
 20
5.185351
 30
0.0
  0
SPLINE
  5
146
100
AcDbEntity
  8
Ebene_1
 62
1
100
AcDbSpline
 70
8
 71
3
 72
8
 73
4
 74
0
 40
0
 40
0
 40
0
 40
0
 40
1
 40
1
 40
1
 40
1
 10
185.705543
 20
20.756671
 30
0.0
 10
185.176943
 20
19.282781
 30
0.0
 10
184.772503
 20
17.757001
 30
0.0
 10
184.550653
 20
16.169751
 30
0.0
  0
LWPOLYLINE
  5
147
100
AcDbEntity
  8
Ebene_1
 62
1
100
AcDbPolyline
 90
2
 70
0
 10
191.588433
 20
18.060431
 30
0.0
 10
185.705543
 20
20.756671
 30
0.0
  0
SPLINE
  5
148
100
AcDbEntity
  8
Ebene_1
 62
1
100
AcDbSpline
 70
8
 71
3
 72
8
 73
4
 74
0
 40
0
 40
0
 40
0
 40
0
 40
1
 40
1
 40
1
 40
1
 10
184.406473
 20
30.057641
 30
0.0
 10
184.673033
 20
28.567411
 30
0.0
 10
185.066573
 20
27.115631
 30
0.0
 10
185.576753
 20
25.711651
 30
0.0
  0
LWPOLYLINE
  5
149
100
AcDbEntity
  8
Ebene_1
 62
1
100
AcDbPolyline
 90
4
 70
0
 10
184.550653
 20
16.169751
 30
0.0
 10
180.996263
 20
16.149651
 30
0.0
 10
180.991263
 20
30.084241
 30
0.0
 10
184.406473
 20
30.057641
 30
0.0
  0
SPLINE
  5
14a
100
AcDbEntity
  8
Ebene_1
 62
1
100
AcDbSpline
 70
8
 71
3
 72
8
 73
4
 74
0
 40
0
 40
0
 40
0
 40
0
 40
1
 40
1
 40
1
 40
1
 10
191.410773
 20
28.504691
 30
0.0
 10
190.549993
 20
30.770311
 30
0.0
 10
190.003503
 20
32.262461
 30
0.0
 10
190.003503
 20
34.792001
 30
0.0
  0
SPLINE
  5
14b
100
AcDbEntity
  8
Ebene_1
 62
1
100
AcDbSpline
 70
8
 71
3
 72
8
 73
4
 74
0
 40
0
 40
0
 40
0
 40
0
 40
1
 40
1
 40
1
 40
1
 10
190.003503
 20
34.792001
 30
0.0
 10
190.003503
 20
37.381311
 30
0.0
 10
191.393223
 20
41.120061
 30
0.0
 10
191.393223
 20
41.120061
 30
0.0
  0
LWPOLYLINE
  5
14c
100
AcDbEntity
  8
Ebene_1
 62
1
100
AcDbPolyline
 90
2
 70
0
 10
185.576753
 20
25.711651
 30
0.0
 10
191.410773
 20
28.504691
 30
0.0
  0
SPLINE
  5
14d
100
AcDbEntity
  8
Ebene_1
 62
1
100
AcDbSpline
 70
8
 71
3
 72
8
 73
4
 74
0
 40
0
 40
0
 40
0
 40
0
 40
1
 40
1
 40
1
 40
1
 10
185.510333
 20
43.787931
 30
0.0
 10
184.981733
 20
42.339571
 30
0.0
 10
184.577293
 20
40.840221
 30
0.0
 10
184.355443
 20
39.280461
 30
0.0
  0
LWPOLYLINE
  5
14e
100
AcDbEntity
  8
Ebene_1
 62
1
100
AcDbPolyline
 90
2
 70
0
 10
191.393223
 20
41.120061
 30
0.0
 10
185.510333
 20
43.787931
 30
0.0
  0
SPLINE
  5
14f
100
AcDbEntity
  8
Ebene_1
 62
1
100
AcDbSpline
 70
8
 71
3
 72
8
 73
4
 74
0
 40
0
 40
0
 40
0
 40
0
 40
1
 40
1
 40
1
 40
1
 10
184.601193
 20
53.159511
 30
0.0
 10
184.867753
 20
51.669281
 30
0.0
 10
185.261293
 20
50.217501
 30
0.0
 10
185.771473
 20
48.813521
 30
0.0
  0
LWPOLYLINE
  5
150
100
AcDbEntity
  8
Ebene_1
 62
1
100
AcDbPolyline
 90
4
 70
0
 10
184.355443
 20
39.280461
 30
0.0
 10
180.991263
 20
39.260761
 30
0.0
 10
180.995263
 20
53.207811
 30
0.0
 10
184.601193
 20
53.159511
 30
0.0
  0
SPLINE
  5
151
100
AcDbEntity
  8
Ebene_1
 62
1
100
AcDbSpline
 70
8
 71
3
 72
8
 73
4
 74
0
 40
0
 40
0
 40
0
 40
0
 40
1
 40
1
 40
1
 40
1
 10
191.605493
 20
51.606561
 30
0.0
 10
190.744713
 20
53.872181
 30
0.0
 10
190.198223
 20
55.364331
 30
0.0
 10
190.198223
 20
57.893871
 30
0.0
  0
SPLINE
  5
152
100
AcDbEntity
  8
Ebene_1
 62
1
100
AcDbSpline
 70
8
 71
3
 72
8
 73
4
 74
0
 40
0
 40
0
 40
0
 40
0
 40
1
 40
1
 40
1
 40
1
 10
190.198223
 20
57.893871
 30
0.0
 10
190.198223
 20
60.483181
 30
0.0
 10
191.587943
 20
64.221931
 30
0.0
 10
191.587943
 20
64.221931
 30
0.0
  0
LWPOLYLINE
  5
153
100
AcDbEntity
  8
Ebene_1
 62
1
100
AcDbPolyline
 90
2
 70
0
 10
185.771473
 20
48.813521
 30
0.0
 10
191.605493
 20
51.606561
 30
0.0
  0
SPLINE
  5
154
100
AcDbEntity
  8
Ebene_1
 62
1
100
AcDbSpline
 70
8
 71
3
 72
8
 73
4
 74
0
 40
0
 40
0
 40
0
 40
0
 40
1
 40
1
 40
1
 40
1
 10
185.705053
 20
66.889801
 30
0.0
 10
185.176453
 20
65.441441
 30
0.0
 10
184.772013
 20
63.942091
 30
0.0
 10
184.550163
 20
62.382331
 30
0.0
  0
LWPOLYLINE
  5
155
100
AcDbEntity
  8
Ebene_1
 62
1
100
AcDbPolyline
 90
2
 70
0
 10
191.587943
 20
64.221931
 30
0.0
 10
185.705053
 20
66.889801
 30
0.0
  0
SPLINE
  5
156
100
AcDbEntity
  8
Ebene_1
 62
1
100
AcDbSpline
 70
8
 71
3
 72
8
 73
4
 74
0
 40
0
 40
0
 40
0
 40
0
 40
1
 40
1
 40
1
 40
1
 10
184.733503
 20
75.629741
 30
0.0
 10
185.000063
 20
74.139511
 30
0.0
 10
185.393603
 20
72.687731
 30
0.0
 10
185.903783
 20
71.283751
 30
0.0
  0
LWPOLYLINE
  5
157
100
AcDbEntity
  8
Ebene_1
 62
1
100
AcDbPolyline
 90
4
 70
0
 10
184.550163
 20
62.382331
 30
0.0
 10
180.995593
 20
62.362631
 30
0.0
 10
180.991593
 20
75.699741
 30
0.0
 10
184.733503
 20
75.629741
 30
0.0
  0
SPLINE
  5
158
100
AcDbEntity
  8
Ebene_1
 62
1
100
AcDbSpline
 70
8
 71
3
 72
8
 73
4
 74
0
 40
0
 40
0
 40
0
 40
0
 40
1
 40
1
 40
1
 40
1
 10
191.737803
 20
74.076791
 30
0.0
 10
190.877023
 20
76.342411
 30
0.0
 10
190.330533
 20
77.834561
 30
0.0
 10
190.330533
 20
80.364101
 30
0.0
  0
SPLINE
  5
159
100
AcDbEntity
  8
Ebene_1
 62
1
100
AcDbSpline
 70
8
 71
3
 72
8
 73
4
 74
0
 40
0
 40
0
 40
0
 40
0
 40
1
 40
1
 40
1
 40
1
 10
190.330533
 20
80.364101
 30
0.0
 10
190.330533
 20
82.953411
 30
0.0
 10
191.720253
 20
86.692161
 30
0.0
 10
191.720253
 20
86.692161
 30
0.0
  0
LWPOLYLINE
  5
15a
100
AcDbEntity
  8
Ebene_1
 62
1
100
AcDbPolyline
 90
2
 70
0
 10
185.903783
 20
71.283751
 30
0.0
 10
191.737803
 20
74.076791
 30
0.0
  0
SPLINE
  5
15b
100
AcDbEntity
  8
Ebene_1
 62
1
100
AcDbSpline
 70
8
 71
3
 72
8
 73
4
 74
0
 40
0
 40
0
 40
0
 40
0
 40
1
 40
1
 40
1
 40
1
 10
185.837363
 20
89.360031
 30
0.0
 10
185.308763
 20
87.911671
 30
0.0
 10
184.768013
 20
86.307221
 30
0.0
 10
184.546163
 20
84.747461
 30
0.0
  0
LWPOLYLINE
  5
15c
100
AcDbEntity
  8
Ebene_1
 62
1
100
AcDbPolyline
 90
2
 70
0
 10
191.720253
 20
86.692161
 30
0.0
 10
185.837363
 20
89.360031
 30
0.0
  0
SPLINE
  5
15d
100
AcDbEntity
  8
Ebene_1
 62
1
100
AcDbSpline
 70
8
 71
3
 72
8
 73
4
 74
0
 40
0
 40
0
 40
0
 40
0
 40
1
 40
1
 40
1
 40
1
 10
184.601493
 20
99.126751
 30
0.0
 10
184.868053
 20
97.636521
 30
0.0
 10
185.261593
 20
96.184741
 30
0.0
 10
185.771773
 20
94.780761
 30
0.0
  0
LWPOLYLINE
  5
15e
100
AcDbEntity
  8
Ebene_1
 62
1
100
AcDbPolyline
 90
4
 70
0
 10
184.546163
 20
84.747461
 30
0.0
 10
180.991593
 20
84.727761
 30
0.0
 10
180.991593
 20
99.026481
 30
0.0
 10
184.601493
 20
99.126751
 30
0.0
  0
SPLINE
  5
15f
100
AcDbEntity
  8
Ebene_1
 62
1
100
AcDbSpline
 70
8
 71
3
 72
8
 73
4
 74
0
 40
0
 40
0
 40
0
 40
0
 40
1
 40
1
 40
1
 40
1
 10
191.605793
 20
97.573801
 30
0.0
 10
190.745013
 20
99.839421
 30
0.0
 10
190.198523
 20
101.331571
 30
0.0
 10
190.198523
 20
103.861111
 30
0.0
  0
SPLINE
  5
160
100
AcDbEntity
  8
Ebene_1
 62
1
100
AcDbSpline
 70
8
 71
3
 72
8
 73
4
 74
0
 40
0
 40
0
 40
0
 40
0
 40
1
 40
1
 40
1
 40
1
 10
190.198523
 20
103.861111
 30
0.0
 10
190.198523
 20
106.450421
 30
0.0
 10
191.588243
 20
110.189171
 30
0.0
 10
191.588243
 20
110.189171
 30
0.0
  0
LWPOLYLINE
  5
161
100
AcDbEntity
  8
Ebene_1
 62
1
100
AcDbPolyline
 90
2
 70
0
 10
185.771773
 20
94.780761
 30
0.0
 10
191.605793
 20
97.573801
 30
0.0
  0
SPLINE
  5
162
100
AcDbEntity
  8
Ebene_1
 62
1
100
AcDbSpline
 70
8
 71
3
 72
8
 73
4
 74
0
 40
0
 40
0
 40
0
 40
0
 40
1
 40
1
 40
1
 40
1
 10
185.705353
 20
112.857041
 30
0.0
 10
185.176753
 20
111.408681
 30
0.0
 10
184.772313
 20
109.909331
 30
0.0
 10
184.550463
 20
108.349571
 30
0.0
  0
LWPOLYLINE
  5
163
100
AcDbEntity
  8
Ebene_1
 62
1
100
AcDbPolyline
 90
2
 70
0
 10
191.588243
 20
110.189171
 30
0.0
 10
185.705353
 20
112.857041
 30
0.0
  0
SPLINE
  5
164
100
AcDbEntity
  8
Ebene_1
 62
1
100
AcDbSpline
 70
8
 71
3
 72
8
 73
4
 74
0
 40
0
 40
0
 40
0
 40
0
 40
1
 40
1
 40
1
 40
1
 10
184.601493
 20
121.864541
 30
0.0
 10
184.868053
 20
120.374311
 30
0.0
 10
185.261593
 20
118.922521
 30
0.0
 10
185.771773
 20
117.518551
 30
0.0
  0
LWPOLYLINE
  5
165
100
AcDbEntity
  8
Ebene_1
 62
1
100
AcDbPolyline
 90
4
 70
0
 10
184.550463
 20
108.349571
 30
0.0
 10
180.995893
 20
108.329871
 30
0.0
 10
180.995563
 20
121.912841
 30
0.0
 10
184.601493
 20
121.864541
 30
0.0
  0
SPLINE
  5
166
100
AcDbEntity
  8
Ebene_1
 62
1
100
AcDbSpline
 70
8
 71
3
 72
8
 73
4
 74
0
 40
0
 40
0
 40
0
 40
0
 40
1
 40
1
 40
1
 40
1
 10
191.605793
 20
120.311591
 30
0.0
 10
190.745013
 20
122.577211
 30
0.0
 10
190.198523
 20
124.069361
 30
0.0
 10
190.198523
 20
126.598901
 30
0.0
  0
SPLINE
  5
167
100
AcDbEntity
  8
Ebene_1
 62
1
100
AcDbSpline
 70
8
 71
3
 72
8
 73
4
 74
0
 40
0
 40
0
 40
0
 40
0
 40
1
 40
1
 40
1
 40
1
 10
190.198523
 20
126.598901
 30
0.0
 10
190.198523
 20
129.188211
 30
0.0
 10
191.588243
 20
132.926961
 30
0.0
 10
191.588243
 20
132.926961
 30
0.0
  0
LWPOLYLINE
  5
168
100
AcDbEntity
  8
Ebene_1
 62
1
100
AcDbPolyline
 90
2
 70
0
 10
185.771773
 20
117.518551
 30
0.0
 10
191.605793
 20
120.311591
 30
0.0
  0
SPLINE
  5
169
100
AcDbEntity
  8
Ebene_1
 62
1
100
AcDbSpline
 70
8
 71
3
 72
8
 73
4
 74
0
 40
0
 40
0
 40
0
 40
0
 40
1
 40
1
 40
1
 40
1
 10
185.705353
 20
135.594831
 30
0.0
 10
185.176753
 20
134.146471
 30
0.0
 10
184.772313
 20
132.647121
 30
0.0
 10
184.550463
 20
131.087361
 30
0.0
  0
LWPOLYLINE
  5
16a
100
AcDbEntity
  8
Ebene_1
 62
1
100
AcDbPolyline
 90
2
 70
0
 10
191.588243
 20
132.926961
 30
0.0
 10
185.705353
 20
135.594831
 30
0.0
  0
SPLINE
  5
16b
100
AcDbEntity
  8
Ebene_1
 62
1
100
AcDbSpline
 70
8
 71
3
 72
8
 73
4
 74
0
 40
0
 40
0
 40
0
 40
0
 40
1
 40
1
 40
1
 40
1
 10
184.601493
 20
144.971111
 30
0.0
 10
184.868053
 20
143.480881
 30
0.0
 10
185.261593
 20
142.029101
 30
0.0
 10
185.771773
 20
140.625121
 30
0.0
  0
LWPOLYLINE
  5
16c
100
AcDbEntity
  8
Ebene_1
 62
1
100
AcDbPolyline
 90
4
 70
0
 10
184.550463
 20
131.087361
 30
0.0
 10
180.995883
 20
131.055761
 30
0.0
 10
180.995883
 20
145.079121
 30
0.0
 10
184.601493
 20
144.971111
 30
0.0
  0
SPLINE
  5
16d
100
AcDbEntity
  8
Ebene_1
 62
1
100
AcDbSpline
 70
8
 71
3
 72
8
 73
4
 74
0
 40
0
 40
0
 40
0
 40
0
 40
1
 40
1
 40
1
 40
1
 10
191.605793
 20
143.418161
 30
0.0
 10
190.745013
 20
145.683781
 30
0.0
 10
190.198523
 20
147.175931
 30
0.0
 10
190.198523
 20
149.705481
 30
0.0
  0
SPLINE
  5
16e
100
AcDbEntity
  8
Ebene_1
 62
1
100
AcDbSpline
 70
8
 71
3
 72
8
 73
4
 74
0
 40
0
 40
0
 40
0
 40
0
 40
1
 40
1
 40
1
 40
1
 10
190.198523
 20
149.705481
 30
0.0
 10
190.198523
 20
152.294791
 30
0.0
 10
191.588243
 20
156.033531
 30
0.0
 10
191.588243
 20
156.033531
 30
0.0
  0
LWPOLYLINE
  5
16f
100
AcDbEntity
  8
Ebene_1
 62
1
100
AcDbPolyline
 90
2
 70
0
 10
185.771773
 20
140.625121
 30
0.0
 10
191.605793
 20
143.418161
 30
0.0
  0
SPLINE
  5
170
100
AcDbEntity
  8
Ebene_1
 62
1
100
AcDbSpline
 70
8
 71
3
 72
8
 73
4
 74
0
 40
0
 40
0
 40
0
 40
0
 40
1
 40
1
 40
1
 40
1
 10
185.705353
 20
158.701401
 30
0.0
 10
185.176753
 20
157.253051
 30
0.0
 10
184.772313
 20
155.753691
 30
0.0
 10
184.550463
 20
154.193931
 30
0.0
  0
LWPOLYLINE
  5
171
100
AcDbEntity
  8
Ebene_1
 62
1
100
AcDbPolyline
 90
2
 70
0
 10
191.588243
 20
156.033531
 30
0.0
 10
185.705353
 20
158.701401
 30
0.0
  0
SPLINE
  5
172
100
AcDbEntity
  8
Ebene_1
 62
1
100
AcDbSpline
 70
8
 71
3
 72
8
 73
4
 74
0
 40
0
 40
0
 40
0
 40
0
 40
1
 40
1
 40
1
 40
1
 10
181.279383
 20
154.296951
 30
0.0
 10
181.279383
 20
157.678841
 30
0.0
 10
181.084593
 20
162.415241
 30
0.0
 10
181.150573
 20
168.246051
 30
0.0
  0
SPLINE
  5
173
100
AcDbEntity
  8
Ebene_1
 62
1
100
AcDbSpline
 70
8
 71
3
 72
8
 73
4
 74
0
 40
0
 40
0
 40
0
 40
0
 40
1
 40
1
 40
1
 40
1
 10
181.217673
 20
177.318001
 30
0.0
 10
181.220673
 20
178.252271
 30
0.0
 10
181.219673
 20
180.072971
 30
0.0
 10
181.219673
 20
180.072971
 30
0.0
  0
LWPOLYLINE
  5
174
100
AcDbEntity
  8
Ebene_1
 62
1
100
AcDbPolyline
 90
2
 70
0
 10
184.550463
 20
154.193931
 30
0.0
 10
181.279383
 20
154.296951
 30
0.0
  0
SPLINE
  5
175
100
AcDbEntity
  8
Ebene_1
 62
1
100
AcDbSpline
 70
8
 71
3
 72
8
 73
4
 74
0
 40
0
 40
0
 40
0
 40
0
 40
1
 40
1
 40
1
 40
1
 10
173.587183
 20
192.935181
 30
0.0
 10
173.633183
 20
197.327161
 30
0.0
 10
171.478943
 20
200.158047
 30
0.0
 10
166.316493
 20
200.101334
 30
0.0
  0
LWPOLYLINE
  5
176
100
AcDbEntity
  8
Ebene_1
 62
1
100
AcDbPolyline
 90
3
 70
0
 10
181.219673
 20
180.072971
 30
0.0
 10
173.452703
 20
180.106971
 30
0.0
 10
173.587183
 20
192.935181
 30
0.0
  0
SPLINE
  5
177
100
AcDbEntity
  8
Ebene_1
 62
1
100
AcDbSpline
 70
8
 71
3
 72
8
 73
4
 74
0
 40
0
 40
0
 40
0
 40
0
 40
1
 40
1
 40
1
 40
1
 10
25.692562
 20
200.101336
 30
0.0
 10
21.551307
 20
200.073806
 30
0.0
 10
18.135449
 20
197.162621
 30
0.0
 10
18.182642
 20
192.531611
 30
0.0
  0
LWPOLYLINE
  5
178
100
AcDbEntity
  8
Ebene_1
 62
1
100
AcDbPolyline
 90
2
 70
0
 10
166.316493
 20
200.101334
 30
0.0
 10
25.692562
 20
200.101336
 30
0.0
  0
LWPOLYLINE
  5
179
100
AcDbEntity
  8
Ebene_1
 62
1
100
AcDbPolyline
 90
4
 70
0
 10
18.182642
 20
192.531611
 30
0.0
 10
18.334825
 20
180.011151
 30
0.0
 10
10.748884
 20
180.072751
 30
0.0
 10
10.743214
 20
177.294441
 30
0.0
  0
LWPOLYLINE
  5
17a
100
AcDbEntity
  8
Ebene_1
 62
1
100
AcDbPolyline
 90
2
 70
0
 10
10.724653
 20
168.199401
 30
0.0
 10
10.774403
 20
154.174231
 30
0.0
  0
LWPOLYLINE
  5
17b
100
AcDbEntity
  8
Ebene_1
 62
1
100
AcDbPolyline
 90
2
 70
0
 10
10.774733
 20
0.032491
 30
0.0
 10
175.703893
 20
0.032491
 30
0.0
  0
LWPOLYLINE
  5
17c
100
AcDbEntity
  8
Ebene_1
 62
1
100
AcDbPolyline
 90
2
 70
0
 10
10.774733
 20
6.833231
 30
0.0
 10
10.774733
 20
0.032491
 30
0.0
  0
SPLINE
  5
17d
100
AcDbEntity
  8
Ebene_1
 62
1
100
AcDbSpline
 70
8
 71
3
 72
8
 73
4
 74
0
 40
0
 40
0
 40
0
 40
0
 40
1
 40
1
 40
1
 40
1
 10
7.219836
 20
154.193931
 30
0.0
 10
6.997986
 20
155.753691
 30
0.0
 10
6.593546
 20
157.253051
 30
0.0
 10
6.064946
 20
158.701401
 30
0.0
  0
LWPOLYLINE
  5
17e
100
AcDbEntity
  8
Ebene_1
 62
1
100
AcDbPolyline
 90
2
 70
0
 10
10.774403
 20
154.174231
 30
0.0
 10
7.219836
 20
154.193931
 30
0.0
  0
SPLINE
  5
17f
100
AcDbEntity
  8
Ebene_1
 62
1
100
AcDbSpline
 70
8
 71
3
 72
8
 73
4
 74
0
 40
0
 40
0
 40
0
 40
0
 40
1
 40
1
 40
1
 40
1
 10
0.182059
 20
156.033531
 30
0.0
 10
0.182059
 20
156.033531
 30
0.0
 10
1.571779
 20
152.294791
 30
0.0
 10
1.571779
 20
149.705481
 30
0.0
  0
SPLINE
  5
180
100
AcDbEntity
  8
Ebene_1
 62
1
100
AcDbSpline
 70
8
 71
3
 72
8
 73
4
 74
0
 40
0
 40
0
 40
0
 40
0
 40
1
 40
1
 40
1
 40
1
 10
1.571779
 20
149.705481
 30
0.0
 10
1.571779
 20
147.175931
 30
0.0
 10
1.025289
 20
145.683781
 30
0.0
 10
0.164509
 20
143.418161
 30
0.0
  0
LWPOLYLINE
  5
181
100
AcDbEntity
  8
Ebene_1
 62
1
100
AcDbPolyline
 90
2
 70
0
 10
6.064946
 20
158.701401
 30
0.0
 10
0.182059
 20
156.033531
 30
0.0
  0
SPLINE
  5
182
100
AcDbEntity
  8
Ebene_1
 62
1
100
AcDbSpline
 70
8
 71
3
 72
8
 73
4
 74
0
 40
0
 40
0
 40
0
 40
0
 40
1
 40
1
 40
1
 40
1
 10
5.998526
 20
140.625121
 30
0.0
 10
6.508706
 20
142.029101
 30
0.0
 10
6.902246
 20
143.480881
 30
0.0
 10
7.168806
 20
144.971111
 30
0.0
  0
LWPOLYLINE
  5
183
100
AcDbEntity
  8
Ebene_1
 62
1
100
AcDbPolyline
 90
2
 70
0
 10
0.164509
 20
143.418161
 30
0.0
 10
5.998526
 20
140.625121
 30
0.0
  0
SPLINE
  5
184
100
AcDbEntity
  8
Ebene_1
 62
1
100
AcDbSpline
 70
8
 71
3
 72
8
 73
4
 74
0
 40
0
 40
0
 40
0
 40
0
 40
1
 40
1
 40
1
 40
1
 10
7.219836
 20
131.087361
 30
0.0
 10
6.997986
 20
132.647121
 30
0.0
 10
6.593546
 20
134.146471
 30
0.0
 10
6.064946
 20
135.594831
 30
0.0
  0
LWPOLYLINE
  5
185
100
AcDbEntity
  8
Ebene_1
 62
1
100
AcDbPolyline
 90
4
 70
0
 10
7.168806
 20
144.971111
 30
0.0
 10
10.774413
 20
145.079121
 30
0.0
 10
10.774413
 20
131.055761
 30
0.0
 10
7.219836
 20
131.087361
 30
0.0
  0
SPLINE
  5
186
100
AcDbEntity
  8
Ebene_1
 62
1
100
AcDbSpline
 70
8
 71
3
 72
8
 73
4
 74
0
 40
0
 40
0
 40
0
 40
0
 40
1
 40
1
 40
1
 40
1
 10
0.182059
 20
132.926961
 30
0.0
 10
0.182059
 20
132.926961
 30
0.0
 10
1.571779
 20
129.188211
 30
0.0
 10
1.571779
 20
126.598901
 30
0.0
  0
SPLINE
  5
187
100
AcDbEntity
  8
Ebene_1
 62
1
100
AcDbSpline
 70
8
 71
3
 72
8
 73
4
 74
0
 40
0
 40
0
 40
0
 40
0
 40
1
 40
1
 40
1
 40
1
 10
1.571779
 20
126.598901
 30
0.0
 10
1.571779
 20
124.069361
 30
0.0
 10
1.025289
 20
122.577211
 30
0.0
 10
0.164509
 20
120.311591
 30
0.0
  0
LWPOLYLINE
  5
188
100
AcDbEntity
  8
Ebene_1
 62
1
100
AcDbPolyline
 90
2
 70
0
 10
6.064946
 20
135.594831
 30
0.0
 10
0.182059
 20
132.926961
 30
0.0
  0
SPLINE
  5
189
100
AcDbEntity
  8
Ebene_1
 62
1
100
AcDbSpline
 70
8
 71
3
 72
8
 73
4
 74
0
 40
0
 40
0
 40
0
 40
0
 40
1
 40
1
 40
1
 40
1
 10
5.998526
 20
117.518551
 30
0.0
 10
6.508706
 20
118.922521
 30
0.0
 10
6.902246
 20
120.374311
 30
0.0
 10
7.168806
 20
121.864541
 30
0.0
  0
LWPOLYLINE
  5
18a
100
AcDbEntity
  8
Ebene_1
 62
1
100
AcDbPolyline
 90
2
 70
0
 10
0.164509
 20
120.311591
 30
0.0
 10
5.998526
 20
117.518551
 30
0.0
  0
SPLINE
  5
18b
100
AcDbEntity
  8
Ebene_1
 62
1
100
AcDbSpline
 70
8
 71
3
 72
8
 73
4
 74
0
 40
0
 40
0
 40
0
 40
0
 40
1
 40
1
 40
1
 40
1
 10
7.219836
 20
108.349571
 30
0.0
 10
6.997986
 20
109.909331
 30
0.0
 10
6.593546
 20
111.408681
 30
0.0
 10
6.064946
 20
112.857041
 30
0.0
  0
LWPOLYLINE
  5
18c
100
AcDbEntity
  8
Ebene_1
 62
1
100
AcDbPolyline
 90
4
 70
0
 10
7.168806
 20
121.864541
 30
0.0
 10
10.774733
 20
121.912841
 30
0.0
 10
10.774403
 20
108.329871
 30
0.0
 10
7.219836
 20
108.349571
 30
0.0
  0
SPLINE
  5
18d
100
AcDbEntity
  8
Ebene_1
 62
1
100
AcDbSpline
 70
8
 71
3
 72
8
 73
4
 74
0
 40
0
 40
0
 40
0
 40
0
 40
1
 40
1
 40
1
 40
1
 10
0.182059
 20
110.189171
 30
0.0
 10
0.182059
 20
110.189171
 30
0.0
 10
1.571779
 20
106.450421
 30
0.0
 10
1.571779
 20
103.861111
 30
0.0
  0
SPLINE
  5
18e
100
AcDbEntity
  8
Ebene_1
 62
1
100
AcDbSpline
 70
8
 71
3
 72
8
 73
4
 74
0
 40
0
 40
0
 40
0
 40
0
 40
1
 40
1
 40
1
 40
1
 10
1.571779
 20
103.861111
 30
0.0
 10
1.571779
 20
101.331571
 30
0.0
 10
1.025289
 20
99.839421
 30
0.0
 10
0.164509
 20
97.573801
 30
0.0
  0
LWPOLYLINE
  5
18f
100
AcDbEntity
  8
Ebene_1
 62
1
100
AcDbPolyline
 90
2
 70
0
 10
6.064946
 20
112.857041
 30
0.0
 10
0.182059
 20
110.189171
 30
0.0
  0
SPLINE
  5
190
100
AcDbEntity
  8
Ebene_1
 62
1
100
AcDbSpline
 70
8
 71
3
 72
8
 73
4
 74
0
 40
0
 40
0
 40
0
 40
0
 40
1
 40
1
 40
1
 40
1
 10
5.998526
 20
94.780761
 30
0.0
 10
6.508706
 20
96.184741
 30
0.0
 10
6.902246
 20
97.636521
 30
0.0
 10
7.168806
 20
99.126751
 30
0.0
  0
LWPOLYLINE
  5
191
100
AcDbEntity
  8
Ebene_1
 62
1
100
AcDbPolyline
 90
2
 70
0
 10
0.164509
 20
97.573801
 30
0.0
 10
5.998526
 20
94.780761
 30
0.0
  0
SPLINE
  5
192
100
AcDbEntity
  8
Ebene_1
 62
1
100
AcDbSpline
 70
8
 71
3
 72
8
 73
4
 74
0
 40
0
 40
0
 40
0
 40
0
 40
1
 40
1
 40
1
 40
1
 10
7.224136
 20
84.747461
 30
0.0
 10
7.002286
 20
86.307221
 30
0.0
 10
6.461536
 20
87.911671
 30
0.0
 10
5.932936
 20
89.360031
 30
0.0
  0
LWPOLYLINE
  5
193
100
AcDbEntity
  8
Ebene_1
 62
1
100
AcDbPolyline
 90
4
 70
0
 10
7.168806
 20
99.126751
 30
0.0
 10
10.778703
 20
99.026481
 30
0.0
 10
10.778703
 20
84.727761
 30
0.0
 10
7.224136
 20
84.747461
 30
0.0
  0
SPLINE
  5
194
100
AcDbEntity
  8
Ebene_1
 62
1
100
AcDbSpline
 70
8
 71
3
 72
8
 73
4
 74
0
 40
0
 40
0
 40
0
 40
0
 40
1
 40
1
 40
1
 40
1
 10
0.050049
 20
86.692161
 30
0.0
 10
0.050049
 20
86.692161
 30
0.0
 10
1.439769
 20
82.953411
 30
0.0
 10
1.439769
 20
80.364101
 30
0.0
  0
SPLINE
  5
195
100
AcDbEntity
  8
Ebene_1
 62
1
100
AcDbSpline
 70
8
 71
3
 72
8
 73
4
 74
0
 40
0
 40
0
 40
0
 40
0
 40
1
 40
1
 40
1
 40
1
 10
1.439769
 20
80.364101
 30
0.0
 10
1.439769
 20
77.834561
 30
0.0
 10
0.893279
 20
76.342411
 30
0.0
 10
0.032499
 20
74.076791
 30
0.0
  0
LWPOLYLINE
  5
196
100
AcDbEntity
  8
Ebene_1
 62
1
100
AcDbPolyline
 90
2
 70
0
 10
5.932936
 20
89.360031
 30
0.0
 10
0.050049
 20
86.692161
 30
0.0
  0
SPLINE
  5
197
100
AcDbEntity
  8
Ebene_1
 62
1
100
AcDbSpline
 70
8
 71
3
 72
8
 73
4
 74
0
 40
0
 40
0
 40
0
 40
0
 40
1
 40
1
 40
1
 40
1
 10
5.866516
 20
71.283751
 30
0.0
 10
6.376696
 20
72.687731
 30
0.0
 10
6.770236
 20
74.139511
 30
0.0
 10
7.036796
 20
75.629741
 30
0.0
  0
LWPOLYLINE
  5
198
100
AcDbEntity
  8
Ebene_1
 62
1
100
AcDbPolyline
 90
2
 70
0
 10
0.032499
 20
74.076791
 30
0.0
 10
5.866516
 20
71.283751
 30
0.0
  0
SPLINE
  5
199
100
AcDbEntity
  8
Ebene_1
 62
1
100
AcDbSpline
 70
8
 71
3
 72
8
 73
4
 74
0
 40
0
 40
0
 40
0
 40
0
 40
1
 40
1
 40
1
 40
1
 10
7.220136
 20
62.382331
 30
0.0
 10
6.998286
 20
63.942091
 30
0.0
 10
6.593846
 20
65.441441
 30
0.0
 10
6.065246
 20
66.889801
 30
0.0
  0
LWPOLYLINE
  5
19a
100
AcDbEntity
  8
Ebene_1
 62
1
100
AcDbPolyline
 90
4
 70
0
 10
7.036796
 20
75.629741
 30
0.0
 10
10.778703
 20
75.699741
 30
0.0
 10
10.774703
 20
62.362631
 30
0.0
 10
7.220136
 20
62.382331
 30
0.0
  0
SPLINE
  5
19b
100
AcDbEntity
  8
Ebene_1
 62
1
100
AcDbSpline
 70
8
 71
3
 72
8
 73
4
 74
0
 40
0
 40
0
 40
0
 40
0
 40
1
 40
1
 40
1
 40
1
 10
0.182359
 20
64.221931
 30
0.0
 10
0.182359
 20
64.221931
 30
0.0
 10
1.572079
 20
60.483181
 30
0.0
 10
1.572079
 20
57.893871
 30
0.0
  0
SPLINE
  5
19c
100
AcDbEntity
  8
Ebene_1
 62
1
100
AcDbSpline
 70
8
 71
3
 72
8
 73
4
 74
0
 40
0
 40
0
 40
0
 40
0
 40
1
 40
1
 40
1
 40
1
 10
1.572079
 20
57.893871
 30
0.0
 10
1.572079
 20
55.364331
 30
0.0
 10
1.025589
 20
53.872181
 30
0.0
 10
0.164809
 20
51.606561
 30
0.0
  0
LWPOLYLINE
  5
19d
100
AcDbEntity
  8
Ebene_1
 62
1
100
AcDbPolyline
 90
2
 70
0
 10
6.065246
 20
66.889801
 30
0.0
 10
0.182359
 20
64.221931
 30
0.0
  0
SPLINE
  5
19e
100
AcDbEntity
  8
Ebene_1
 62
1
100
AcDbSpline
 70
8
 71
3
 72
8
 73
4
 74
0
 40
0
 40
0
 40
0
 40
0
 40
1
 40
1
 40
1
 40
1
 10
5.998826
 20
48.813521
 30
0.0
 10
6.509006
 20
50.217501
 30
0.0
 10
6.902546
 20
51.669281
 30
0.0
 10
7.169106
 20
53.159511
 30
0.0
  0
LWPOLYLINE
  5
19f
100
AcDbEntity
  8
Ebene_1
 62
1
100
AcDbPolyline
 90
2
 70
0
 10
0.164809
 20
51.606561
 30
0.0
 10
5.998826
 20
48.813521
 30
0.0
  0
SPLINE
  5
1a0
100
AcDbEntity
  8
Ebene_1
 62
1
100
AcDbSpline
 70
8
 71
3
 72
8
 73
4
 74
0
 40
0
 40
0
 40
0
 40
0
 40
1
 40
1
 40
1
 40
1
 10
7.414856
 20
39.280381
 30
0.0
 10
7.193006
 20
40.840141
 30
0.0
 10
6.788566
 20
42.339491
 30
0.0
 10
6.259966
 20
43.787851
 30
0.0
  0
LWPOLYLINE
  5
1a1
100
AcDbEntity
  8
Ebene_1
 62
1
100
AcDbPolyline
 90
4
 70
0
 10
7.169106
 20
53.159511
 30
0.0
 10
10.775033
 20
53.207731
 30
0.0
 10
10.779033
 20
39.260681
 30
0.0
 10
7.414856
 20
39.280381
 30
0.0
  0
SPLINE
  5
1a2
100
AcDbEntity
  8
Ebene_1
 62
1
100
AcDbSpline
 70
8
 71
3
 72
8
 73
4
 74
0
 40
0
 40
0
 40
0
 40
0
 40
1
 40
1
 40
1
 40
1
 10
0.377079
 20
41.119981
 30
0.0
 10
0.377079
 20
41.119981
 30
0.0
 10
1.766799
 20
37.381231
 30
0.0
 10
1.766799
 20
34.791921
 30
0.0
  0
SPLINE
  5
1a3
100
AcDbEntity
  8
Ebene_1
 62
1
100
AcDbSpline
 70
8
 71
3
 72
8
 73
4
 74
0
 40
0
 40
0
 40
0
 40
0
 40
1
 40
1
 40
1
 40
1
 10
1.766799
 20
34.791921
 30
0.0
 10
1.766799
 20
32.262381
 30
0.0
 10
1.220309
 20
30.770231
 30
0.0
 10
0.359529
 20
28.504611
 30
0.0
  0
LWPOLYLINE
  5
1a4
100
AcDbEntity
  8
Ebene_1
 62
1
100
AcDbPolyline
 90
2
 70
0
 10
6.259966
 20
43.787851
 30
0.0
 10
0.377079
 20
41.119981
 30
0.0
  0
SPLINE
  5
1a5
100
AcDbEntity
  8
Ebene_1
 62
1
100
AcDbSpline
 70
8
 71
3
 72
8
 73
4
 74
0
 40
0
 40
0
 40
0
 40
0
 40
1
 40
1
 40
1
 40
1
 10
6.193546
 20
25.711571
 30
0.0
 10
6.703726
 20
27.115551
 30
0.0
 10
7.097266
 20
28.567331
 30
0.0
 10
7.363826
 20
30.057561
 30
0.0
  0
LWPOLYLINE
  5
1a6
100
AcDbEntity
  8
Ebene_1
 62
1
100
AcDbPolyline
 90
2
 70
0
 10
0.359529
 20
28.504611
 30
0.0
 10
6.193546
 20
25.711571
 30
0.0
  0
SPLINE
  5
1a7
100
AcDbEntity
  8
Ebene_1
 62
1
100
AcDbSpline
 70
8
 71
3
 72
8
 73
4
 74
0
 40
0
 40
0
 40
0
 40
0
 40
1
 40
1
 40
1
 40
1
 10
7.219646
 20
16.169671
 30
0.0
 10
6.997796
 20
17.756921
 30
0.0
 10
6.593356
 20
19.282701
 30
0.0
 10
6.064756
 20
20.756591
 30
0.0
  0
LWPOLYLINE
  5
1a8
100
AcDbEntity
  8
Ebene_1
 62
1
100
AcDbPolyline
 90
4
 70
0
 10
7.363826
 20
30.057561
 30
0.0
 10
10.779033
 20
30.084161
 30
0.0
 10
10.774033
 20
16.149571
 30
0.0
 10
7.219646
 20
16.169671
 30
0.0
  0
SPLINE
  5
1a9
100
AcDbEntity
  8
Ebene_1
 62
1
100
AcDbSpline
 70
8
 71
3
 72
8
 73
4
 74
0
 40
0
 40
0
 40
0
 40
0
 40
1
 40
1
 40
1
 40
1
 10
0.181869
 20
18.060351
 30
0.0
 10
1.081979
 20
15.708491
 30
0.0
 10
1.571589
 20
14.237041
 30
0.0
 10
1.571589
 20
11.602091
 30
0.0
  0
SPLINE
  5
1aa
100
AcDbEntity
  8
Ebene_1
 62
1
100
AcDbSpline
 70
8
 71
3
 72
8
 73
4
 74
0
 40
0
 40
0
 40
0
 40
0
 40
1
 40
1
 40
1
 40
1
 10
1.571589
 20
11.602091
 30
0.0
 10
1.571589
 20
9.027941
 30
0.0
 10
1.025099
 20
7.490831
 30
0.0
 10
0.164319
 20
5.185271
 30
0.0
  0
LWPOLYLINE
  5
1ab
100
AcDbEntity
  8
Ebene_1
 62
1
100
AcDbPolyline
 90
2
 70
0
 10
6.064756
 20
20.756591
 30
0.0
 10
0.181869
 20
18.060351
 30
0.0
  0
SPLINE
  5
1ac
100
AcDbEntity
  8
Ebene_1
 62
1
100
AcDbSpline
 70
8
 71
3
 72
8
 73
4
 74
0
 40
0
 40
0
 40
0
 40
0
 40
1
 40
1
 40
1
 40
1
 10
5.998336
 20
2.361651
 30
0.0
 10
6.508516
 20
3.790381
 30
0.0
 10
6.902056
 20
5.267761
 30
0.0
 10
7.168616
 20
6.784261
 30
0.0
  0
LWPOLYLINE
  5
1ad
100
AcDbEntity
  8
Ebene_1
 62
1
100
AcDbPolyline
 90
2
 70
0
 10
0.164319
 20
5.185271
 30
0.0
 10
5.998336
 20
2.361651
 30
0.0
  0
LWPOLYLINE
  5
1ae
100
AcDbEntity
  8
Ebene_1
 62
1
100
AcDbPolyline
 90
2
 70
0
 10
7.168616
 20
6.784261
 30
0.0
 10
10.774543
 20
6.833361
 30
0.0
  0
SPLINE
  5
1af
100
AcDbEntity
  8
Ebene_1
 62
1
100
AcDbSpline
 70
8
 71
3
 72
8
 73
4
 74
0
 40
0
 40
0
 40
0
 40
0
 40
1
 40
1
 40
1
 40
1
 10
7.119043
 20
168.091391
 30
0.0
 10
6.852483
 20
166.601161
 30
0.0
 10
6.458943
 20
165.149371
 30
0.0
 10
5.948763
 20
163.745401
 30
0.0
  0
LWPOLYLINE
  5
1b0
100
AcDbEntity
  8
Ebene_1
 62
1
100
AcDbPolyline
 90
2
 70
0
 10
10.724653
 20
168.199401
 30
0.0
 10
7.119043
 20
168.091391
 30
0.0
  0
SPLINE
  5
1b1
100
AcDbEntity
  8
Ebene_1
 62
1
100
AcDbSpline
 70
8
 71
3
 72
8
 73
4
 74
0
 40
0
 40
0
 40
0
 40
0
 40
1
 40
1
 40
1
 40
1
 10
0.114746
 20
166.538441
 30
0.0
 10
0.975526
 20
168.804061
 30
0.0
 10
1.522026
 20
170.296211
 30
0.0
 10
1.522026
 20
172.825751
 30
0.0
  0
SPLINE
  5
1b2
100
AcDbEntity
  8
Ebene_1
 62
1
100
AcDbSpline
 70
8
 71
3
 72
8
 73
4
 74
0
 40
0
 40
0
 40
0
 40
0
 40
1
 40
1
 40
1
 40
1
 10
1.522026
 20
172.825751
 30
0.0
 10
1.522026
 20
175.415071
 30
0.0
 10
0.132296
 20
179.153811
 30
0.0
 10
0.132296
 20
179.153811
 30
0.0
  0
LWPOLYLINE
  5
1b3
100
AcDbEntity
  8
Ebene_1
 62
1
100
AcDbPolyline
 90
2
 70
0
 10
5.948763
 20
163.745401
 30
0.0
 10
0.114746
 20
166.538441
 30
0.0
  0
SPLINE
  5
1b4
100
AcDbEntity
  8
Ebene_1
 62
1
100
AcDbSpline
 70
8
 71
3
 72
8
 73
4
 74
0
 40
0
 40
0
 40
0
 40
0
 40
1
 40
1
 40
1
 40
1
 10
6.015183
 20
181.821681
 30
0.0
 10
6.543783
 20
180.373331
 30
0.0
 10
6.948223
 20
178.873971
 30
0.0
 10
7.170073
 20
177.314211
 30
0.0
  0
LWPOLYLINE
  5
1b5
100
AcDbEntity
  8
Ebene_1
 62
1
100
AcDbPolyline
 90
2
 70
0
 10
0.132296
 20
179.153811
 30
0.0
 10
6.015183
 20
181.821681
 30
0.0
  0
LWPOLYLINE
  5
1b6
100
AcDbEntity
  8
Ebene_1
 62
1
100
AcDbPolyline
 90
2
 70
0
 10
7.170073
 20
177.314211
 30
0.0
 10
10.724643
 20
177.294511
 30
0.0
  0
ENDSEC
  0
SECTION
  2
OBJECTS
  0
DICTIONARY
  5
C
330
0
100
AcDbDictionary
  3
ACAD_GROUP
350
D
  3
ACAD_MLINESTYLE
350
17
  0
DICTIONARY
  5
D
330
C
100
AcDbDictionary
  0
DICTIONARY
  5
1A
330
C
100
AcDbDictionary
  0
DICTIONARY
  5
17
330
C
100
AcDbDictionary
  3
STANDARD
350
18
  0
DICTIONARY
  5
19
330
C
100
AcDbDictionary
  0
ENDSEC
  0
EOF
