  0
SECTION
  2
HEADER
  9
$ACADVER
  1
AC1014
  9
$HANDSEED
  5
FFFF
  9
$MEASUREMENT
 70
     1
  0
ENDSEC
  0
SECTION
  2
TABLES
  0
TABLE
  2
VPORT
  5
8
330
0
100
AcDbSymbolTable
 70
     4
  0
VPORT
  5
2E
330
8
100
AcDbSymbolTableRecord
100
AcDbViewportTableRecord
  2
*ACTIVE
 70
     0
 10
0.0
 20
0.0
 11
1.0
 21
1.0
 12
210.0
 22
148.5
 13
0.0
 23
0.0
 14
10.0
 24
10.0
 15
10.0
 25
10.0
 16
0.0
 26
0.0
 36
1.0
 17
0.0
 27
0.0
 37
0.0
 40
341.0
 41
1.24
 42
50.0
 43
0.0
 44
0.0
 50
0.0
 51
0.0
 71
     0
 72
   100
 73
     1
 74
     3
 75
     0
 76
     0
 77
     0
 78
     0
  0
ENDTAB
  0
TABLE
  2
LTYPE
  5
5
330
0
100
AcDbSymbolTable
 70
     1
  0
LTYPE
  5
14
330
5
100
AcDbSymbolTableRecord
100
AcDbLinetypeTableRecord
  2
BYBLOCK
 70
     0
  3

 72
    65
 73
     0
 40
0.0
  0
LTYPE
  5
15
330
5
100
AcDbSymbolTableRecord
100
AcDbLinetypeTableRecord
  2
BYLAYER
 70
     0
  3

 72
    65
 73
     0
 40
0.0
  0
LTYPE
  5
16
330
5
100
AcDbSymbolTableRecord
100
AcDbLinetypeTableRecord
  2
CONTINUOUS
 70
     0
  3
Solid line
 72
    65
 73
     0
 40
0.0
  0
ENDTAB
  0
TABLE
  2
LAYER
  5
2
100
AcDbSymbolTable
 70
2
  0
LAYER
  5
50
100
AcDbSymbolTableRecord
100
AcDbLayerTableRecord
  2
0
 70
0
  6
CONTINUOUS
  0
LAYER
  5
51
100
AcDbSymbolTableRecord
100
AcDbLayerTableRecord
  2
Ebene_1
 70
0
  6
CONTINUOUS
  0
ENDTAB
  0
TABLE
  2
STYLE
  5
3
330
0
100
AcDbSymbolTable
 70
     1
  0
STYLE
  5
11
330
3
100
AcDbSymbolTableRecord
100
AcDbTextStyleTableRecord
  2
STANDARD
 70
     0
 40
0.0
 41
1.0
 50
0.0
 71
     0
 42
2.5
  3
txt
  4

  0
ENDTAB
  0
TABLE
  2
VIEW
  5
6
330
0
100
AcDbSymbolTable
 70
     0
  0
ENDTAB
  0
TABLE
  2
UCS
  5
7
330
0
100
AcDbSymbolTable
 70
     0
  0
ENDTAB
  0
TABLE
  2
APPID
  5
9
330
0
100
AcDbSymbolTable
 70
     2
  0
APPID
  5
12
330
9
100
AcDbSymbolTableRecord
100
AcDbRegAppTableRecord
  2
ACAD
 70
     0
  0
ENDTAB
  0
TABLE
  2
DIMSTYLE
  5
A
330
0
100
AcDbSymbolTable
 70
     1
  0
DIMSTYLE
105
27
330
A
100
AcDbSymbolTableRecord
100
AcDbDimStyleTableRecord
  2
ISO-25
 70
     0
  3

  4

  5

  6

  7

 40
1.0
 41
2.5
 42
0.625
 43
3.75
 44
1.25
 45
0.0
 46
0.0
 47
0.0
 48
0.0
140
2.5
141
2.5
142
0.0
143
0.03937007874016
144
1.0
145
0.0
146
1.0
147
0.625
 71
     0
 72
     0
 73
     0
 74
     0
 75
     0
 76
     0
 77
     1
 78
     8
170
     0
171
     3
172
     1
173
     0
174
     0
175
     0
176
     0
177
     0
178
     0
270
     2
271
     2
272
     2
273
     2
274
     3
340
11
275
     0
280
     0
281
     0
282
     0
283
     0
284
     8
285
     0
286
     0
287
     3
288
     0
  0
ENDTAB
  0
TABLE
  2
BLOCK_RECORD
  5
1
330
0
100
AcDbSymbolTable
 70
     1
  0
BLOCK_RECORD
  5
1F
330
1
100
AcDbSymbolTableRecord
100
AcDbBlockTableRecord
  2
*MODEL_SPACE
  0
BLOCK_RECORD
  5
1B
330
1
100
AcDbSymbolTableRecord
100
AcDbBlockTableRecord
  2
*PAPER_SPACE
  0
ENDTAB
  0
ENDSEC
  0
SECTION
  2
BLOCKS
  0
BLOCK
  5
20
330
1F
100
AcDbEntity
  8
0
100
AcDbBlockBegin
  2
*MODEL_SPACE
 70
     0
 10
0.0
 20
0.0
 30
0.0
  3
*MODEL_SPACE
  1

  0
ENDBLK
  5
21
330
1F
100
AcDbEntity
  8
0
100
AcDbBlockEnd
  0
BLOCK
  5
1C
330
1B
100
AcDbEntity
 67
     1
  8
0
100
AcDbBlockBegin
  2
*PAPER_SPACE
  1

  0
ENDBLK
  5
1D
330
1B
100
AcDbEntity
 67
     1
  8
0
100
AcDbBlockEnd
  0
ENDSEC
  0
SECTION
  2
ENTITIES
  0
SPLINE
  5
100
100
AcDbEntity
  8
Ebene_1
 62
1
100
AcDbSpline
 70
8
 71
3
 72
8
 73
4
 74
0
 40
0
 40
0
 40
0
 40
0
 40
1
 40
1
 40
1
 40
1
 10
27.280471
 20
70.212005
 30
0.0
 10
27.280471
 20
69.536816
 30
0.0
 10
26.905998
 20
68.912915
 30
0.0
 10
26.298112
 20
68.575321
 30
0.0
  0
SPLINE
  5
101
100
AcDbEntity
  8
Ebene_1
 62
1
100
AcDbSpline
 70
8
 71
3
 72
8
 73
4
 74
0
 40
0
 40
0
 40
0
 40
0
 40
1
 40
1
 40
1
 40
1
 10
26.298112
 20
68.575321
 30
0.0
 10
25.690226
 20
68.237726
 30
0.0
 10
24.941280
 20
68.237726
 30
0.0
 10
24.333394
 20
68.575321
 30
0.0
  0
SPLINE
  5
102
100
AcDbEntity
  8
Ebene_1
 62
1
100
AcDbSpline
 70
8
 71
3
 72
8
 73
4
 74
0
 40
0
 40
0
 40
0
 40
0
 40
1
 40
1
 40
1
 40
1
 10
24.333394
 20
68.575321
 30
0.0
 10
23.725508
 20
68.912915
 30
0.0
 10
23.351035
 20
69.536816
 30
0.0
 10
23.351035
 20
70.212005
 30
0.0
  0
SPLINE
  5
103
100
AcDbEntity
  8
Ebene_1
 62
1
100
AcDbSpline
 70
8
 71
3
 72
8
 73
4
 74
0
 40
0
 40
0
 40
0
 40
0
 40
1
 40
1
 40
1
 40
1
 10
23.351035
 20
70.212005
 30
0.0
 10
23.351035
 20
70.887195
 30
0.0
 10
23.725508
 20
71.511095
 30
0.0
 10
24.333394
 20
71.848690
 30
0.0
  0
SPLINE
  5
104
100
AcDbEntity
  8
Ebene_1
 62
1
100
AcDbSpline
 70
8
 71
3
 72
8
 73
4
 74
0
 40
0
 40
0
 40
0
 40
0
 40
1
 40
1
 40
1
 40
1
 10
24.333394
 20
71.848690
 30
0.0
 10
24.941280
 20
72.186285
 30
0.0
 10
25.690226
 20
72.186285
 30
0.0
 10
26.298112
 20
71.848690
 30
0.0
  0
SPLINE
  5
105
100
AcDbEntity
  8
Ebene_1
 62
1
100
AcDbSpline
 70
8
 71
3
 72
8
 73
4
 74
0
 40
0
 40
0
 40
0
 40
0
 40
1
 40
1
 40
1
 40
1
 10
26.298112
 20
71.848690
 30
0.0
 10
26.905998
 20
71.511095
 30
0.0
 10
27.280471
 20
70.887195
 30
0.0
 10
27.280471
 20
70.212005
 30
0.0
  0
LWPOLYLINE
  5
106
100
AcDbEntity
  8
Ebene_1
 62
1
100
AcDbPolyline
 90
2
 70
0
 10
110.581871
 20
94.866574
 30
0.0
 10
20.010123
 20
94.730694
 30
0.0
  0
LWPOLYLINE
  5
107
100
AcDbEntity
  8
Ebene_1
 62
1
100
AcDbPolyline
 90
3
 70
0
 10
276.587295
 20
51.708426
 30
0.0
 10
276.587295
 20
45.662227
 30
0.0
 10
296.203244
 20
45.662227
 30
0.0
  0
LWPOLYLINE
  5
108
100
AcDbEntity
  8
Ebene_1
 62
1
100
AcDbPolyline
 90
3
 70
0
 10
281.259554
 20
55.075736
 30
0.0
 10
281.302854
 20
51.708286
 30
0.0
 10
276.587295
 20
51.708346
 30
0.0
  0
LWPOLYLINE
  5
109
100
AcDbEntity
  8
Ebene_1
 62
1
100
AcDbPolyline
 90
3
 70
0
 10
296.203244
 20
51.708286
 30
0.0
 10
291.325504
 20
51.708286
 30
0.0
 10
291.325504
 20
54.945816
 30
0.0
  0
LWPOLYLINE
  5
10a
100
AcDbEntity
  8
Ebene_1
 62
1
100
AcDbPolyline
 90
2
 70
0
 10
296.203244
 20
51.708286
 30
0.0
 10
296.203244
 20
45.662157
 30
0.0
  0
LWPOLYLINE
  5
10b
100
AcDbEntity
  8
Ebene_1
 62
1
100
AcDbPolyline
 90
2
 70
0
 10
39.465418
 20
45.642887
 30
0.0
 10
59.600987
 20
45.642887
 30
0.0
  0
LWPOLYLINE
  5
10c
100
AcDbEntity
  8
Ebene_1
 62
1
100
AcDbPolyline
 90
3
 70
0
 10
19.849798
 20
51.689226
 30
0.0
 10
19.849798
 20
45.643027
 30
0.0
 10
39.465748
 20
45.643027
 30
0.0
  0
LWPOLYLINE
  5
10d
100
AcDbEntity
  8
Ebene_1
 62
1
100
AcDbPolyline
 90
3
 70
0
 10
24.522057
 20
55.056536
 30
0.0
 10
24.565357
 20
51.689086
 30
0.0
 10
19.849798
 20
51.689146
 30
0.0
  0
LWPOLYLINE
  5
10e
100
AcDbEntity
  8
Ebene_1
 62
1
100
AcDbPolyline
 90
7
 70
0
 10
39.465748
 20
51.689086
 30
0.0
 10
34.588008
 20
51.689086
 30
0.0
 10
34.588008
 20
54.926616
 30
0.0
 10
44.477328
 20
54.926616
 30
0.0
 10
44.477328
 20
51.689086
 30
0.0
 10
39.465748
 20
51.689086
 30
0.0
 10
39.465748
 20
45.642957
 30
0.0
  0
LWPOLYLINE
  5
10f
100
AcDbEntity
  8
Ebene_1
 62
1
100
AcDbPolyline
 90
3
 70
0
 10
59.577696
 20
51.689086
 30
0.0
 10
54.499966
 20
51.689086
 30
0.0
 10
54.287577
 20
55.076036
 30
0.0
  0
SPLINE
  5
110
100
AcDbEntity
  8
Ebene_1
 62
1
100
AcDbSpline
 70
8
 71
3
 72
8
 73
4
 74
0
 40
0
 40
0
 40
0
 40
0
 40
1
 40
1
 40
1
 40
1
 10
140.946462
 20
50.038416
 30
0.0
 10
138.929882
 20
48.021836
 30
0.0
 10
132.441152
 20
48.101286
 30
0.0
 10
130.563232
 20
49.999516
 30
0.0
  0
LWPOLYLINE
  5
111
100
AcDbEntity
  8
Ebene_1
 62
1
100
AcDbPolyline
 90
2
 70
0
 10
59.577646
 20
51.689086
 30
0.0
 10
59.601246
 20
45.642957
 30
0.0
  0
LWPOLYLINE
  5
112
100
AcDbEntity
  8
Ebene_1
 62
1
100
AcDbPolyline
 90
3
 70
0
 10
130.594992
 20
52.564576
 30
0.0
 10
140.946462
 20
52.564576
 30
0.0
 10
140.946462
 20
50.038416
 30
0.0
  0
SPLINE
  5
113
100
AcDbEntity
  8
Ebene_1
 62
1
100
AcDbSpline
 70
8
 71
3
 72
8
 73
4
 74
0
 40
0
 40
0
 40
0
 40
0
 40
1
 40
1
 40
1
 40
1
 10
160.328871
 20
50.038416
 30
0.0
 10
158.312291
 20
48.021836
 30
0.0
 10
151.823561
 20
48.101286
 30
0.0
 10
149.945641
 20
49.999516
 30
0.0
  0
LWPOLYLINE
  5
114
100
AcDbEntity
  8
Ebene_1
 62
1
100
AcDbPolyline
 90
2
 70
0
 10
130.563232
 20
49.999516
 30
0.0
 10
130.594992
 20
52.564576
 30
0.0
  0
LWPOLYLINE
  5
115
100
AcDbEntity
  8
Ebene_1
 62
1
100
AcDbPolyline
 90
3
 70
0
 10
149.977401
 20
52.564576
 30
0.0
 10
160.328871
 20
52.564576
 30
0.0
 10
160.328871
 20
50.038416
 30
0.0
  0
SPLINE
  5
116
100
AcDbEntity
  8
Ebene_1
 62
1
100
AcDbSpline
 70
8
 71
3
 72
8
 73
4
 74
0
 40
0
 40
0
 40
0
 40
0
 40
1
 40
1
 40
1
 40
1
 10
186.130599
 20
50.038416
 30
0.0
 10
184.114019
 20
48.021836
 30
0.0
 10
177.625290
 20
48.101286
 30
0.0
 10
175.747370
 20
49.999516
 30
0.0
  0
LWPOLYLINE
  5
117
100
AcDbEntity
  8
Ebene_1
 62
1
100
AcDbPolyline
 90
2
 70
0
 10
149.945641
 20
49.999516
 30
0.0
 10
149.977401
 20
52.564576
 30
0.0
  0
LWPOLYLINE
  5
118
100
AcDbEntity
  8
Ebene_1
 62
1
100
AcDbPolyline
 90
3
 70
0
 10
175.779130
 20
52.564576
 30
0.0
 10
186.130599
 20
52.564576
 30
0.0
 10
186.130599
 20
50.038416
 30
0.0
  0
SPLINE
  5
119
100
AcDbEntity
  8
Ebene_1
 62
1
100
AcDbSpline
 70
8
 71
3
 72
8
 73
4
 74
0
 40
0
 40
0
 40
0
 40
0
 40
1
 40
1
 40
1
 40
1
 10
205.513008
 20
50.038416
 30
0.0
 10
203.496428
 20
48.021836
 30
0.0
 10
197.007699
 20
48.101286
 30
0.0
 10
195.129779
 20
49.999516
 30
0.0
  0
LWPOLYLINE
  5
11a
100
AcDbEntity
  8
Ebene_1
 62
1
100
AcDbPolyline
 90
2
 70
0
 10
175.747370
 20
49.999516
 30
0.0
 10
175.779130
 20
52.564576
 30
0.0
  0
LWPOLYLINE
  5
11b
100
AcDbEntity
  8
Ebene_1
 62
1
100
AcDbPolyline
 90
3
 70
0
 10
195.161539
 20
52.564576
 30
0.0
 10
205.513008
 20
52.564576
 30
0.0
 10
205.513008
 20
50.038416
 30
0.0
  0
SPLINE
  5
11c
100
AcDbEntity
  8
Ebene_1
 62
1
100
AcDbSpline
 70
8
 71
3
 72
8
 73
4
 74
0
 40
0
 40
0
 40
0
 40
0
 40
1
 40
1
 40
1
 40
1
 10
220.677758
 20
75.712435
 30
0.0
 10
222.694337
 20
73.782115
 30
0.0
 10
222.614887
 20
67.570945
 30
0.0
 10
220.716658
 20
65.773356
 30
0.0
  0
LWPOLYLINE
  5
11d
100
AcDbEntity
  8
Ebene_1
 62
1
100
AcDbPolyline
 90
2
 70
0
 10
195.129779
 20
49.999516
 30
0.0
 10
195.161539
 20
52.564576
 30
0.0
  0
LWPOLYLINE
  5
11e
100
AcDbEntity
  8
Ebene_1
 62
1
100
AcDbPolyline
 90
3
 70
0
 10
218.151598
 20
65.803756
 30
0.0
 10
218.151598
 20
75.712435
 30
0.0
 10
220.677758
 20
75.712435
 30
0.0
  0
SPLINE
  5
11f
100
AcDbEntity
  8
Ebene_1
 62
1
100
AcDbSpline
 70
8
 71
3
 72
8
 73
4
 74
0
 40
0
 40
0
 40
0
 40
0
 40
1
 40
1
 40
1
 40
1
 10
220.677758
 20
96.324864
 30
0.0
 10
222.694337
 20
94.255204
 30
0.0
 10
222.614887
 20
87.595694
 30
0.0
 10
220.716658
 20
85.668345
 30
0.0
  0
LWPOLYLINE
  5
120
100
AcDbEntity
  8
Ebene_1
 62
1
100
AcDbPolyline
 90
2
 70
0
 10
220.716658
 20
65.773356
 30
0.0
 10
218.151598
 20
65.803756
 30
0.0
  0
LWPOLYLINE
  5
121
100
AcDbEntity
  8
Ebene_1
 62
1
100
AcDbPolyline
 90
3
 70
0
 10
218.151598
 20
85.700945
 30
0.0
 10
218.151598
 20
96.324864
 30
0.0
 10
220.677758
 20
96.324864
 30
0.0
  0
LWPOLYLINE
  5
122
100
AcDbEntity
  8
Ebene_1
 62
1
100
AcDbPolyline
 90
2
 70
0
 10
220.716658
 20
85.668345
 30
0.0
 10
218.151598
 20
85.700945
 30
0.0
  0
LWPOLYLINE
  5
123
100
AcDbEntity
  8
Ebene_1
 62
1
100
AcDbPolyline
 90
3
 70
0
 10
84.638517
 20
51.786506
 30
0.0
 10
84.638517
 20
45.740307
 30
0.0
 10
104.254466
 20
45.740307
 30
0.0
  0
LWPOLYLINE
  5
124
100
AcDbEntity
  8
Ebene_1
 62
1
100
AcDbPolyline
 90
3
 70
0
 10
89.310776
 20
55.153816
 30
0.0
 10
89.354076
 20
51.786366
 30
0.0
 10
84.638517
 20
51.786426
 30
0.0
  0
SPLINE
  5
125
100
AcDbEntity
  8
Ebene_1
 62
1
100
AcDbSpline
 70
8
 71
3
 72
8
 73
4
 74
0
 40
0
 40
0
 40
0
 40
0
 40
1
 40
1
 40
1
 40
1
 10
202.473438
 20
179.172190
 30
0.0
 10
202.473438
 20
178.493750
 30
0.0
 10
201.887318
 20
177.943770
 30
0.0
 10
201.164309
 20
177.943770
 30
0.0
  0
SPLINE
  5
126
100
AcDbEntity
  8
Ebene_1
 62
1
100
AcDbSpline
 70
8
 71
3
 72
8
 73
4
 74
0
 40
0
 40
0
 40
0
 40
0
 40
1
 40
1
 40
1
 40
1
 10
201.164309
 20
177.943770
 30
0.0
 10
200.441299
 20
177.943770
 30
0.0
 10
199.855179
 20
178.493750
 30
0.0
 10
199.855179
 20
179.172190
 30
0.0
  0
SPLINE
  5
127
100
AcDbEntity
  8
Ebene_1
 62
1
100
AcDbSpline
 70
8
 71
3
 72
8
 73
4
 74
0
 40
0
 40
0
 40
0
 40
0
 40
1
 40
1
 40
1
 40
1
 10
199.855179
 20
179.172190
 30
0.0
 10
199.855179
 20
179.850630
 30
0.0
 10
200.441289
 20
180.400620
 30
0.0
 10
201.164309
 20
180.400620
 30
0.0
  0
SPLINE
  5
128
100
AcDbEntity
  8
Ebene_1
 62
1
100
AcDbSpline
 70
8
 71
3
 72
8
 73
4
 74
0
 40
0
 40
0
 40
0
 40
0
 40
1
 40
1
 40
1
 40
1
 10
201.164309
 20
180.400620
 30
0.0
 10
201.887328
 20
180.400620
 30
0.0
 10
202.473438
 20
179.850630
 30
0.0
 10
202.473438
 20
179.172190
 30
0.0
  0
LWPOLYLINE
  5
129
100
AcDbEntity
  8
Ebene_1
 62
1
100
AcDbPolyline
 90
3
 70
0
 10
104.254466
 20
51.786366
 30
0.0
 10
99.376726
 20
51.786366
 30
0.0
 10
99.376726
 20
55.023896
 30
0.0
  0
LWPOLYLINE
  5
12a
100
AcDbEntity
  8
Ebene_1
 62
1
100
AcDbPolyline
 90
2
 70
0
 10
104.254466
 20
51.786366
 30
0.0
 10
104.254466
 20
45.740237
 30
0.0
  0
LWPOLYLINE
  5
12b
100
AcDbEntity
  8
Ebene_1
 62
1
100
AcDbPolyline
 90
2
 70
0
 10
0.050125
 20
80.889425
 30
0.0
 10
0.050125
 20
101.024994
 30
0.0
  0
SPLINE
  5
12c
100
AcDbEntity
  8
Ebene_1
 62
1
100
AcDbSpline
 70
8
 71
3
 72
8
 73
4
 74
0
 40
0
 40
0
 40
0
 40
0
 40
1
 40
1
 40
1
 40
1
 10
12.612218
 20
100.359784
 30
0.0
 10
12.638357
 20
101.465494
 30
0.0
 10
13.293228
 20
102.864144
 30
0.0
 10
15.197005
 20
102.922914
 30
0.0
  0
LWPOLYLINE
  5
12d
100
AcDbEntity
  8
Ebene_1
 62
1
100
AcDbPolyline
 90
4
 70
0
 10
12.663275
 20
85.860655
 30
0.0
 10
6.096325
 20
85.901355
 30
0.0
 10
6.096325
 20
80.889775
 30
0.0
 10
0.050195
 20
80.889775
 30
0.0
  0
LWPOLYLINE
  5
12e
100
AcDbEntity
  8
Ebene_1
 62
1
100
AcDbPolyline
 90
4
 70
0
 10
6.096325
 20
101.001724
 30
0.0
 10
6.131405
 20
96.043744
 30
0.0
 10
12.588378
 20
96.043744
 30
0.0
 10
12.612218
 20
100.359784
 30
0.0
  0
LWPOLYLINE
  5
12f
100
AcDbEntity
  8
Ebene_1
 62
1
100
AcDbPolyline
 90
2
 70
0
 10
6.096326
 20
101.001674
 30
0.0
 10
0.050196
 20
101.025274
 30
0.0
  0
SPLINE
  5
130
100
AcDbEntity
  8
Ebene_1
 62
1
100
AcDbSpline
 70
8
 71
3
 72
8
 73
4
 74
0
 40
0
 40
0
 40
0
 40
0
 40
1
 40
1
 40
1
 40
1
 10
211.015508
 20
8.316727
 30
0.0
 10
211.066108
 20
7.127597
 30
0.0
 10
211.698328
 20
6.662667
 30
0.0
 10
212.432428
 20
6.457967
 30
0.0
  0
SPLINE
  5
131
100
AcDbEntity
  8
Ebene_1
 62
1
100
AcDbSpline
 70
8
 71
3
 72
8
 73
4
 74
0
 40
0
 40
0
 40
0
 40
0
 40
1
 40
1
 40
1
 40
1
 10
212.432428
 20
6.457967
 30
0.0
 10
212.945508
 20
6.314897
 30
0.0
 10
213.971358
 20
5.802837
 30
0.0
 10
213.957078
 20
4.664198
 30
0.0
  0
LWPOLYLINE
  5
132
100
AcDbEntity
  8
Ebene_1
 62
1
100
AcDbPolyline
 90
3
 70
0
 10
321.285122
 20
108.594912
 30
0.0
 10
321.270722
 20
55.102235
 30
0.0
 10
291.325454
 20
54.945815
 30
0.0
  0
LWPOLYLINE
  5
133
100
AcDbEntity
  8
Ebene_1
 62
1
100
AcDbPolyline
 90
5
 70
0
 10
281.258804
 20
55.075735
 30
0.0
 10
215.544588
 20
55.036535
 30
0.0
 10
215.544588
 20
34.627806
 30
0.0
 10
211.015508
 20
34.627806
 30
0.0
 10
211.015508
 20
8.316727
 30
0.0
  0
SPLINE
  5
134
100
AcDbEntity
  8
Ebene_1
 62
1
100
AcDbSpline
 70
8
 71
3
 72
8
 73
4
 74
0
 40
0
 40
0
 40
0
 40
0
 40
1
 40
1
 40
1
 40
1
 10
213.957059
 20
-2.146251
 30
0.0
 10
213.957059
 20
-3.660726
 30
0.0
 10
213.201107
 20
-4.689400
 30
0.0
 10
211.400438
 20
-4.730013
 30
0.0
  0
SPLINE
  5
135
100
AcDbEntity
  8
Ebene_1
 62
1
100
AcDbSpline
 70
8
 71
3
 72
8
 73
4
 74
0
 40
0
 40
0
 40
0
 40
0
 40
1
 40
1
 40
1
 40
1
 10
124.550993
 20
-4.640505
 30
0.0
 10
123.096774
 20
-4.675006
 30
0.0
 10
122.117734
 20
-3.606804
 30
0.0
 10
122.117734
 20
-2.114395
 30
0.0
  0
SPLINE
  5
136
100
AcDbEntity
  8
Ebene_1
 62
1
100
AcDbSpline
 70
8
 71
3
 72
8
 73
4
 74
0
 40
0
 40
0
 40
0
 40
0
 40
1
 40
1
 40
1
 40
1
 10
122.117734
 20
-2.114395
 30
0.0
 10
122.275428
 20
12.602497
 30
0.0
 10
122.208499
 20
32.081519
 30
0.0
 10
122.154273
 20
46.798626
 30
0.0
  0
LWPOLYLINE
  5
137
100
AcDbEntity
  8
Ebene_1
 62
1
100
AcDbPolyline
 90
2
 70
0
 10
213.957077
 20
4.664203
 30
0.0
 10
213.957059
 20
-2.146251
 30
0.0
  0
LWPOLYLINE
  5
138
100
AcDbEntity
  8
Ebene_1
 62
1
100
AcDbPolyline
 90
3
 70
0
 10
122.154273
 20
46.798626
 30
0.0
 10
120.647984
 20
46.750625
 30
0.0
 10
120.673384
 20
55.030604
 30
0.0
  0
SPLINE
  5
139
100
AcDbEntity
  8
Ebene_1
 62
1
100
AcDbSpline
 70
8
 71
3
 72
8
 73
4
 74
0
 40
0
 40
0
 40
0
 40
0
 40
1
 40
1
 40
1
 40
1
 10
120.673383
 20
55.030605
 30
0.0
 10
120.673383
 20
55.030605
 30
0.0
 10
112.553476
 20
55.037605
 30
0.0
 10
99.325160
 20
55.046505
 30
0.0
  0
SPLINE
  5
13a
100
AcDbEntity
  8
Ebene_1
 62
1
100
AcDbSpline
 70
8
 71
3
 72
8
 73
4
 74
0
 40
0
 40
0
 40
0
 40
0
 40
1
 40
1
 40
1
 40
1
 10
89.335922
 20
55.053505
 30
0.0
 10
75.235735
 20
55.062505
 30
0.0
 10
60.685893
 20
55.072405
 30
0.0
 10
54.287537
 20
55.076605
 30
0.0
  0
SPLINE
  5
13b
100
AcDbEntity
  8
Ebene_1
 62
1
100
AcDbSpline
 70
8
 71
3
 72
8
 73
4
 74
0
 40
0
 40
0
 40
0
 40
0
 40
1
 40
1
 40
1
 40
1
 10
15.449563
 20
55.241955
 30
0.0
 10
13.853005
 20
55.270655
 30
0.0
 10
12.645140
 20
56.388615
 30
0.0
 10
12.685998
 20
58.014755
 30
0.0
  0
LWPOLYLINE
  5
13c
100
AcDbEntity
  8
Ebene_1
 62
1
100
AcDbPolyline
 90
3
 70
0
 10
211.400438
 20
-4.730013
 30
0.0
 10
167.970589
 20
-4.607114
 30
0.0
 10
124.550993
 20
-4.640505
 30
0.0
  0
LWPOLYLINE
  5
13d
100
AcDbEntity
  8
Ebene_1
 62
1
100
AcDbPolyline
 90
2
 70
0
 10
24.522017
 20
55.057105
 30
0.0
 10
15.449563
 20
55.241955
 30
0.0
  0
SPLINE
  5
13e
100
AcDbEntity
  8
Ebene_1
 62
1
100
AcDbSpline
 70
8
 71
3
 72
8
 73
4
 74
0
 40
0
 40
0
 40
0
 40
0
 40
1
 40
1
 40
1
 40
1
 10
215.661988
 20
116.818092
 30
0.0
 10
217.422458
 20
111.268632
 30
0.0
 10
223.698977
 20
112.905582
 30
0.0
 10
228.527417
 20
112.712492
 30
0.0
  0
SPLINE
  5
13f
100
AcDbEntity
  8
Ebene_1
 62
1
100
AcDbSpline
 70
8
 71
3
 72
8
 73
4
 74
0
 40
0
 40
0
 40
0
 40
0
 40
1
 40
1
 40
1
 40
1
 10
317.119653
 20
112.669192
 30
0.0
 10
319.172362
 20
112.706092
 30
0.0
 10
321.347272
 20
110.221402
 30
0.0
 10
321.285122
 20
108.594912
 30
0.0
  0
LWPOLYLINE
  5
140
100
AcDbEntity
  8
Ebene_1
 62
1
100
AcDbPolyline
 90
2
 70
0
 10
12.685998
 20
58.014755
 30
0.0
 10
12.663275
 20
65.748704
 30
0.0
  0
LWPOLYLINE
  5
141
100
AcDbEntity
  8
Ebene_1
 62
1
100
AcDbPolyline
 90
2
 70
0
 10
228.527417
 20
112.712492
 30
0.0
 10
317.119653
 20
112.669192
 30
0.0
  0
LWPOLYLINE
  5
142
100
AcDbEntity
  8
Ebene_1
 62
1
100
AcDbPolyline
 90
2
 70
0
 10
0.050125
 20
60.777476
 30
0.0
 10
0.050125
 20
80.913045
 30
0.0
  0
LWPOLYLINE
  5
143
100
AcDbEntity
  8
Ebene_1
 62
1
100
AcDbPolyline
 90
4
 70
0
 10
12.663275
 20
65.748706
 30
0.0
 10
6.096325
 20
65.789406
 30
0.0
 10
6.096325
 20
60.777826
 30
0.0
 10
0.050195
 20
60.777826
 30
0.0
  0
SPLINE
  5
144
100
AcDbEntity
  8
Ebene_1
 62
1
100
AcDbSpline
 70
8
 71
3
 72
8
 73
4
 74
0
 40
0
 40
0
 40
0
 40
0
 40
1
 40
1
 40
1
 40
1
 10
215.661988
 20
116.818093
 30
0.0
 10
213.956778
 20
132.250482
 30
0.0
 10
215.659988
 20
143.031782
 30
0.0
 10
212.712908
 20
178.274630
 30
0.0
  0
SPLINE
  5
145
100
AcDbEntity
  8
Ebene_1
 62
1
100
AcDbSpline
 70
8
 71
3
 72
8
 73
4
 74
0
 40
0
 40
0
 40
0
 40
0
 40
1
 40
1
 40
1
 40
1
 10
212.712908
 20
178.274630
 30
0.0
 10
212.896468
 20
191.561835
 30
0.0
 10
205.142978
 20
191.658458
 30
0.0
 10
201.966928
 20
191.733158
 30
0.0
  0
SPLINE
  5
146
100
AcDbEntity
  8
Ebene_1
 62
1
100
AcDbSpline
 70
8
 71
3
 72
8
 73
4
 74
0
 40
0
 40
0
 40
0
 40
0
 40
1
 40
1
 40
1
 40
1
 10
201.966928
 20
191.733158
 30
0.0
 10
198.790889
 20
191.658458
 30
0.0
 10
193.855099
 20
189.029799
 30
0.0
 10
182.706059
 20
179.573920
 30
0.0
  0
LWPOLYLINE
  5
147
100
AcDbEntity
  8
Ebene_1
 62
1
100
AcDbPolyline
 90
4
 70
0
 10
6.096325
 20
80.889775
 30
0.0
 10
6.131405
 20
75.931795
 30
0.0
 10
12.588379
 20
75.931795
 30
0.0
 10
12.663275
 20
85.860655
 30
0.0
  0
LWPOLYLINE
  5
148
100
AcDbEntity
  8
Ebene_1
 62
1
100
AcDbPolyline
 90
2
 70
0
 10
6.096326
 20
80.889725
 30
0.0
 10
0.050196
 20
80.913325
 30
0.0
  0
SPLINE
  5
149
100
AcDbEntity
  8
Ebene_1
 62
1
100
AcDbSpline
 70
8
 71
3
 72
8
 73
4
 74
0
 40
0
 40
0
 40
0
 40
0
 40
1
 40
1
 40
1
 40
1
 10
122.770453
 20
128.516892
 30
0.0
 10
119.816523
 20
125.712891
 30
0.0
 10
119.437864
 20
122.985780
 30
0.0
 10
118.917008
 20
121.042783
 30
0.0
  0
SPLINE
  5
14a
100
AcDbEntity
  8
Ebene_1
 62
1
100
AcDbSpline
 70
8
 71
3
 72
8
 73
4
 74
0
 40
0
 40
0
 40
0
 40
0
 40
1
 40
1
 40
1
 40
1
 10
118.917008
 20
121.042783
 30
0.0
 10
117.804038
 20
116.600286
 30
0.0
 10
107.227735
 20
102.962912
 30
0.0
 10
103.015568
 20
102.922913
 30
0.0
  0
LWPOLYLINE
  5
14b
100
AcDbEntity
  8
Ebene_1
 62
1
100
AcDbPolyline
 90
4
 70
0
 10
182.706060
 20
179.573919
 30
0.0
 10
122.770453
 20
128.516892
 30
0.0
 10
122.770453
 20
128.516892
 30
0.0
 10
122.770453
 20
128.516892
 30
0.0
  0
LWPOLYLINE
  5
14c
100
AcDbEntity
  8
Ebene_1
 62
1
100
AcDbPolyline
 90
2
 70
0
 10
103.015568
 20
102.922913
 30
0.0
 10
15.196954
 20
102.922913
 30
0.0
  0
LWPOLYLINE
  5
14d
100
AcDbEntity
  8
Ebene_1
 62
1
100
AcDbPolyline
 90
3
 70
1
 10
28.237118
 20
51.890326
 30
0.0
 10
28.237118
 20
47.327817
 30
0.0
 10
28.237118
 20
51.890326
 30
0.0
  0
LWPOLYLINE
  5
14e
100
AcDbEntity
  8
Ebene_1
 62
1
100
AcDbPolyline
 90
3
 70
1
 10
29.701627
 20
55.671496
 30
0.0
 10
29.701627
 20
51.108976
 30
0.0
 10
29.701627
 20
55.671496
 30
0.0
  0
LWPOLYLINE
  5
14f
100
AcDbEntity
  8
Ebene_1
 62
1
100
AcDbPolyline
 90
3
 70
1
 10
31.166657
 20
51.890326
 30
0.0
 10
31.166657
 20
47.327817
 30
0.0
 10
31.166657
 20
51.890326
 30
0.0
  0
LWPOLYLINE
  5
150
100
AcDbEntity
  8
Ebene_1
 62
1
100
AcDbPolyline
 90
3
 70
1
 10
48.046906
 20
51.890326
 30
0.0
 10
48.046906
 20
47.327817
 30
0.0
 10
48.046906
 20
51.890326
 30
0.0
  0
LWPOLYLINE
  5
151
100
AcDbEntity
  8
Ebene_1
 62
1
100
AcDbPolyline
 90
3
 70
1
 10
49.511416
 20
55.671496
 30
0.0
 10
49.511416
 20
51.108976
 30
0.0
 10
49.511416
 20
55.671496
 30
0.0
  0
LWPOLYLINE
  5
152
100
AcDbEntity
  8
Ebene_1
 62
1
100
AcDbPolyline
 90
3
 70
1
 10
50.976446
 20
51.890326
 30
0.0
 10
50.976446
 20
47.327817
 30
0.0
 10
50.976446
 20
51.890326
 30
0.0
  0
LWPOLYLINE
  5
153
100
AcDbEntity
  8
Ebene_1
 62
1
100
AcDbPolyline
 90
3
 70
1
 10
284.847694
 20
51.890326
 30
0.0
 10
284.847694
 20
47.327817
 30
0.0
 10
284.847694
 20
51.890326
 30
0.0
  0
LWPOLYLINE
  5
154
100
AcDbEntity
  8
Ebene_1
 62
1
100
AcDbPolyline
 90
3
 70
1
 10
286.312204
 20
55.671496
 30
0.0
 10
286.312204
 20
51.108976
 30
0.0
 10
286.312204
 20
55.671496
 30
0.0
  0
LWPOLYLINE
  5
155
100
AcDbEntity
  8
Ebene_1
 62
1
100
AcDbPolyline
 90
3
 70
1
 10
287.777234
 20
51.890326
 30
0.0
 10
287.777234
 20
47.327817
 30
0.0
 10
287.777234
 20
51.890326
 30
0.0
  0
LWPOLYLINE
  5
156
100
AcDbEntity
  8
Ebene_1
 62
1
100
AcDbPolyline
 90
3
 70
1
 10
93.148644
 20
51.890326
 30
0.0
 10
93.148644
 20
47.327817
 30
0.0
 10
93.148644
 20
51.890326
 30
0.0
  0
LWPOLYLINE
  5
157
100
AcDbEntity
  8
Ebene_1
 62
1
100
AcDbPolyline
 90
3
 70
1
 10
94.613154
 20
55.671496
 30
0.0
 10
94.613154
 20
51.108976
 30
0.0
 10
94.613154
 20
55.671496
 30
0.0
  0
LWPOLYLINE
  5
158
100
AcDbEntity
  8
Ebene_1
 62
1
100
AcDbPolyline
 90
3
 70
1
 10
96.078184
 20
51.890326
 30
0.0
 10
96.078184
 20
47.327817
 30
0.0
 10
96.078184
 20
51.890326
 30
0.0
  0
LWPOLYLINE
  5
159
100
AcDbEntity
  8
Ebene_1
 62
1
100
AcDbPolyline
 90
3
 70
1
 10
6.131407
 20
92.416102
 30
0.0
 10
1.568897
 20
92.416102
 30
0.0
 10
6.131407
 20
92.416102
 30
0.0
  0
LWPOLYLINE
  5
15a
100
AcDbEntity
  8
Ebene_1
 62
1
100
AcDbPolyline
 90
3
 70
1
 10
9.912576
 20
90.951592
 30
0.0
 10
5.350057
 20
90.951592
 30
0.0
 10
9.912576
 20
90.951592
 30
0.0
  0
SPLINE
  5
15b
100
AcDbEntity
  8
Ebene_1
 62
1
100
AcDbSpline
 70
8
 71
3
 72
8
 73
4
 74
0
 40
0
 40
0
 40
0
 40
0
 40
1
 40
1
 40
1
 40
1
 10
206.691128
 20
117.444803
 30
0.0
 10
208.707708
 20
115.428223
 30
0.0
 10
208.628258
 20
108.939493
 30
0.0
 10
206.730028
 20
107.061573
 30
0.0
  0
LWPOLYLINE
  5
15c
100
AcDbEntity
  8
Ebene_1
 62
1
100
AcDbPolyline
 90
3
 70
1
 10
6.131407
 20
89.486562
 30
0.0
 10
1.568897
 20
89.486562
 30
0.0
 10
6.131407
 20
89.486562
 30
0.0
  0
LWPOLYLINE
  5
15d
100
AcDbEntity
  8
Ebene_1
 62
1
100
AcDbPolyline
 90
3
 70
0
 10
204.164968
 20
107.093333
 30
0.0
 10
204.164968
 20
117.444803
 30
0.0
 10
206.691128
 20
117.444803
 30
0.0
  0
LWPOLYLINE
  5
15e
100
AcDbEntity
  8
Ebene_1
 62
1
100
AcDbPolyline
 90
2
 70
0
 10
206.730028
 20
107.061573
 30
0.0
 10
204.164968
 20
107.093333
 30
0.0
  0
LWPOLYLINE
  5
15f
100
AcDbEntity
  8
Ebene_1
 62
1
100
AcDbPolyline
 90
3
 70
1
 10
6.037851
 20
72.362447
 30
0.0
 10
1.475341
 20
72.362447
 30
0.0
 10
6.037851
 20
72.362447
 30
0.0
  0
LWPOLYLINE
  5
160
100
AcDbEntity
  8
Ebene_1
 62
1
100
AcDbPolyline
 90
3
 70
1
 10
9.819020
 20
70.897937
 30
0.0
 10
5.256501
 20
70.897937
 30
0.0
 10
9.819020
 20
70.897937
 30
0.0
  0
LWPOLYLINE
  5
161
100
AcDbEntity
  8
Ebene_1
 62
1
100
AcDbPolyline
 90
3
 70
1
 10
6.037851
 20
69.432907
 30
0.0
 10
1.475341
 20
69.432907
 30
0.0
 10
6.037851
 20
69.432907
 30
0.0
  0
ENDSEC
  0
SECTION
  2
OBJECTS
  0
DICTIONARY
  5
C
330
0
100
AcDbDictionary
  3
ACAD_GROUP
350
D
  3
ACAD_MLINESTYLE
350
17
  0
DICTIONARY
  5
D
330
C
100
AcDbDictionary
  0
DICTIONARY
  5
1A
330
C
100
AcDbDictionary
  0
DICTIONARY
  5
17
330
C
100
AcDbDictionary
  3
STANDARD
350
18
  0
DICTIONARY
  5
19
330
C
100
AcDbDictionary
  0
ENDSEC
  0
EOF
