  0
SECTION
  2
HEADER
  9
$ACADVER
  1
AC1014
  9
$HANDSEED
  5
FFFF
  9
$MEASUREMENT
 70
     1
  0
ENDSEC
  0
SECTION
  2
TABLES
  0
TABLE
  2
VPORT
  5
8
330
0
100
AcDbSymbolTable
 70
     4
  0
VPORT
  5
2E
330
8
100
AcDbSymbolTableRecord
100
AcDbViewportTableRecord
  2
*ACTIVE
 70
     0
 10
0.0
 20
0.0
 11
1.0
 21
1.0
 12
210.0
 22
148.5
 13
0.0
 23
0.0
 14
10.0
 24
10.0
 15
10.0
 25
10.0
 16
0.0
 26
0.0
 36
1.0
 17
0.0
 27
0.0
 37
0.0
 40
341.0
 41
1.24
 42
50.0
 43
0.0
 44
0.0
 50
0.0
 51
0.0
 71
     0
 72
   100
 73
     1
 74
     3
 75
     0
 76
     0
 77
     0
 78
     0
  0
ENDTAB
  0
TABLE
  2
LTYPE
  5
5
330
0
100
AcDbSymbolTable
 70
     1
  0
LTYPE
  5
14
330
5
100
AcDbSymbolTableRecord
100
AcDbLinetypeTableRecord
  2
BYBLOCK
 70
     0
  3

 72
    65
 73
     0
 40
0.0
  0
LTYPE
  5
15
330
5
100
AcDbSymbolTableRecord
100
AcDbLinetypeTableRecord
  2
BYLAYER
 70
     0
  3

 72
    65
 73
     0
 40
0.0
  0
LTYPE
  5
16
330
5
100
AcDbSymbolTableRecord
100
AcDbLinetypeTableRecord
  2
CONTINUOUS
 70
     0
  3
Solid line
 72
    65
 73
     0
 40
0.0
  0
ENDTAB
  0
TABLE
  2
LAYER
  5
2
100
AcDbSymbolTable
 70
2
  0
LAYER
  5
50
100
AcDbSymbolTableRecord
100
AcDbLayerTableRecord
  2
0
 70
0
  6
CONTINUOUS
  0
LAYER
  5
51
100
AcDbSymbolTableRecord
100
AcDbLayerTableRecord
  2
Ebene_1
 70
0
  6
CONTINUOUS
  0
ENDTAB
  0
TABLE
  2
STYLE
  5
3
330
0
100
AcDbSymbolTable
 70
     1
  0
STYLE
  5
11
330
3
100
AcDbSymbolTableRecord
100
AcDbTextStyleTableRecord
  2
STANDARD
 70
     0
 40
0.0
 41
1.0
 50
0.0
 71
     0
 42
2.5
  3
txt
  4

  0
ENDTAB
  0
TABLE
  2
VIEW
  5
6
330
0
100
AcDbSymbolTable
 70
     0
  0
ENDTAB
  0
TABLE
  2
UCS
  5
7
330
0
100
AcDbSymbolTable
 70
     0
  0
ENDTAB
  0
TABLE
  2
APPID
  5
9
330
0
100
AcDbSymbolTable
 70
     2
  0
APPID
  5
12
330
9
100
AcDbSymbolTableRecord
100
AcDbRegAppTableRecord
  2
ACAD
 70
     0
  0
ENDTAB
  0
TABLE
  2
DIMSTYLE
  5
A
330
0
100
AcDbSymbolTable
 70
     1
  0
DIMSTYLE
105
27
330
A
100
AcDbSymbolTableRecord
100
AcDbDimStyleTableRecord
  2
ISO-25
 70
     0
  3

  4

  5

  6

  7

 40
1.0
 41
2.5
 42
0.625
 43
3.75
 44
1.25
 45
0.0
 46
0.0
 47
0.0
 48
0.0
140
2.5
141
2.5
142
0.0
143
0.03937007874016
144
1.0
145
0.0
146
1.0
147
0.625
 71
     0
 72
     0
 73
     0
 74
     0
 75
     0
 76
     0
 77
     1
 78
     8
170
     0
171
     3
172
     1
173
     0
174
     0
175
     0
176
     0
177
     0
178
     0
270
     2
271
     2
272
     2
273
     2
274
     3
340
11
275
     0
280
     0
281
     0
282
     0
283
     0
284
     8
285
     0
286
     0
287
     3
288
     0
  0
ENDTAB
  0
TABLE
  2
BLOCK_RECORD
  5
1
330
0
100
AcDbSymbolTable
 70
     1
  0
BLOCK_RECORD
  5
1F
330
1
100
AcDbSymbolTableRecord
100
AcDbBlockTableRecord
  2
*MODEL_SPACE
  0
BLOCK_RECORD
  5
1B
330
1
100
AcDbSymbolTableRecord
100
AcDbBlockTableRecord
  2
*PAPER_SPACE
  0
ENDTAB
  0
ENDSEC
  0
SECTION
  2
BLOCKS
  0
BLOCK
  5
20
330
1F
100
AcDbEntity
  8
0
100
AcDbBlockBegin
  2
*MODEL_SPACE
 70
     0
 10
0.0
 20
0.0
 30
0.0
  3
*MODEL_SPACE
  1

  0
ENDBLK
  5
21
330
1F
100
AcDbEntity
  8
0
100
AcDbBlockEnd
  0
BLOCK
  5
1C
330
1B
100
AcDbEntity
 67
     1
  8
0
100
AcDbBlockBegin
  2
*PAPER_SPACE
  1

  0
ENDBLK
  5
1D
330
1B
100
AcDbEntity
 67
     1
  8
0
100
AcDbBlockEnd
  0
ENDSEC
  0
SECTION
  2
ENTITIES
  0
SPLINE
  5
100
100
AcDbEntity
  8
Ebene_1
 62
1
100
AcDbSpline
 70
8
 71
3
 72
8
 73
4
 74
0
 40
0
 40
0
 40
0
 40
0
 40
1
 40
1
 40
1
 40
1
 10
62.734652
 20
70.212005
 30
0.0
 10
62.734652
 20
69.536816
 30
0.0
 10
62.360179
 20
68.912915
 30
0.0
 10
61.752293
 20
68.575321
 30
0.0
  0
SPLINE
  5
101
100
AcDbEntity
  8
Ebene_1
 62
1
100
AcDbSpline
 70
8
 71
3
 72
8
 73
4
 74
0
 40
0
 40
0
 40
0
 40
0
 40
1
 40
1
 40
1
 40
1
 10
61.752293
 20
68.575321
 30
0.0
 10
61.144407
 20
68.237726
 30
0.0
 10
60.395461
 20
68.237726
 30
0.0
 10
59.787575
 20
68.575321
 30
0.0
  0
SPLINE
  5
102
100
AcDbEntity
  8
Ebene_1
 62
1
100
AcDbSpline
 70
8
 71
3
 72
8
 73
4
 74
0
 40
0
 40
0
 40
0
 40
0
 40
1
 40
1
 40
1
 40
1
 10
59.787575
 20
68.575321
 30
0.0
 10
59.179689
 20
68.912915
 30
0.0
 10
58.805216
 20
69.536816
 30
0.0
 10
58.805216
 20
70.212005
 30
0.0
  0
SPLINE
  5
103
100
AcDbEntity
  8
Ebene_1
 62
1
100
AcDbSpline
 70
8
 71
3
 72
8
 73
4
 74
0
 40
0
 40
0
 40
0
 40
0
 40
1
 40
1
 40
1
 40
1
 10
58.805216
 20
70.212005
 30
0.0
 10
58.805216
 20
70.887195
 30
0.0
 10
59.179689
 20
71.511095
 30
0.0
 10
59.787575
 20
71.848690
 30
0.0
  0
SPLINE
  5
104
100
AcDbEntity
  8
Ebene_1
 62
1
100
AcDbSpline
 70
8
 71
3
 72
8
 73
4
 74
0
 40
0
 40
0
 40
0
 40
0
 40
1
 40
1
 40
1
 40
1
 10
59.787575
 20
71.848690
 30
0.0
 10
60.395461
 20
72.186285
 30
0.0
 10
61.144407
 20
72.186285
 30
0.0
 10
61.752293
 20
71.848690
 30
0.0
  0
SPLINE
  5
105
100
AcDbEntity
  8
Ebene_1
 62
1
100
AcDbSpline
 70
8
 71
3
 72
8
 73
4
 74
0
 40
0
 40
0
 40
0
 40
0
 40
1
 40
1
 40
1
 40
1
 10
61.752293
 20
71.848690
 30
0.0
 10
62.360179
 20
71.511095
 30
0.0
 10
62.734652
 20
70.887195
 30
0.0
 10
62.734652
 20
70.212005
 30
0.0
  0
LWPOLYLINE
  5
106
100
AcDbEntity
  8
Ebene_1
 62
1
100
AcDbPolyline
 90
1
 70
1
 10
62.734652
 20
70.212005
 30
0.0
  0
LWPOLYLINE
  5
107
100
AcDbEntity
  8
Ebene_1
 62
1
100
AcDbPolyline
 90
2
 70
0
 10
110.581871
 20
101.216594
 30
0.0
 10
20.010123
 20
79.914045
 30
0.0
  0
SPLINE
  5
108
100
AcDbEntity
  8
Ebene_1
 62
1
100
AcDbSpline
 70
8
 71
3
 72
8
 73
4
 74
0
 40
0
 40
0
 40
0
 40
0
 40
1
 40
1
 40
1
 40
1
 10
140.946462
 20
50.038416
 30
0.0
 10
138.929882
 20
48.021836
 30
0.0
 10
132.441152
 20
48.101286
 30
0.0
 10
130.563232
 20
49.999516
 30
0.0
  0
LWPOLYLINE
  5
109
100
AcDbEntity
  8
Ebene_1
 62
1
100
AcDbPolyline
 90
3
 70
0
 10
130.594992
 20
52.564576
 30
0.0
 10
140.946462
 20
52.564576
 30
0.0
 10
140.946462
 20
50.038416
 30
0.0
  0
LWPOLYLINE
  5
10a
100
AcDbEntity
  8
Ebene_1
 62
1
100
AcDbPolyline
 90
2
 70
0
 10
130.563232
 20
49.999516
 30
0.0
 10
130.594992
 20
52.564576
 30
0.0
  0
SPLINE
  5
10b
100
AcDbEntity
  8
Ebene_1
 62
1
100
AcDbSpline
 70
8
 71
3
 72
8
 73
4
 74
0
 40
0
 40
0
 40
0
 40
0
 40
1
 40
1
 40
1
 40
1
 10
160.328871
 20
50.038416
 30
0.0
 10
158.312291
 20
48.021836
 30
0.0
 10
151.823561
 20
48.101286
 30
0.0
 10
149.945641
 20
49.999516
 30
0.0
  0
LWPOLYLINE
  5
10c
100
AcDbEntity
  8
Ebene_1
 62
1
100
AcDbPolyline
 90
3
 70
0
 10
149.977401
 20
52.564576
 30
0.0
 10
160.328871
 20
52.564576
 30
0.0
 10
160.328871
 20
50.038416
 30
0.0
  0
LWPOLYLINE
  5
10d
100
AcDbEntity
  8
Ebene_1
 62
1
100
AcDbPolyline
 90
2
 70
0
 10
149.945641
 20
49.999516
 30
0.0
 10
149.977401
 20
52.564576
 30
0.0
  0
SPLINE
  5
10e
100
AcDbEntity
  8
Ebene_1
 62
1
100
AcDbSpline
 70
8
 71
3
 72
8
 73
4
 74
0
 40
0
 40
0
 40
0
 40
0
 40
1
 40
1
 40
1
 40
1
 10
186.130599
 20
50.038416
 30
0.0
 10
184.114019
 20
48.021836
 30
0.0
 10
177.625290
 20
48.101286
 30
0.0
 10
175.747370
 20
49.999516
 30
0.0
  0
LWPOLYLINE
  5
10f
100
AcDbEntity
  8
Ebene_1
 62
1
100
AcDbPolyline
 90
3
 70
0
 10
175.779130
 20
52.564576
 30
0.0
 10
186.130599
 20
52.564576
 30
0.0
 10
186.130599
 20
50.038416
 30
0.0
  0
LWPOLYLINE
  5
110
100
AcDbEntity
  8
Ebene_1
 62
1
100
AcDbPolyline
 90
2
 70
0
 10
175.747370
 20
49.999516
 30
0.0
 10
175.779130
 20
52.564576
 30
0.0
  0
SPLINE
  5
111
100
AcDbEntity
  8
Ebene_1
 62
1
100
AcDbSpline
 70
8
 71
3
 72
8
 73
4
 74
0
 40
0
 40
0
 40
0
 40
0
 40
1
 40
1
 40
1
 40
1
 10
205.513008
 20
50.038416
 30
0.0
 10
203.496428
 20
48.021836
 30
0.0
 10
197.007699
 20
48.101286
 30
0.0
 10
195.129779
 20
49.999516
 30
0.0
  0
LWPOLYLINE
  5
112
100
AcDbEntity
  8
Ebene_1
 62
1
100
AcDbPolyline
 90
3
 70
0
 10
195.161539
 20
52.564576
 30
0.0
 10
205.513008
 20
52.564576
 30
0.0
 10
205.513008
 20
50.038416
 30
0.0
  0
LWPOLYLINE
  5
113
100
AcDbEntity
  8
Ebene_1
 62
1
100
AcDbPolyline
 90
2
 70
0
 10
195.129779
 20
49.999516
 30
0.0
 10
195.161539
 20
52.564576
 30
0.0
  0
SPLINE
  5
114
100
AcDbEntity
  8
Ebene_1
 62
1
100
AcDbSpline
 70
8
 71
3
 72
8
 73
4
 74
0
 40
0
 40
0
 40
0
 40
0
 40
1
 40
1
 40
1
 40
1
 10
220.716648
 20
80.376555
 30
0.0
 10
222.733227
 20
78.359975
 30
0.0
 10
222.653777
 20
71.871245
 30
0.0
 10
220.755548
 20
69.993325
 30
0.0
  0
LWPOLYLINE
  5
115
100
AcDbEntity
  8
Ebene_1
 62
1
100
AcDbPolyline
 90
3
 70
0
 10
218.190488
 20
70.025085
 30
0.0
 10
218.190488
 20
80.376555
 30
0.0
 10
220.716648
 20
80.376555
 30
0.0
  0
SPLINE
  5
116
100
AcDbEntity
  8
Ebene_1
 62
1
100
AcDbSpline
 70
8
 71
3
 72
8
 73
4
 74
0
 40
0
 40
0
 40
0
 40
0
 40
1
 40
1
 40
1
 40
1
 10
169.664900
 20
179.172190
 30
0.0
 10
169.664900
 20
178.493750
 30
0.0
 10
169.078780
 20
177.943770
 30
0.0
 10
168.355770
 20
177.943770
 30
0.0
  0
SPLINE
  5
117
100
AcDbEntity
  8
Ebene_1
 62
1
100
AcDbSpline
 70
8
 71
3
 72
8
 73
4
 74
0
 40
0
 40
0
 40
0
 40
0
 40
1
 40
1
 40
1
 40
1
 10
168.355770
 20
177.943770
 30
0.0
 10
167.632760
 20
177.943770
 30
0.0
 10
167.046640
 20
178.493750
 30
0.0
 10
167.046640
 20
179.172190
 30
0.0
  0
SPLINE
  5
118
100
AcDbEntity
  8
Ebene_1
 62
1
100
AcDbSpline
 70
8
 71
3
 72
8
 73
4
 74
0
 40
0
 40
0
 40
0
 40
0
 40
1
 40
1
 40
1
 40
1
 10
167.046640
 20
179.172190
 30
0.0
 10
167.046640
 20
179.850630
 30
0.0
 10
167.632750
 20
180.400620
 30
0.0
 10
168.355770
 20
180.400620
 30
0.0
  0
SPLINE
  5
119
100
AcDbEntity
  8
Ebene_1
 62
1
100
AcDbSpline
 70
8
 71
3
 72
8
 73
4
 74
0
 40
0
 40
0
 40
0
 40
0
 40
1
 40
1
 40
1
 40
1
 10
168.355770
 20
180.400620
 30
0.0
 10
169.078790
 20
180.400620
 30
0.0
 10
169.664900
 20
179.850630
 30
0.0
 10
169.664900
 20
179.172190
 30
0.0
  0
LWPOLYLINE
  5
11a
100
AcDbEntity
  8
Ebene_1
 62
1
100
AcDbPolyline
 90
2
 70
0
 10
220.755548
 20
69.993325
 30
0.0
 10
218.190488
 20
70.025085
 30
0.0
  0
LWPOLYLINE
  5
11b
100
AcDbEntity
  8
Ebene_1
 62
1
100
AcDbPolyline
 90
1
 70
1
 10
169.664900
 20
179.172190
 30
0.0
  0
LWPOLYLINE
  5
11c
100
AcDbEntity
  8
Ebene_1
 62
1
100
AcDbPolyline
 90
3
 70
0
 10
321.285772
 20
85.151343
 30
0.0
 10
321.270772
 20
55.102235
 30
0.0
 10
291.325504
 20
54.945815
 30
0.0
  0
SPLINE
  5
11d
100
AcDbEntity
  8
Ebene_1
 62
1
100
AcDbSpline
 70
8
 71
3
 72
8
 73
4
 74
0
 40
0
 40
0
 40
0
 40
0
 40
1
 40
1
 40
1
 40
1
 10
213.957108
 20
2.616258
 30
0.0
 10
213.957108
 20
1.101778
 30
0.0
 10
213.201158
 20
0.073108
 30
0.0
 10
211.400488
 20
0.032488
 30
0.0
  0
LWPOLYLINE
  5
11e
100
AcDbEntity
  8
Ebene_1
 62
1
100
AcDbPolyline
 90
7
 70
0
 10
281.258854
 20
55.075735
 30
0.0
 10
215.544638
 20
55.036535
 30
0.0
 10
215.544638
 20
46.798635
 30
0.0
 10
211.015558
 20
46.798635
 30
0.0
 10
211.015558
 20
20.019027
 30
0.0
 10
213.957128
 20
20.010027
 30
0.0
 10
213.957108
 20
2.616258
 30
0.0
  0
SPLINE
  5
11f
100
AcDbEntity
  8
Ebene_1
 62
1
100
AcDbSpline
 70
8
 71
3
 72
8
 73
4
 74
0
 40
0
 40
0
 40
0
 40
0
 40
1
 40
1
 40
1
 40
1
 10
124.551043
 20
0.121998
 30
0.0
 10
123.096823
 20
0.087498
 30
0.0
 10
122.117783
 20
1.155688
 30
0.0
 10
122.117783
 20
2.648118
 30
0.0
  0
SPLINE
  5
120
100
AcDbEntity
  8
Ebene_1
 62
1
100
AcDbSpline
 70
8
 71
3
 72
8
 73
4
 74
0
 40
0
 40
0
 40
0
 40
0
 40
1
 40
1
 40
1
 40
1
 10
122.117783
 20
2.648118
 30
0.0
 10
122.117783
 20
2.648118
 30
0.0
 10
122.235503
 20
24.781526
 30
0.0
 10
122.235523
 20
24.760626
 30
0.0
  0
LWPOLYLINE
  5
121
100
AcDbEntity
  8
Ebene_1
 62
1
100
AcDbPolyline
 90
3
 70
0
 10
211.400488
 20
0.032488
 30
0.0
 10
167.970640
 20
0.155398
 30
0.0
 10
124.551043
 20
0.121998
 30
0.0
  0
SPLINE
  5
122
100
AcDbEntity
  8
Ebene_1
 62
1
100
AcDbSpline
 70
8
 71
3
 72
8
 73
4
 74
0
 40
0
 40
0
 40
0
 40
0
 40
1
 40
1
 40
1
 40
1
 10
120.673433
 20
55.030605
 30
0.0
 10
120.673433
 20
55.030605
 30
0.0
 10
112.553526
 20
55.037605
 30
0.0
 10
99.325210
 20
55.046505
 30
0.0
  0
SPLINE
  5
123
100
AcDbEntity
  8
Ebene_1
 62
1
100
AcDbSpline
 70
8
 71
3
 72
8
 73
4
 74
0
 40
0
 40
0
 40
0
 40
0
 40
1
 40
1
 40
1
 40
1
 10
89.335972
 20
55.053505
 30
0.0
 10
75.235785
 20
55.062505
 30
0.0
 10
60.685943
 20
55.072405
 30
0.0
 10
54.287587
 20
55.076605
 30
0.0
  0
LWPOLYLINE
  5
124
100
AcDbEntity
  8
Ebene_1
 62
1
100
AcDbPolyline
 90
4
 70
0
 10
122.235523
 20
24.760626
 30
0.0
 10
122.154323
 20
46.798625
 30
0.0
 10
120.648033
 20
46.750625
 30
0.0
 10
120.673433
 20
55.030605
 30
0.0
  0
SPLINE
  5
125
100
AcDbEntity
  8
Ebene_1
 62
1
100
AcDbSpline
 70
8
 71
3
 72
8
 73
4
 74
0
 40
0
 40
0
 40
0
 40
0
 40
1
 40
1
 40
1
 40
1
 10
15.449613
 20
55.241955
 30
0.0
 10
13.853055
 20
55.270655
 30
0.0
 10
12.645190
 20
56.388615
 30
0.0
 10
12.686048
 20
58.014755
 30
0.0
  0
LWPOLYLINE
  5
126
100
AcDbEntity
  8
Ebene_1
 62
1
100
AcDbPolyline
 90
2
 70
0
 10
24.522067
 20
55.057105
 30
0.0
 10
15.449613
 20
55.241955
 30
0.0
  0
LWPOLYLINE
  5
127
100
AcDbEntity
  8
Ebene_1
 62
1
100
AcDbPolyline
 90
2
 70
0
 10
12.686048
 20
58.014755
 30
0.0
 10
12.680348
 20
70.058284
 30
0.0
  0
SPLINE
  5
128
100
AcDbEntity
  8
Ebene_1
 62
1
100
AcDbSpline
 70
8
 71
3
 72
8
 73
4
 74
0
 40
0
 40
0
 40
0
 40
0
 40
1
 40
1
 40
1
 40
1
 10
118.942805
 20
110.050642
 30
0.0
 10
120.648013
 20
125.483041
 30
0.0
 10
132.959132
 20
161.291109
 30
0.0
 10
149.937721
 20
178.386358
 30
0.0
  0
SPLINE
  5
129
100
AcDbEntity
  8
Ebene_1
 62
1
100
AcDbSpline
 70
8
 71
3
 72
8
 73
4
 74
0
 40
0
 40
0
 40
0
 40
0
 40
1
 40
1
 40
1
 40
1
 10
149.937721
 20
178.386358
 30
0.0
 10
164.338910
 20
193.263831
 30
0.0
 10
165.094800
 20
191.863744
 30
0.0
 10
168.270850
 20
191.938444
 30
0.0
  0
SPLINE
  5
12a
100
AcDbEntity
  8
Ebene_1
 62
1
100
AcDbSpline
 70
8
 71
3
 72
8
 73
4
 74
0
 40
0
 40
0
 40
0
 40
0
 40
1
 40
1
 40
1
 40
1
 10
168.270850
 20
191.938444
 30
0.0
 10
171.446900
 20
191.863744
 30
0.0
 10
171.969400
 20
193.487371
 30
0.0
 10
186.370689
 20
178.609888
 30
0.0
  0
SPLINE
  5
12b
100
AcDbEntity
  8
Ebene_1
 62
1
100
AcDbSpline
 70
8
 71
3
 72
8
 73
4
 74
0
 40
0
 40
0
 40
0
 40
0
 40
1
 40
1
 40
1
 40
1
 10
186.370689
 20
178.609888
 30
0.0
 10
203.787648
 20
161.291109
 30
0.0
 10
215.544658
 20
125.483041
 30
0.0
 10
217.249228
 20
110.162362
 30
0.0
  0
SPLINE
  5
12c
100
AcDbEntity
  8
Ebene_1
 62
1
100
AcDbSpline
 70
8
 71
3
 72
8
 73
4
 74
0
 40
0
 40
0
 40
0
 40
0
 40
1
 40
1
 40
1
 40
1
 10
217.249228
 20
110.162362
 30
0.0
 10
250.439376
 20
101.750812
 30
0.0
 10
287.979264
 20
93.451083
 30
0.0
 10
321.285812
 20
85.151363
 30
0.0
  0
LWPOLYLINE
  5
12d
100
AcDbEntity
  8
Ebene_1
 62
1
100
AcDbPolyline
 90
3
 70
0
 10
12.675648
 20
79.847044
 30
0.0
 10
12.673148
 20
85.151463
 30
0.0
 10
118.942805
 20
110.050642
 30
0.0
  0
LWPOLYLINE
  5
12e
100
AcDbEntity
  8
Ebene_1
 62
1
100
AcDbPolyline
 90
2
 70
0
 10
0.050125
 20
65.014424
 30
0.0
 10
0.050125
 20
85.149993
 30
0.0
  0
LWPOLYLINE
  5
12f
100
AcDbEntity
  8
Ebene_1
 62
1
100
AcDbPolyline
 90
4
 70
0
 10
12.663275
 20
69.985654
 30
0.0
 10
6.096325
 20
70.026354
 30
0.0
 10
6.096325
 20
65.014774
 30
0.0
 10
0.050195
 20
65.014774
 30
0.0
  0
LWPOLYLINE
  5
130
100
AcDbEntity
  8
Ebene_1
 62
1
100
AcDbPolyline
 90
3
 70
0
 10
6.096325
 20
85.126723
 30
0.0
 10
6.096325
 20
80.048994
 30
0.0
 10
12.658275
 20
79.836604
 30
0.0
  0
LWPOLYLINE
  5
131
100
AcDbEntity
  8
Ebene_1
 62
1
100
AcDbPolyline
 90
2
 70
0
 10
6.096325
 20
85.126673
 30
0.0
 10
0.050195
 20
85.150273
 30
0.0
  0
LWPOLYLINE
  5
132
100
AcDbEntity
  8
Ebene_1
 62
1
100
AcDbPolyline
 90
3
 70
0
 10
84.638517
 20
51.786505
 30
0.0
 10
84.638517
 20
45.740305
 30
0.0
 10
104.254466
 20
45.740305
 30
0.0
  0
LWPOLYLINE
  5
133
100
AcDbEntity
  8
Ebene_1
 62
1
100
AcDbPolyline
 90
3
 70
0
 10
89.310776
 20
55.153815
 30
0.0
 10
89.354076
 20
51.786365
 30
0.0
 10
84.638517
 20
51.786425
 30
0.0
  0
LWPOLYLINE
  5
134
100
AcDbEntity
  8
Ebene_1
 62
1
100
AcDbPolyline
 90
3
 70
0
 10
104.254466
 20
51.786365
 30
0.0
 10
99.376726
 20
51.786365
 30
0.0
 10
99.376726
 20
55.023895
 30
0.0
  0
LWPOLYLINE
  5
135
100
AcDbEntity
  8
Ebene_1
 62
1
100
AcDbPolyline
 90
2
 70
0
 10
104.254466
 20
51.786365
 30
0.0
 10
104.254466
 20
45.740235
 30
0.0
  0
LWPOLYLINE
  5
136
100
AcDbEntity
  8
Ebene_1
 62
1
100
AcDbPolyline
 90
2
 70
0
 10
39.465418
 20
45.642835
 30
0.0
 10
59.600987
 20
45.642835
 30
0.0
  0
LWPOLYLINE
  5
137
100
AcDbEntity
  8
Ebene_1
 62
1
100
AcDbPolyline
 90
3
 70
0
 10
19.849798
 20
51.689175
 30
0.0
 10
19.849798
 20
45.642975
 30
0.0
 10
39.465748
 20
45.642975
 30
0.0
  0
LWPOLYLINE
  5
138
100
AcDbEntity
  8
Ebene_1
 62
1
100
AcDbPolyline
 90
3
 70
0
 10
24.522057
 20
55.056485
 30
0.0
 10
24.565357
 20
51.689035
 30
0.0
 10
19.849798
 20
51.689095
 30
0.0
  0
LWPOLYLINE
  5
139
100
AcDbEntity
  8
Ebene_1
 62
1
100
AcDbPolyline
 90
7
 70
0
 10
39.465748
 20
51.689035
 30
0.0
 10
34.588008
 20
51.689035
 30
0.0
 10
34.588008
 20
54.926565
 30
0.0
 10
44.477328
 20
54.926565
 30
0.0
 10
44.477328
 20
51.689035
 30
0.0
 10
39.465748
 20
51.689035
 30
0.0
 10
39.465748
 20
45.642905
 30
0.0
  0
LWPOLYLINE
  5
13a
100
AcDbEntity
  8
Ebene_1
 62
1
100
AcDbPolyline
 90
3
 70
0
 10
59.577696
 20
51.689035
 30
0.0
 10
54.499966
 20
51.689035
 30
0.0
 10
54.287577
 20
55.075985
 30
0.0
  0
LWPOLYLINE
  5
13b
100
AcDbEntity
  8
Ebene_1
 62
1
100
AcDbPolyline
 90
2
 70
0
 10
59.577646
 20
51.689035
 30
0.0
 10
59.601246
 20
45.642905
 30
0.0
  0
LWPOLYLINE
  5
13c
100
AcDbEntity
  8
Ebene_1
 62
1
100
AcDbPolyline
 90
3
 70
0
 10
276.587295
 20
51.708375
 30
0.0
 10
276.587295
 20
45.662175
 30
0.0
 10
296.203244
 20
45.662175
 30
0.0
  0
LWPOLYLINE
  5
13d
100
AcDbEntity
  8
Ebene_1
 62
1
100
AcDbPolyline
 90
3
 70
0
 10
281.259554
 20
55.075685
 30
0.0
 10
281.302854
 20
51.708235
 30
0.0
 10
276.587295
 20
51.708295
 30
0.0
  0
LWPOLYLINE
  5
13e
100
AcDbEntity
  8
Ebene_1
 62
1
100
AcDbPolyline
 90
3
 70
0
 10
296.203244
 20
51.708235
 30
0.0
 10
291.325504
 20
51.708235
 30
0.0
 10
291.325504
 20
54.945765
 30
0.0
  0
LWPOLYLINE
  5
13f
100
AcDbEntity
  8
Ebene_1
 62
1
100
AcDbPolyline
 90
2
 70
0
 10
296.203244
 20
51.708235
 30
0.0
 10
296.203244
 20
45.662105
 30
0.0
  0
LWPOLYLINE
  5
140
100
AcDbEntity
  8
Ebene_1
 62
1
100
AcDbPolyline
 90
2
 70
1
 10
1.431509
 20
73.617675
 30
0.0
 10
5.212679
 20
73.617675
 30
0.0
  0
LWPOLYLINE
  5
141
100
AcDbEntity
  8
Ebene_1
 62
1
100
AcDbPolyline
 90
2
 70
1
 10
8.213009
 20
73.617675
 30
0.0
 10
12.775518
 20
73.617675
 30
0.0
  0
LWPOLYLINE
  5
142
100
AcDbEntity
  8
Ebene_1
 62
1
100
AcDbPolyline
 90
2
 70
1
 10
4.431839
 20
75.082185
 30
0.0
 10
8.994359
 20
75.082185
 30
0.0
  0
LWPOLYLINE
  5
143
100
AcDbEntity
  8
Ebene_1
 62
1
100
AcDbPolyline
 90
2
 70
1
 10
1.431509
 20
76.547215
 30
0.0
 10
5.212679
 20
76.547215
 30
0.0
  0
LWPOLYLINE
  5
144
100
AcDbEntity
  8
Ebene_1
 62
1
100
AcDbPolyline
 90
2
 70
1
 10
8.213009
 20
76.547215
 30
0.0
 10
12.775518
 20
76.547215
 30
0.0
  0
LWPOLYLINE
  5
145
100
AcDbEntity
  8
Ebene_1
 62
1
100
AcDbPolyline
 90
2
 70
1
 10
28.237118
 20
51.361156
 30
0.0
 10
28.237118
 20
46.798647
 30
0.0
  0
LWPOLYLINE
  5
146
100
AcDbEntity
  8
Ebene_1
 62
1
100
AcDbPolyline
 90
2
 70
1
 10
29.701627
 20
55.142326
 30
0.0
 10
29.701627
 20
50.579806
 30
0.0
  0
LWPOLYLINE
  5
147
100
AcDbEntity
  8
Ebene_1
 62
1
100
AcDbPolyline
 90
2
 70
1
 10
31.166657
 20
51.361156
 30
0.0
 10
31.166657
 20
46.798647
 30
0.0
  0
LWPOLYLINE
  5
148
100
AcDbEntity
  8
Ebene_1
 62
1
100
AcDbPolyline
 90
2
 70
1
 10
48.046906
 20
51.361156
 30
0.0
 10
48.046906
 20
46.798647
 30
0.0
  0
LWPOLYLINE
  5
149
100
AcDbEntity
  8
Ebene_1
 62
1
100
AcDbPolyline
 90
2
 70
1
 10
49.511416
 20
55.142326
 30
0.0
 10
49.511416
 20
50.579806
 30
0.0
  0
LWPOLYLINE
  5
14a
100
AcDbEntity
  8
Ebene_1
 62
1
100
AcDbPolyline
 90
2
 70
1
 10
50.976446
 20
51.361156
 30
0.0
 10
50.976446
 20
46.798647
 30
0.0
  0
LWPOLYLINE
  5
14b
100
AcDbEntity
  8
Ebene_1
 62
1
100
AcDbPolyline
 90
2
 70
1
 10
284.847694
 20
51.361156
 30
0.0
 10
284.847694
 20
46.798647
 30
0.0
  0
LWPOLYLINE
  5
14c
100
AcDbEntity
  8
Ebene_1
 62
1
100
AcDbPolyline
 90
2
 70
1
 10
286.312204
 20
55.142326
 30
0.0
 10
286.312204
 20
50.579806
 30
0.0
  0
LWPOLYLINE
  5
14d
100
AcDbEntity
  8
Ebene_1
 62
1
100
AcDbPolyline
 90
2
 70
1
 10
287.777234
 20
51.361156
 30
0.0
 10
287.777234
 20
46.798647
 30
0.0
  0
LWPOLYLINE
  5
14e
100
AcDbEntity
  8
Ebene_1
 62
1
100
AcDbPolyline
 90
2
 70
1
 10
93.148644
 20
51.361156
 30
0.0
 10
93.148644
 20
46.798647
 30
0.0
  0
LWPOLYLINE
  5
14f
100
AcDbEntity
  8
Ebene_1
 62
1
100
AcDbPolyline
 90
2
 70
1
 10
94.613154
 20
55.142326
 30
0.0
 10
94.613154
 20
50.579806
 30
0.0
  0
LWPOLYLINE
  5
150
100
AcDbEntity
  8
Ebene_1
 62
1
100
AcDbPolyline
 90
2
 70
1
 10
96.078184
 20
51.361156
 30
0.0
 10
96.078184
 20
46.798647
 30
0.0
  0
ENDSEC
  0
SECTION
  2
OBJECTS
  0
DICTIONARY
  5
C
330
0
100
AcDbDictionary
  3
ACAD_GROUP
350
D
  3
ACAD_MLINESTYLE
350
17
  0
DICTIONARY
  5
D
330
C
100
AcDbDictionary
  0
DICTIONARY
  5
1A
330
C
100
AcDbDictionary
  0
DICTIONARY
  5
17
330
C
100
AcDbDictionary
  3
STANDARD
350
18
  0
DICTIONARY
  5
19
330
C
100
AcDbDictionary
  0
ENDSEC
  0
EOF
